<svg width="612" height="478" xmlns:xlink="http://www.w3.org/1999/xlink" xmlns="http://www.w3.org/2000/svg"><defs><clipPath id="k"><use xlink:href="#e"/></clipPath><clipPath id="i"><use xlink:href="#a"/></clipPath><clipPath id="f"><use xlink:href="#b"/></clipPath><clipPath id="h"><use xlink:href="#c"/></clipPath><clipPath id="j"><use xlink:href="#d"/></clipPath><path d="M104 52.5C104 23.505 80.719 0 52 0S0 52.5 0 52.5h24.96S37.066 25.2 52 25.2s27.04 12.223 27.04 27.3H104z" transform="rotate(-66 73.941 47.095)" id="b"/><path d="M58.69 6.393S46.25 8.408 33.226 12.097C20.2 15.786 0 22.707 0 22.707l11.597 33.47 18.573-3.558 7.291 42.714 100.195-1.637-17.655-56.156 6.537 5.174 21.142-22.79S131.126 5.392 121.874 2.413c-9.251-2.979-14.95-2.586-23.91-2.008C89.007.98 80.75 3.407 80.75 3.407s-6.182 3.596-9.846 4.147c-6.915 1.04-12.213-1.161-12.213-1.161z" transform="translate(0 .707)" id="e"/><path d="M1.686 0h315.227q.083 0 .165.008.083.008.164.024.081.017.16.04.08.025.156.056.077.032.15.071.073.04.142.085.069.046.133.099.064.052.122.11.059.06.111.123.053.064.099.133.046.07.085.142.039.073.071.15.031.076.055.155.024.08.04.16.017.082.025.165.008.082.008.165v194.628q0 .083-.008.165-.008.083-.025.164-.016.081-.04.161-.024.079-.055.155-.032.077-.071.15-.039.073-.085.142-.046.069-.099.133-.052.064-.111.122-.058.059-.122.111-.064.053-.133.099-.069.046-.142.085-.073.039-.15.071-.076.031-.156.055-.079.024-.16.041-.081.016-.164.024-.082.008-.165.008H1.686q-.083 0-.165-.008-.083-.008-.164-.024-.081-.017-.16-.041-.08-.024-.156-.055-.077-.032-.15-.071-.073-.039-.142-.085-.069-.046-.133-.099-.064-.052-.122-.111-.059-.058-.111-.122-.053-.064-.099-.133-.046-.069-.085-.142-.039-.073-.07-.15-.032-.076-.056-.155-.024-.08-.04-.161-.017-.081-.025-.164-.008-.082-.008-.165V1.686q0-.083.008-.165.008-.083.024-.164.017-.081.04-.16.025-.08.056-.156Q.16.964.2.89.24.818.284.75.33.68.383.616.435.552.493.494.554.435.617.383.68.33.75.284.82.238.891.2q.073-.039.15-.07.076-.032.155-.056.08-.024.16-.04.082-.017.165-.025Q1.603 0 1.686 0z" id="c"/><path d="M.842 0h6.744q.083 0 .165.016.08.016.158.048.076.032.145.078.07.046.128.105.058.058.105.127.046.07.077.146.032.077.048.158.017.081.017.164v6.75q0 .082-.017.164-.016.081-.048.158-.031.076-.077.145-.047.07-.105.128-.059.059-.128.105t-.145.078q-.077.031-.158.048-.082.016-.165.016H.842q-.083 0-.164-.016Q.597 8.4.52 8.37q-.077-.032-.146-.078-.069-.046-.127-.105-.059-.059-.105-.128t-.078-.145q-.032-.077-.048-.158Q0 7.674 0 7.59V.842Q0 .76.016.678T.064.52Q.096.443.142.374.188.305.247.247.305.188.374.142.444.096.52.064.597.032.678.016T.842 0z" transform="translate(44.671 107.952)" id="a"/><path d="M27.494 55.292c15.184 0 27.493-12.377 27.493-27.646C54.987 12.378 42.678 0 27.494 0 12.309 0 0 12.378 0 27.646c0 15.269 12.31 27.646 27.494 27.646z" transform="translate(0 .267)" id="d"/><filter filterUnits="userSpaceOnUse" color-interpolation-filters="sRGB" id="g"><feFlood flood-opacity="0" result="BackgroundImageFix"/><feColorMatrix in="SourceAlpha" values="0 0 0 0 0 0 0 0 0 0 0 0 0 0 0 0 0 0 127 0"/><feMorphology radius="1" operator="dilate" in="SourceAlpha" result="effect0_dropShadow"/><feOffset dx="2" dy="4"/><feGaussianBlur stdDeviation="8"/><feColorMatrix values="0 0 0 0 0.14509805 0 0 0 0 0.16470589 0 0 0 0 0.3529412 0 0 0 0.08235294 0"/><feBlend in2="BackgroundImageFix" result="effect0_dropShadow"/><feColorMatrix in="SourceAlpha" values="0 0 0 0 0 0 0 0 0 0 0 0 0 0 0 0 0 0 127 0"/><feOffset dx="4" dy="8"/><feGaussianBlur stdDeviation="24"/><feColorMatrix values="0 0 0 0 0.039215688 0 0 0 0 0.015686275 0 0 0 0 0.2 0 0 0 0.105882354 0"/><feBlend in2="effect0_dropShadow" result="effect1_dropShadow"/><feBlend in="SourceGraphic" in2="effect1_dropShadow" result="shape"/></filter></defs><path d="M532.632 45.67c-22.534-18.248-55.452-14.947-73.525 7.371-18.073 22.32 8.075 73.451 8.075 73.451l15.708-19.397s-13.597-26.589-4.199-38.195c9.398-11.606 26.516-13.322 38.233-3.833l15.708-19.398z" fill="#1A0D7C"/><g clip-path="url(#f)" fill="none" stroke="#FFF" transform="rotate(15 221.343 1710.615)"><path d="M-28.256 124.123c14.272-7.241 24.186-7.191 34.265 8.076.378.574-1.466.08-2.03-.308-1.257-.865-2.305-2.04-3.193-3.285-.671-.94-1.068-2.066-1.415-3.17-.398-1.268-.87-2.577-.807-3.906.196-4.104.849-8.183 1.578-12.228.345-1.913.765-3.86 1.637-5.597.55-1.093 1.549-1.92 2.515-2.666.638-.492 1.437-.747 2.207-.978 2.96-.887 5.897-1.999 8.963-2.369 1.404-.17 2.843.29 4.167.783 2.8 1.044-.519 4.366-1.438 4.766C11.695 106.066.265 102.764.78 94.1c.117-1.963.896-3.861 1.735-5.639.34-.72 1.02-1.27 1.71-1.661 3.326-1.88 6.929-3.23 10.258-5.106.276-.156.466-.579.367-.88a9.954 9.954 0 0 0-1.672-3.078 32.27 32.27 0 0 0-4.37-4.473c-3.058-2.582-6.106-5.238-9.545-7.28-.996-.593-2.29-.514-3.447-.438-7.533.49-15.102 7.125-21.05 11.327" stroke-width="1.047"/><path d="M51.404 73.486c14.272-7.242 24.187-7.192 34.266 8.076.378.573-1.466.08-2.03-.309-1.257-.864-2.306-2.04-3.194-3.285-.67-.94-1.067-2.065-1.414-3.17-.398-1.268-.87-2.576-.807-3.905.196-4.105.848-8.184 1.578-12.229.345-1.912.764-3.86 1.636-5.597.55-1.093 1.55-1.92 2.515-2.665.639-.493 1.437-.748 2.207-.978 2.961-.888 5.898-2 8.963-2.37 1.405-.17 2.843.29 4.168.784 2.8 1.044-.52 4.366-1.439 4.765-6.498 2.825-17.928-.476-17.412-9.14.117-1.962.895-3.86 1.734-5.638.34-.72 1.02-1.271 1.71-1.662 3.327-1.88 6.93-3.23 10.258-5.106.276-.155.467-.578.367-.88A9.957 9.957 0 0 0 92.84 27.1c-1.303-1.628-31.912 17.6-33.503 16.255-3.058-2.583-6.106-5.238-9.544-7.28-.997-.593-2.291-.514-3.448-.438-3.566.232 10.95 10.502 10.906 17.895-.029 4.771-21.43-5.416-26.152-2.582-3.418 2.052 9.759 17.615 8.444 18.544"/></g><path d="M1.686 0h315.227q.083 0 .165.008.083.008.164.024.081.017.16.04.08.025.156.056.077.032.15.071.073.04.142.085.069.046.133.099.064.052.122.11.059.06.111.123.053.064.099.133.046.07.085.142.039.073.071.15.031.076.055.155.024.08.04.16.017.082.025.165.008.082.008.165v194.628q0 .083-.008.165-.008.083-.025.164-.016.081-.04.161-.024.079-.055.155-.032.077-.071.15-.039.073-.085.142-.046.069-.099.133-.052.064-.111.122-.058.059-.122.111-.064.053-.133.099-.069.046-.142.085-.073.039-.15.071-.076.031-.156.055-.079.024-.16.041-.081.016-.164.024-.082.008-.165.008H1.686q-.083 0-.165-.008-.083-.008-.164-.024-.081-.017-.16-.041-.08-.024-.156-.055-.077-.032-.15-.071-.073-.039-.142-.085-.069-.046-.133-.099-.064-.052-.122-.111-.059-.058-.111-.122-.053-.064-.099-.133-.046-.069-.085-.142-.039-.073-.07-.15-.032-.076-.056-.155-.024-.08-.04-.161-.017-.081-.025-.164-.008-.082-.008-.165V1.686q0-.083.008-.165.008-.083.024-.164.017-.081.04-.16.025-.08.056-.156Q.16.964.2.89.24.818.284.75.33.68.383.616.435.552.493.494.554.435.617.383.68.33.75.284.82.238.891.2q.073-.039.15-.07.076-.032.155-.056.08-.024.16-.04.082-.017.165-.025Q1.603 0 1.686 0z" fill="#FFF" fill-rule="evenodd" filter="url(#g)" transform="translate(167.21 8)"/><g clip-path="url(#h)" transform="translate(167.21 8)"><path d="M0 0h318.599v13H0V0z" fill="#E6E8F0" fill-rule="evenodd"/></g><path d="M177.5 17a2.5 2.5 0 1 0 0-5 2.5 2.5 0 0 0 0 5zM186.5 17a2.5 2.5 0 1 0 0-5 2.5 2.5 0 0 0 0 5zM195.5 17a2.5 2.5 0 1 0 0-5 2.5 2.5 0 0 0 0 5zM353.949 48.482h61.436q.147 0 .294.014.146.015.29.043.145.03.286.072.14.043.277.099.136.056.265.126.13.07.253.15.122.083.236.176.113.093.218.197.104.105.197.218.093.114.175.236.082.123.151.253.07.13.126.265.056.136.099.277.043.141.072.285.028.145.043.291.014.147.014.294v40.394q0 .147-.014.293-.015.147-.043.29-.03.145-.072.286-.043.141-.099.277-.056.136-.126.266t-.15.252q-.083.122-.176.236-.093.114-.197.218-.105.104-.218.197-.114.094-.236.176-.123.081-.253.15-.13.07-.265.126-.136.057-.277.1-.141.042-.285.07-.145.03-.291.044-.147.014-.294.014h-61.436q-.147 0-.294-.014-.146-.014-.29-.043-.145-.029-.286-.072-.14-.042-.277-.099-.136-.056-.266-.125-.13-.07-.252-.151-.122-.082-.236-.176-.114-.093-.218-.197-.104-.104-.197-.218-.094-.114-.175-.236-.082-.122-.152-.252-.069-.13-.125-.266-.057-.136-.1-.277-.042-.14-.07-.285-.03-.144-.044-.29-.014-.147-.014-.294V51.478q0-.147.014-.294.015-.146.043-.29.029-.145.072-.286.042-.14.099-.277.056-.136.125-.265.07-.13.152-.253.081-.122.175-.236.093-.113.197-.218.104-.104.218-.197.114-.093.236-.175.123-.082.252-.151.13-.07.266-.126.136-.056.277-.1.14-.042.285-.07.145-.03.291-.044.147-.014.294-.014zM221.185 72.5c4.968 0 8.996-4.03 8.996-9s-4.028-9-8.996-9c-4.968 0-8.996 4.03-8.996 9s4.028 9 8.996 9zM276.406 48.482h53.008q.147 0 .294.014.146.015.29.043.145.03.286.072.14.043.276.099.136.056.266.126t.252.15q.123.083.237.176.113.093.217.197.105.105.198.218.093.114.175.236.082.123.151.253.07.13.126.265.056.136.099.277.043.141.071.285.029.145.044.291.014.147.014.294v69.758q0 .147-.014.294-.015.146-.044.29-.028.145-.071.286-.043.14-.1.276-.055.136-.125.266t-.151.252q-.082.123-.175.237-.093.113-.198.217-.104.105-.217.198-.114.093-.237.175-.122.082-.252.151-.13.07-.266.126-.136.056-.276.099-.141.043-.286.071-.144.029-.29.044-.147.014-.294.014h-53.008q-.147 0-.294-.014-.146-.015-.29-.044-.145-.028-.286-.071-.14-.043-.276-.1-.136-.055-.266-.125t-.252-.151q-.123-.082-.237-.175-.113-.093-.217-.198-.104-.104-.198-.217-.093-.114-.175-.237-.082-.122-.151-.252-.07-.13-.126-.266-.056-.136-.099-.276-.043-.141-.071-.286-.029-.144-.043-.29-.015-.147-.015-.294V51.478q0-.147.015-.294.014-.146.043-.29.028-.145.071-.286.043-.14.1-.277.056-.136.125-.265.07-.13.151-.253.082-.122.175-.236.094-.113.198-.218.104-.104.217-.197.114-.093.237-.175.122-.082.252-.151.13-.07.266-.126.136-.056.276-.1.141-.042.286-.07.144-.03.29-.044.147-.014.294-.014z" fill="#FFF0E4" fill-rule="evenodd"/><g clip-path="url(#i)" transform="translate(167.21 8)"><use xlink:href="#a" fill="none" stroke="#82CAC7" stroke-width="1.5"/></g><path d="M209.612 117.332c8.176 6.924 3.89 6.085 11.198-6.8" fill="none" stroke="#1A0D7C" stroke-width="2" stroke-linecap="round" stroke-linejoin="round"/><path d="M212.19 89.025h36.732M353.481 120.326h64.9M212.19 82.639h36.732M353.481 109.066h64.9M224.525 118.06h24.738M212.19 94.867h36.732M224.525 122.966h24.738" fill="none" stroke="#82CAC7"/><path d="M344.406 158.56a2.53 2.53 0 1 0-.001-5.058 2.53 2.53 0 0 0 .001 5.058zM408.876 76.81a2.53 2.53 0 1 0-.002-5.058 2.53 2.53 0 0 0 .002 5.058z" fill="#1A0D7C" fill-rule="evenodd"/><path d="M353.325 50.71c26.05 19.555 5.575 4.581 64.144 40.942" fill="none" stroke="#82CAC7"/><g><path d="M218.414 401.335c0-20.067-16.178-36.335-36.135-36.335" fill="none" stroke="#1A0D7C" stroke-width="2"/><path d="M181.494 430.037c15.184 0 27.494-12.378 27.494-27.646 0-15.269-12.31-27.646-27.494-27.646-15.185 0-27.494 12.377-27.494 27.646 0 15.268 12.31 27.646 27.494 27.646z" fill="#F6DFD2" fill-rule="evenodd"/><g clip-path="url(#j)" transform="translate(154 374.478)"><path d="M55.91 5.896S17.327 22.81 38.65-2.078M53.199 41.928s-32.451-17.137-28.16-8.943c4.29 8.194 15.387 15.826 15.387 15.826s-22.297-7.204-7.174 5.797c15.124 13.001 11.003 9.757 11.003 9.757" fill="none" stroke="#FFF" stroke-width=".524"/><path d="M12.343 23.342c2.536-.589 4.381-1.985 4.121-3.119-.26-1.133-2.527-1.575-5.064-.986-2.536.589-4.381 1.985-4.12 3.119.26 1.133 2.527 1.575 5.063.986zM54.099 34.474c1.534 1.543 3.44 2.126 4.258 1.304.819-.823.238-2.74-1.296-4.282-1.533-1.543-3.44-2.126-4.258-1.304-.818.823-.238 2.74 1.296 4.282z" fill="#FFF" fill-rule="evenodd"/></g></g><path d="M414.854 53.197c-39.482 23.613-34.837 23.613-61.42 39.101" fill="none" stroke="#82CAC7"/><g><path d="M114.61 204.258s-.42-15.411 11.946-18.724c12.366-3.313 9.993-11.146 17.371-15.559 7.379-4.413 7.379.963 15.387-1.407 8.008-2.37 10.885-5.266 18.382-3.006 7.497 2.26 10.131 12.92 10.131 12.92s7.618 7.052 4.438 15.909c-3.179 8.858-8.526 9.578-7.082 20.095s-3.735 15.893-3.735 15.893-25.019-5.998-37.52-10.95c-12.503-4.952-29.317-15.17-29.317-15.17z" fill="#1A0D7C" fill-rule="evenodd"/><path d="M185.81 179.712s-2.35 16.693-6.053 21.672c-3.703 4.98-14.276 4.768-14.276 4.768l-2.919 9.896s-11.317 4.477-15.698-2.351-2.625-10.53-2.625-10.53l8.518-14.282s-4.99-6.835-.767-10.46c4.225-3.625 7.982 1.18 14.067-.593 6.395-1.862 12.044-7.857 12.044-7.857s1.892 4.564 3.327 6.399c1.435 1.834 4.382 3.338 4.382 3.338z" fill="#F6DFD2" fill-rule="evenodd"/><path d="M153.375 180.778c5.976.555.945-.133.55 3.183" fill="none" stroke="#0E101A" stroke-width=".75" stroke-linecap="round" stroke-linejoin="round"/><path d="M168.302 193.838c.282 2.445.282 2.445 1.469 3.312" fill="none" stroke="#0E101A" stroke-linecap="round" stroke-linejoin="round"/><path d="M170.627 185.886c.534.097 1.081-.492 1.222-1.314.142-.823-.177-1.568-.71-1.665-.534-.097-1.081.492-1.223 1.314-.14.823.177 1.568.711 1.665zM180.413 188.882c.54.115 1.073-.456 1.192-1.276.118-.82-.222-1.579-.762-1.695-.539-.115-1.072.456-1.191 1.276-.119.82.222 1.579.761 1.695z" fill="#0E101A" fill-rule="evenodd"/><path d="M99.577 267.305s-12.827 34.7-23.695 78.732c-10.868 44.031-23.863 101.29-23.863 101.29l51.944 1.695s-3.55-11.935-13.871-13.192c-10.32-1.257-16.456-1.63-16.456-1.63l1.518-2.798 17.94-.904 25.868-110.205 6.399 108.898v16.46l46.428 2.032s.57-8.653-11.247-11.577c-11.817-2.924-18.102-3.907-18.102-3.907l.452-2.561 14.547-.807s.44-41.87 1.605-79.027c1.166-37.157-2.071-72.808-2.071-72.808l-57.396-9.691z" fill="#1A0D7C" fill-rule="evenodd"/><path d="M176.07 185.99c-.531 6.202-.233 7.827-3.16 8.401" fill="none" stroke="#0E101A" stroke-linecap="round"/><path d="M233.756 254.336c7.169-5.654 9.738-4.523 17.27-7.031l-3.07 20.32-9.827 3.423-7.372-13.025 3-3.687z" fill="#F6DFD2" fill-rule="evenodd" stroke="#1A0D7C"/><path d="M128.436 290.282s17.27 11.455 13.839 11.883c-3.432.43-7.134-.499-7.134-.499s8.408 8.71 7.13 9.31c-1.278.602-6.666-2.61-6.666-2.61s5.477 6.102 3.487 6.767c-1.99.665-7.495-4.547-7.495-4.547s4.404 4.19 3.474 5.425c-.93 1.234-5.813-3.48-5.813-3.48s2.41 3.378-.002 3.21c-2.412-.17-15.99-17.707-15.99-17.707l15.17-7.752z" fill="#F6DFD2" fill-rule="evenodd"/><path d="m162.562 216.048 22.252 9.08 16.91 38.174 28.917-13.965 15.95 24.034s-34.704 30.922-52.29 26.176c-17.587-4.747-31.739-34.248-31.739-34.248l-5.25 12.332-31.388-5.423 7.247 15.778-27.213 15.428S62.91 253.06 83.329 228.37c20.42-24.69 44.78-30.604 44.78-30.604l16.13 5.402s1.647 10.121 6.118 12.88c4.47 2.759 12.205 0 12.205 0z" fill="#9FDEEB" fill-rule="evenodd"/><path d="M4.17 6.05S15.548.046 22.28 0c6.733-.045 20.297 5.79 20.297 5.79L47 16H0l4.17-9.95z" transform="translate(237 193.223)" fill="#FFF" fill-rule="evenodd" filter="url(#g)"/><path d="M257.716 242.625c5.147.399 10.464-.7 15.272-3.476 12.675-7.317 17.018-23.525 9.7-36.2-7.318-12.674-23.525-17.017-36.2-9.699-12.675 7.318-17.017 23.525-9.7 36.2a26.407 26.407 0 0 0 15.216 12.096l-10.309 38.502q-.053.199-.065.405-.011.206.02.41.03.205.102.398.072.194.182.368.11.175.254.324.143.148.314.264.17.116.361.195.19.08.394.117l1.772.333q.092.018.185.026.093.009.187.009.093 0 .186-.009t.185-.026q.092-.018.181-.044.09-.026.177-.06t.17-.076q.084-.042.163-.092.08-.05.153-.107.074-.057.143-.12.068-.064.13-.134.063-.07.118-.145.056-.075.104-.155.048-.08.089-.164.04-.084.073-.172.032-.088.057-.178l10.386-38.79zm20.632-37.005c5.938 10.283 2.414 23.432-7.869 29.37-10.283 5.936-23.433 2.413-29.37-7.87-5.937-10.284-2.413-23.433 7.87-29.37 10.283-5.937 23.432-2.414 29.37 7.87z" fill="#6F4CFF" fill-rule="evenodd"/><path d="m129.614 272.85-10.25-20.44 4.141-12.243-6.663 12.698 9.082 19.343 3.69.643zM162.562 265.299l9.944-22.562-7.22 28.31-2.724-5.748zM199.87 259.174l-6.717 7.405 8.572-3.277-1.855-4.128z" fill="#F0F8FD" fill-rule="evenodd"/><path d="M176.766 166s-4.14-7.798 1.002-9.365c5.143-1.566 6.496 3.59 4.732 7.157-1.765 3.565-5.734 2.208-5.734 2.208z" fill="#1A0D7C" fill-rule="evenodd"/><path d="M258.282 247.406c-2.045-1.005-5.841 1.102-5.684 2.384.157 1.283 4.141.896 4.141.896s-.329.645-.5.677c-3.97.745-6.017 1.381-6.098 3.074-.127 2.65 4.082 2.504 4.082 2.504s.107.424-.022.459c-2.571.677-4.264 1.294-4.325 2.566-.096 2.005 3.315 2.325 3.315 2.325s-3.31.81-3.5 1.563c-.192.752-.242 2.29 2.828 2.41 3.07.12 5.761-5.07 6.854-9.604 1.254-5.205.953-8.249-1.091-9.254z" fill="#F6DFD2" fill-rule="evenodd" stroke="#1A0D7C" stroke-linejoin="round"/><path d="M240.08 255.467c2.044-.974 4.399-1.928 6.398-1.928 5.576 0 4.032 2.878 1.359 4.096-2.673 1.217-4.44 2.503-4.44 2.503" fill="#F6DFD2" fill-rule="evenodd" stroke="#1A0D7C"/></g><path d="M79 137.75c10.321-5.33 15.643-12.275 23.058-12.275 7.416 0 10.26 6.945 14.118 4.76 3.858-2.186 3.858-15.08 16.521-17.656 12.663-2.575 19.387 15.47 19.387 15.47s3.225-20.551 7.335-27.274c9.267-15.16 15.395-17.999 18.534-23.775" fill="none" stroke="#82CAC7" stroke-width="2"/><path d="m459.968 151.568 10.661-8.638 19.263 23.8 14.215-11.517-19.263-23.8 10.661-8.637-40.372-12.811 4.835 41.603z" fill="#FFF0E4" fill-rule="evenodd" stroke="#1A0D7C" stroke-linejoin="round"/><g><path d="m450.246 255.893-73.51 20.478-30.952-70.766s4.58-5.796 6.392-8.406c3.641-5.244 3.093-7.853 3.093-13.401 0-2.343-4.763-15.786-6.657-9.2-1.895 6.587 1.034 5.511-.342 7.919-1.377 2.407-2.13 1.28-2.13 1.28s7.512-29.547 2.13-29.547c-5.383 0-9.156 22.87-9.156 22.87s2.028-6.262-1.74-6.262c-3.767 0-6.482 5.419-6.482 5.419s1.203-4.06-1.443-4.06c-2.645 0-4.684 4.26-4.684 4.26s.238-2.574-1.618-2.226c-1.856.347-2.606 5.54-3.281 10.492-.676 4.952.134 14.528 1.672 21.513 1.537 6.986 9.183 34.853 13.65 47.894 4.467 13.041 18.804 55.755 27.809 55.755 9.005 0 55.404-9.15 55.404-9.15l90.3-16.867s8.572 8.582 10.738 13.391c13.04 28.947 36.98 50.395 27.39 70.735-5.255 11.148-8.322 12.218-5.767 13.674 1.044.595 3.641-.119 5.767-2.253 3.076-3.087 3.775-4.421 5.446-3.409 3.273 1.981-7.98 17.511-.859 16.675 2.071-.243 7.132-15.124 7.132-15.124s-2.837 18.711-.012 18.711 5.897-17.969 5.897-17.969-1.028 15.218 1.025 15.218 3.386-14.102 3.386-14.102 1.821 11.049 2.273 9.879c1.495-3.86 6.55-17.21 2.627-30.721-17.457-60.144-24.413-69.017-38.584-85.668-14.17-16.65-49.429-21.595-49.429-21.595l-35.485 4.563z" fill="#F6DFD2" fill-rule="evenodd" stroke="#1A0D7C" stroke-linejoin="round"/><path d="m425.874 332.949 3.355 16.578s-87.8 54.952-100.942 71.824c-13.142 16.871-19.872 28.498-3.992 42.676 7.895 7.05 36.366 5.401 65.24 7.524 1.018.075 17.177-1.348 17.177-1.348s3.97-.198 14.444 1.348c5.568.822 21.591 2.153 21.591 2.153l-39.255-38.07-31.653-2.018 96.1-45.995s-16.01 63.327-17.116 70.483c-1.106 7.156.086 15.6 3.731 16.146 3.645.545 100.747 0 100.747 0l5.813-.546s11.901 1.902 19.737 2.008c7.835.107 29.8-2.008 29.8-2.008s-48.263-33.72-49.537-33.72c-1.274 0-60.902-3.593-60.902-3.593s28.004-60.365 23.038-91.084c-4.966-30.719-3.096-12.358-3.096-12.358h-94.28z" fill="#1A0D7C" fill-rule="evenodd"/><path d="M436.962 209.745c-3.149 4.42-3.426 4.876-4.024 13.891-.597 9.015-1.587 17.498 2.308 18.447 3.895.948 6.938-.628 6.938-.628l4.278 14.507s7.199 1.49 11.177.946c3.978-.544 11.34-4.001 11.34-4.001s-6.074-42.653-15.55-44.456c-8.916-1.696-13.318-3.128-16.467 1.294z" fill="#F6DFD2" fill-rule="evenodd"/><path d="M433.382 225.53a18.686 18.686 0 0 0-1.273 3.505" fill="none" stroke="#0E101A" stroke-linecap="round" stroke-linejoin="round"/><path d="M446.92 255.893s-12.441 2.014-25.465 5.703c-13.024 3.69-33.225 10.61-33.225 10.61l11.597 33.47 18.574-3.557 7.29 42.714 100.195-1.637-17.655-56.156 6.537 5.173 21.142-22.789s-16.554-14.534-25.806-17.513c-9.25-2.978-14.95-2.585-23.909-2.007-8.959.577-17.215 3.003-17.215 3.003s-6.181 3.596-9.845 4.146c-6.916 1.04-12.214-1.16-12.214-1.16z" fill="#82CAC7" fill-rule="evenodd"/><g clip-path="url(#k)" stroke="#FFF" transform="translate(388.23 248.793)"><path d="M57.9 59.28c1.274.464 2.932-.882 3.704-3.006.772-2.124.366-4.222-.907-4.686-1.273-.464-2.93.882-3.703 3.006-.772 2.124-.366 4.222.907 4.686zM112.968 66.855c-.426.426-.08 1.462.77 2.315.852.852 1.887 1.198 2.313.771.426-.426.08-1.462-.77-2.315-.852-.852-1.888-1.198-2.313-.771z" fill="#FFF" fill-rule="evenodd" stroke-width=".545"/><path d="M112.888-.546c-5.1 4.665-10.753 8.788-15.3 13.993-4.799 5.493-19.767 31.328-5.224 36.184 5.21 1.74 8.62.75 14.317-1.466 2.73-1.062 5.145-2.826 7.549-4.502a22.686 22.686 0 0 0 3.888-3.472c1.042-1.162 2.084-2.399 2.671-3.845 7.39-18.178-19.9-.612-16.948 8.783 1.186 3.778 6.11 4.593 9.207 4.75 12.68.643 22.748-3.291 34.076-8.244" fill="none"/><path d="M76.054 5.166c-5.818 6.698-15.5 18.634-24.831 4.903-.777-1.143-2.813-3.781-1.436-3.89 4.05-.322 7.904 1.908 11.798 3.068 1.01.301 2.038.672 2.882 1.305.702.527 1.828 1.22 1.622 2.074-2.035 8.458-26.358 15.206-29.098.979-.416-2.163-2.451-7.592-.493-6.588C53.885 15.93 57.468 30.599 48.6 46.212c-2.677 4.713-5.702 9.237-8.967 13.562-.971 1.287-2.167 2.553-3.658 3.165-4.403 1.807-18.195 2.361-13.715 3.967 5.314 1.904 11.06-2.397 16.682-2.904 2.297-.207 4.615.32 6.875.78 7.55 1.54 21.325 20.746 15.749 26.62-.932.981-3.702-2.582-3.594-3.186.564-3.147 4.671-5.405 6.957-6.513 3.923-1.904 14.288-1.412 18.461-2.677 7.733-2.342 12.623-15.506 17.152-8.112 2.622 4.28-2.264 22.877 0 23.232" fill="none"/></g><path d="M444.15 220.174c-1.963-.88-3.361 1.535-3.43 1.809" fill="none" stroke="#0E101A" stroke-linecap="round" stroke-linejoin="round"/><path d="M435.241 223.297c.534.078 1.08-.527 1.222-1.352.14-.824-.178-1.556-.712-1.635-.534-.078-1.08.527-1.221 1.352-.141.824.177 1.556.711 1.635z" fill="#0E101A" fill-rule="evenodd"/><path d="M433.29 206.557c-1.293 2.129 3.112 6.347 3.112 6.347s2.11 1.529 2.11 2.596c0 2.5 1.12 4.689 1.12 4.689s3.848-3.94 5.571-.757c1.623 2.998 1.875 5.264-2.835 8.701-.08.058 3.642 4.435 3.642 4.435s1.566 4.015 5.677 7.164c3.781 2.896 4.382 4.571 9.373 4.571 4.99 0 9.042-5.445 8.642-8.992-.172-1.527-.744-26.953-11.294-31.503-5.08-2.19-21.901-2.54-25.117 2.75z" fill="#1A0D7C" fill-rule="evenodd"/><path d="m477.154 374.478-17.32 45.541 8.105-32.398 9.215-13.143z" fill="#2D3880" fill-rule="evenodd"/><path d="M348.572 431.95c4.489.236 22.952 1.76 22.952 1.76s-6.043 2.464-8.343 4.91" fill="none" stroke="#2D3880"/></g><path d="m329.34 122.966-54.184-70.958" fill="none" stroke="#82CAC7"/><path d="M537.835 216.069c3.468-.93 5.236-5.574 3.95-10.376-1.287-4.8-5.141-7.94-8.609-7.01-3.467.928-5.235 5.574-3.949 10.375 1.287 4.801 5.14 7.94 8.608 7.011z" fill="#9FDEEB" fill-rule="evenodd"/><path d="m278.59 121.412 48.718-69.404" fill="none" stroke="#82CAC7"/><path d="M409.932 75.855s20.01 42.746-35.523 46.767c-55.533 4.022-31.782 31.908-31.782 31.908" fill="none" stroke="#1A0D7C"/><g><path d="M1 167h51v38H1v-38z" fill="#1A0D7C" fill-rule="evenodd"/><path d="M7 162h58v48l-10.786-10.826H7V162z" fill="#82CAC7" fill-rule="evenodd"/><path d="m39.94 173.874-7.002 16.209-1.494-.026 6.983-16.209 1.514.026zm-10.787 12.578-8.323-4.365.01-.576 8.479-4.56-.026 1.465-6.329 3.366v.04l6.215 3.175-.026 1.455zm13.074.228 8.471-4.072.01-.576-8.315-4.853-.025 1.465 6.227 3.586-.001.058-6.341 2.937-.026 1.455z" fill="#FFF"/></g></svg>