<svg width="470" height="614" xmlns:xlink="http://www.w3.org/1999/xlink" xmlns="http://www.w3.org/2000/svg"><defs><clipPath id="m"><use xlink:href="#f"/></clipPath><clipPath id="l"><use xlink:href="#a"/></clipPath><clipPath id="h"><use xlink:href="#b"/></clipPath><clipPath id="i"><use xlink:href="#c"/></clipPath><clipPath id="j"><use xlink:href="#d"/></clipPath><clipPath id="k"><use xlink:href="#e"/></clipPath><path d="M176.79 8.997s-.367-.734-.46-1.553c-1.211-10.65-24.326-9.83-35.677 2.183-18.183 19.245-14.306 20.711-33.287 20.712-18.98.002-23.324-9.758-42.362-3.012-19.038 6.745-18.876 24.692-33.124 27.768C17.63 58.17 0 74.946 0 82.675c0 1.815 19.593-4.01 23.845-3.732 7.817.513 14.135 3.069 14.135 3.069s20.256 9.656 30.795 8.057c10.538-1.6 13.506-2.693 13.506-2.693s-2.123 18.328 6.366 10.174c8.488-8.154 18.716-8.155 18.716-8.155s11.663 10.084 28.645-4.287c16.983-14.37 4.305-25.232 15.232-27.195 10.928-1.963 11.912-12.265 11.912-12.265s-6.819-5.502-4.318-15.312c.906-3.557 7.821-5.714 11.29-10.09 2.908-3.67 6.666-11.25 6.666-11.25z" transform="rotate(1 -36.157 102.732)" id="b"/><path d="M17.532 35.094c9.76-.078 17.736-7.998 17.814-17.688C35.424 7.715 27.576-.078 17.815 0 8.055.079.079 7.998 0 17.689c-.079 9.69 7.77 17.483 17.53 17.405z" transform="rotate(123 19.46 23.1)" id="f"/><path d="M62.253 31.218C62.253 13.977 48.317 0 31.127 0 13.936 0 0 13.977 0 31.218s13.936 31.218 31.127 31.218V47.45c-8.94 0-16.186-7.268-16.186-16.233s7.246-16.233 16.186-16.233c8.939 0 16.185 7.268 16.185 16.233h14.941z" transform="rotate(124 33.914 40.838)" id="c"/><path d="m124.749 0-43.84 20.57s.138 5.018-5.862 6.706c-6 1.688-10.708-2.866-10.708-2.866L0 47.417s17.634 37.758 28.957 48.005c46.09 41.708 90.984 13.641 97.315-31.803C133.541 11.439 124.749 0 124.749 0z" transform="translate(0 .365)" id="d"/><path d="M42.479 85.892c23.46 0 42.478-19.228 42.478-42.946C84.957 19.228 65.94 0 42.48 0S0 19.227 0 42.946c0 23.718 19.018 42.946 42.479 42.946z" transform="translate(0 .414)" id="e"/><path d="M10.488.003 57.031 0q.257 0 .514.013.258.012.514.037.256.026.51.063.255.038.508.088.252.05.502.113t.496.137q.246.075.489.162.242.087.48.185.238.099.47.209.233.11.46.231.227.121.448.254.221.132.435.275.214.143.421.296.207.154.406.317.199.163.39.336.19.173.372.355t.355.373q.173.19.336.39.164.199.317.406.153.206.297.42.142.214.275.435.132.221.254.448.12.227.23.46.111.233.21.47.098.238.185.48.086.243.161.49.075.246.137.496.063.25.113.502t.088.507q.038.255.063.51.025.257.038.514.013.257.013.515v.002q0 .257-.013.514-.013.258-.038.514t-.063.51q-.038.255-.088.508-.05.252-.113.502t-.137.496q-.075.247-.162.489-.087.242-.185.48t-.209.47q-.11.234-.231.46-.121.228-.254.448-.132.221-.275.435-.143.214-.297.421-.153.207-.316.406-.164.2-.337.39-.172.19-.355.373-.182.182-.372.355-.191.172-.39.336-.2.163-.406.317-.207.153-.42.296-.215.143-.436.275-.22.133-.448.254-.227.122-.46.232-.232.11-.47.208-.238.099-.48.185-.243.087-.49.162-.245.075-.495.137-.25.063-.502.113-.253.05-.508.088-.254.038-.51.063-.257.025-.514.038-.257.013-.514.013l-46.543.003q-.258 0-.515-.013-.257-.012-.513-.038-.256-.025-.511-.063-.255-.037-.507-.088-.253-.05-.502-.112-.25-.063-.497-.138-.246-.074-.488-.161-.243-.087-.48-.185-.238-.099-.471-.209-.233-.11-.46-.231-.227-.122-.448-.254-.22-.132-.435-.275-.214-.143-.42-.297-.207-.153-.406-.316-.2-.164-.39-.337-.19-.172-.373-.355-.182-.181-.355-.372t-.336-.39q-.163-.199-.317-.406-.153-.207-.296-.42-.143-.215-.275-.436-.133-.22-.254-.447t-.231-.46q-.11-.233-.209-.47-.098-.239-.185-.48-.087-.243-.162-.49-.074-.246-.137-.496-.062-.25-.113-.502-.05-.252-.088-.507-.037-.255-.063-.511-.025-.256-.037-.513Q0 10.75 0 10.493v-.002q0-.257.013-.515.012-.257.038-.513.025-.256.063-.51.037-.255.088-.508.05-.252.112-.502.063-.25.138-.496.075-.247.161-.49.087-.242.186-.48.098-.237.208-.47.11-.233.232-.46.121-.227.253-.448.133-.22.276-.435.143-.214.296-.42.154-.207.317-.406.163-.2.336-.39.173-.19.355-.373.182-.182.373-.355.19-.173.39-.336.199-.163.406-.317.206-.153.42-.296t.435-.276q.221-.132.448-.253.227-.122.46-.232.233-.11.47-.208.238-.099.48-.186.243-.086.49-.161Q7.69.38 7.94.317q.25-.062.502-.112t.507-.088q.255-.038.511-.063.256-.026.513-.038.258-.013.515-.013z" transform="rotate(9 -209.466 185.191)" id="a"/><linearGradient x1=".138" y1=".163" x2="1.808" y2="1.479" id="g"><stop offset="0" stop-color="#F4F5F9" stop-opacity=".631"/><stop offset="1" stop-color="#E6E8F0"/><stop offset="1" stop-color="#E6E8F0"/></linearGradient></defs><path d="M112.048 6.187c38.338-28.54 106.176 53.489 160.196 8.338 54.02-45.15 139.637 202.536 42.808 185.682-35.167-6.121-71.789 24.967-119.394 56.131-24.781 16.222-13.217 75.495-37.234 89.581-56.881 33.363-126.726-14.592-131.966-64.546-5.581-53.199-45.872-62.516-14.82-124.905 34.067-68.45 16.494-87.812 100.41-150.281z" transform="rotate(180 180 249.242)" fill="url(#g)" fill-opacity=".665" fill-rule="evenodd"/><path d="m442.517 27.39.05.353-3.912 5.232-15.154-11.557-.124-.883 11.381-15.287 5.203 3.951.05.353-7.857 10.23 10.363 7.608zm15.268-.607-10.417-7.986-.051-.366 3.889-5.397 15.221 12.037.129.915-11.314 15.766-5.226-4.115-.051-.366 7.82-10.488z" fill="#FFF0E4"/><path d="m275.057 25.195-16.125 39.188h-3.586l16.078-39.188h3.633z" fill="#2D3880"/><path d="M204.029 217.14s-.355-.739-.433-1.56c-1.025-10.668-24.151-10.253-35.71 1.56-18.516 18.925-14.665 20.459-33.643 20.129-18.978-.33-23.15-10.164-42.303-3.752s-19.304 24.36-33.604 27.186c-14.3 2.827-32.221 19.292-32.356 27.02-.032 1.814 19.66-3.669 23.906-3.315 7.807.649 14.08 3.314 14.08 3.314s20.083 10.009 30.649 8.594c10.565-1.416 13.551-2.457 13.551-2.457s-2.442 18.288 6.187 10.283c8.63-8.004 18.856-7.826 18.856-7.826s11.485 10.285 28.715-3.787c17.232-14.072 4.745-25.153 15.705-26.925 10.96-1.773 12.124-12.056 12.124-12.056s-6.722-5.62-4.05-15.384c.968-3.54 7.92-5.577 11.464-9.892 2.972-3.618 6.862-11.131 6.862-11.131z" fill="#1A0D7C" fill-rule="evenodd"/><g clip-path="url(#h)" transform="translate(25.635 204.413)"><path d="M191.78-3.283s-1.575 13.338-16.8 13.338c-15.223 0-32.035 14.677-41.196 43.663-4.698 14.863-3.777 23.45-22.444 23.45-18.667 0-12.88 19.49-25.353 26.282-6.79 3.697 4.398-5.376 17.749 4.387C117.087 117.6 171.583 94.3 171.583 94.3s16.895-56.859 20.197-73.885c3.302-17.025 0-23.7 0-23.7z" fill="#392B9D" fill-rule="evenodd"/></g><g fill="#FFF0E4" fill-rule="evenodd"><path d="M15.887 457.143q-.143-.033-.225-.154l-2.837-4.204 12.89-7.403q.149-.086.32-.112.17-.025.338.014l.02.004q.167.039.309.136t.238.239l8.306 12.179-4.36 2.659q-.06.036-.13.048-.07.01-.138-.005h-.001q-.069-.016-.126-.056-.058-.04-.097-.1l-5.565-8.482-8.674 5.195q-.06.036-.13.047-.07.01-.138-.005z"/><path d="M29.758 459.687q-.07-.016-.127-.057-.058-.04-.096-.1l-2.77-4.303 12.827-7.303q.149-.085.319-.11.17-.024.337.014l.022.005q.167.039.309.136.142.096.239.238l8.341 12.19-4.39 2.65q-.06.037-.13.048-.07.011-.138-.005H44.5q-.069-.016-.127-.056-.058-.04-.096-.1l-5.572-8.483-8.679 5.194q-.06.036-.13.047-.07.01-.138-.005z"/><path d="M44.901 463.509q-.07-.016-.127-.057-.057-.04-.095-.1l-2.733-4.3 12.79-7.304q.15-.086.32-.11.17-.026.338.013l.02.005q.167.038.31.136.142.097.239.24l8.35 12.308-4.396 2.533q-.127.073-.27.04-.07-.016-.127-.056-.058-.04-.097-.1l-5.572-8.484-8.681 5.194q-.06.036-.13.047-.07.01-.139-.005z"/></g><path d="M203.87 215.358s-.785 2.624-5.74 9.194-13.432 9.921-13.432 9.921-2.164-3.323-5.126 1.349c-2.962 4.67 5.126 9.413 5.126 9.413 0 1.48 2.022 4.989 4.369 8.631 3.737 5.8 22.12 14.337 20.808-21.494-.224-6.102-6.005-17.014-6.005-17.014z" fill="#F6DFD2" fill-rule="evenodd"/><path d="M201.643 234.49c.822-.1 1.38-1.07 1.245-2.167-.135-1.096-.91-1.903-1.733-1.802-.822.1-1.38 1.071-1.245 2.168.135 1.096.91 1.903 1.733 1.802z" fill="#0E101A" fill-rule="evenodd"/><path d="M207.204 234.51c1.827 2.283 3.65 5.472 3.65 5.472" fill="none" stroke="#0E101A" stroke-width="2" stroke-linecap="round"/><path d="M203.45 252.75s4.511 13.71 8.588 15.119c4.076 1.408 1.414 11.22 1.414 11.22l-18.183 2.847-4.488-5.268s5.392-6.405 6.057-10.26c.665-3.854 0-11.306 0-11.306s.588.42 2.185 0 4.426-2.351 4.426-2.351z" fill="#F6DFD2" fill-rule="evenodd"/><path d="M236.067 592.023s46.69 9.12 42.939 18.24l-72.714-2.433 10.95-15.807h18.825zM110.175 572.526s16.616 42.872 4.884 39.29L74.535 558.53l35.64 13.996z" fill="#1A0D7C" fill-rule="evenodd"/><path d="M311.337 414.964c5.613-16.302-3.013-34.054-19.267-39.65-16.255-5.598-33.982 3.08-39.595 19.382-5.613 16.302 3.013 34.055 19.267 39.651l4.879-14.168c-8.452-2.91-12.938-12.141-10.019-20.618 2.919-8.477 12.137-12.99 20.59-10.08 8.451 2.91 12.937 12.142 10.018 20.619l14.127 4.864z" fill="#9FDEEB"/><g clip-path="url(#i)" fill="none" stroke="#FFF" stroke-width=".956" transform="rotate(-105 301.15 132.88)"><path d="M22.539 35.25c7.863-3.901 13.087-4.351 17.68 1.96.173.238-.776.106-1.055-.04-.622-.324-1.119-.798-1.528-1.309-.31-.386-.466-.868-.597-1.343-.15-.545-.337-1.105-.241-1.699.297-1.835.832-3.681 1.407-5.515.272-.868.585-1.754 1.126-2.568.341-.513.907-.928 1.452-1.306.36-.25.792-.4 1.209-.54 1.602-.536 3.203-1.17 4.836-1.481.748-.143 1.485-.007 2.16.15 1.426.33-.48 1.967-.983 2.188-3.558 1.567-9.427.642-8.747-3.236.153-.88.653-1.76 1.18-2.592.212-.336.597-.614.979-.82 1.842-.995 3.804-1.768 5.647-2.76.153-.083.273-.28.235-.41a3.283 3.283 0 0 0-.736-1.29 11.81 11.81 0 0 0-2.093-1.78c-1.49-1.004-2.972-2.04-4.688-2.785-.497-.216-1.184-.12-1.797-.03-3.993.576-8.295 3.888-11.628 6.041M34.015 77.963c7.839-3.955 13.284-3.928 18.82 4.411.207.313-.805.044-1.115-.168-.69-.473-1.266-1.115-1.754-1.794-.369-.514-.587-1.129-.777-1.732-.219-.692-.478-1.407-.443-2.133.107-2.242.466-4.47.866-6.679.19-1.044.42-2.108.9-3.057.3-.597.85-1.048 1.38-1.456.351-.268.79-.408 1.213-.534 1.626-.484 3.239-1.091 4.923-1.294.77-.092 1.56.158 2.288.428 1.538.57-.285 2.385-.79 2.603-3.569 1.543-9.846-.26-9.563-4.992.064-1.072.492-2.109.952-3.08.187-.393.56-.694.94-.907 1.827-1.027 3.805-1.764 5.634-2.789.151-.085.256-.316.201-.48a5.429 5.429 0 0 0-.918-1.681 17.671 17.671 0 0 0-2.4-2.443c-1.68-1.41-3.354-2.861-5.242-3.977-.548-.323-1.259-.28-1.894-.239-4.137.268-8.294 3.892-11.56 6.187"/></g><path d="M136.554 301.453s-32.46 19.714-44.867 25.99c-12.408 6.275-17.802 8.543-32.42 15.768-14.619 7.226-16.978 9.696-24.62 10.685-7.641.988-21.217 3.71-21.217 5.403 0 1.693 15.427 0 15.427 0s-16.87 3.947-16.87 5.822 1.932 2.303 1.932 2.303l16.191-2.886S12.355 368.9 11.45 370.52c-.907 1.618.539 2.372 1.517 2.372.978 0 19.26-4.05 19.26-4.05s-17.661 5.376-16.931 7.021c.73 1.645 19.353-2.971 19.353-2.971s-1.44 13.014 0 13.014 7.64-13.014 7.64-13.014l6.986-4.05s49.638-16.704 49.638-17.896c0-1.192 55.152-21.13 55.152-21.13l-17.51-28.363z" fill="#FBF6F2" fill-rule="evenodd" stroke="#1A0D7C" stroke-width="2" stroke-linejoin="round"/><path d="M253.427 256.399s42.58 18.246 42.58-12.422c0-19.76-6.093-36.885-18.279-51.376-.423-.503-.776-.909-.776-2.309 0-1.4 4.772-6.35 8.28-8.378 3.51-2.028 8.692-2.266 9.638-2.266.947 0 1.634.68 1.88.95 23.66 25.905 37.057 56.314 27.649 83.172-15.143 43.23-66.1 26.372-66.1 26.372l-4.872-33.743zM231.313 343.953s40.672 75.408 40.672 124.035c0 48.627-10.958 124.035-10.958 124.035h-65.418s3.57-37.587 14.91-95.45c11.339-57.865 5.909-68.606 5.909-68.606s-23.562 49.511-37.544 76.23c-13.982 26.717-48.45 77.358-48.45 77.358l-69.215-27.15s62.055-61.476 80.918-93.944c18.863-32.467 46.659-107.807 46.659-107.807l42.517-8.7z" fill="#FBF6F2" fill-rule="evenodd" stroke="#1A0D7C" stroke-width="2"/><path d="m255.311 247.643-43.84 20.57s.138 5.018-5.862 6.707c-6 1.688-10.708-2.867-10.708-2.867l-64.339 23.007s17.634 37.758 28.958 48.006c46.09 41.707 90.983 13.64 97.314-31.804 7.269-52.179-1.523-63.619-1.523-63.619z" fill="#6F4CFF" fill-rule="evenodd"/><g clip-path="url(#j)" fill="none" stroke="#A1D7D4" stroke-width=".913" transform="translate(130.562 247.279)"><path d="M119.837 21.179c-3.926-3-7.58-6.393-11.776-9.001C99.784 7.032 84.619 26.1 86.844 33.822c3.39 11.768 42.851-8.927 44.395 2.79 2.912 22.092-38.172 20.32-49.504 12.274-.7-.497-.744-2.347.084-2.57 6.086-1.64 39.647.415 27.241 16.674-1.547 2.028-10.432 1.839-20.44 12.814-2.038 2.235-4.106 4.648-5.098 7.504-.89 2.562-1.077 5.52-.333 8.129.512 1.793 2.057 3.48 3.821 4.09 27.061 9.356 20.77-28.54 9.827-8.977M-9.124 60.412c8.152-5.184 15.38-12.183 24.457-15.55 7.83-2.905 1.736 14.792 6.577 12.563 4.852-2.234 5.433-9.254 9.235-12.976.792-.775 2.366.084 3.259.744 2.71 2.004 4.485 5.1 7.253 7.025 1.73 1.204 6.85.272 5.958 2.167-20.218 42.934-18.944-10.707 3.392 14.735 2.046 2.33 1.54 6.072 1.382 9.153-.198 3.873-5.679 9.204-2.431 11.384 11.533 7.743 23.97-33.89 1.053-25.619-4.137 1.493-8.091 3.534-11.783 5.906a41.918 41.918 0 0 0-8.207 6.939c-3.634 3.968-5.324 9.822-9.844 12.77-1.991 1.299-5.017-.409-6.91-1.844-3.39-2.573-7.911-5.47-8.274-9.677-.222-2.561 5.826-.1 7.593 1.786l5.252 3.667c1.987 2.122 3.925 4.467 4.914 7.188.78 2.146-2.117 6.633.182 6.837 48.653 4.31-22.753-13.935 15.16-7.384 1.44.249 2.744 1.648 3.123 3.043.669 2.456-2.063 5.85-.22 7.625 1.83 1.762 5.1-.313 7.65-.47"/></g><path d="M112.365 160.91c0-31.229-25.327-56.545-56.57-56.545" fill="none" stroke="#1A0D7C" stroke-width="1.825"/><path d="M54.479 206.175c23.46 0 42.478-19.227 42.478-42.946 0-23.718-19.018-42.945-42.478-42.945S12 139.51 12 163.229c0 23.719 19.018 42.946 42.479 42.946z" fill="#82CAC7" fill-rule="evenodd"/><g clip-path="url(#k)" transform="translate(12 119.87)"><path d="M86.382 9.16S26.771 35.432 59.716-3.228M82.194 65.13S32.056 38.51 38.685 51.24c6.63 12.728 23.774 24.583 23.774 24.583S28.01 64.632 51.376 84.83c23.366 20.196 17 15.156 17 15.156" fill="none" stroke="#FFF" stroke-width=".519"/><path d="M19.07 36.26c3.919-.915 6.77-3.084 6.367-4.845-.402-1.76-3.904-2.447-7.823-1.532-3.919.915-6.77 3.084-6.367 4.844.402 1.761 3.904 2.447 7.823 1.532zM83.584 53.553c2.37 2.396 5.316 3.302 6.58 2.024 1.264-1.277.367-4.256-2.002-6.652-2.37-2.395-5.316-3.302-6.58-2.024-1.264 1.278-.367 4.256 2.002 6.652z" fill="#FFF" fill-rule="evenodd"/></g><g clip-path="url(#l)" transform="rotate(-45 329.938 -160.252)"><use xlink:href="#a" fill="none" stroke="#82CAC7" stroke-width="7.301"/></g><path d="M235.105 201.195s6.503-4.734 10.902-10.384c4.247-5.457 22.953-27.589 29.027-36.727 18.547-27.903 29.112-56.754 29.112-56.754l43.208 43.208s-29.709 11.236-57.046 29.407c-9.145 6.079-30.996 24.51-36.492 28.81-5.456 4.27-10.327 10.824-10.327 10.824l-8.384-8.384z" fill="#82CAC7" fill-rule="evenodd"/><path d="M304.146 92.17h.001q.111-.112.227-.217.117-.105.238-.205.12-.1.247-.193.126-.093.256-.18t.265-.168q.134-.08.273-.154.138-.074.28-.141.141-.067.286-.127t.293-.113q.147-.053.297-.098.15-.046.302-.084.152-.038.306-.069.154-.03.309-.053t.31-.038q.157-.016.314-.024.156-.007.313-.007t.313.007q.157.008.313.024.156.015.31.038.156.023.31.053.153.031.306.07.152.037.302.083.15.045.297.098.148.053.293.113.144.06.286.127t.28.14q.138.075.273.155.134.08.265.168.13.087.256.18.126.094.247.193.121.1.237.205.117.105.227.216l39.337 39.337q.11.11.216.227.105.116.205.237.099.121.192.247.094.126.18.256.088.13.169.265.08.134.154.273.074.138.141.28.067.141.127.286t.113.293q.053.147.098.297.046.15.084.302.038.152.068.306.031.154.054.309t.038.311q.016.156.023.313.008.156.008.313t-.008.313q-.007.157-.023.313-.015.156-.038.311t-.054.309q-.03.154-.068.306-.038.152-.084.302-.045.15-.098.297-.053.148-.113.293-.06.145-.127.286-.067.142-.14.28-.075.139-.155.273-.081.134-.168.265-.087.13-.18.256-.094.126-.193.247-.1.121-.205.238-.105.116-.216.227h-.002q-.11.112-.227.217-.116.105-.237.205-.121.1-.247.193t-.256.18q-.13.087-.265.168-.135.08-.273.154t-.28.141q-.142.067-.286.127-.145.06-.293.113-.147.053-.297.098-.15.046-.303.084-.152.038-.305.069-.154.03-.31.053-.154.023-.31.039-.156.015-.313.023-.156.007-.313.007t-.313-.007q-.157-.008-.313-.024-.156-.015-.311-.038t-.309-.053q-.154-.031-.306-.07-.152-.037-.302-.083-.15-.045-.297-.098-.148-.053-.293-.113-.145-.06-.286-.127-.142-.067-.28-.14-.139-.075-.273-.155-.135-.08-.265-.168-.13-.087-.256-.18-.126-.094-.247-.193-.121-.1-.238-.205-.116-.105-.227-.216l-39.336-39.336q-.11-.111-.216-.227-.105-.117-.205-.238-.1-.121-.193-.247t-.18-.256q-.087-.13-.168-.265-.08-.134-.154-.273-.074-.138-.141-.28-.067-.141-.127-.286t-.113-.293q-.053-.147-.098-.297-.046-.15-.084-.302-.038-.152-.069-.306-.03-.154-.053-.309t-.039-.311q-.015-.156-.023-.313-.007-.156-.007-.313t.007-.313q.008-.157.023-.313.016-.156.039-.311t.053-.309q.03-.154.069-.306.038-.152.084-.302.045-.15.098-.297.053-.148.113-.293.06-.145.127-.286.067-.142.14-.28.075-.138.155-.273.08-.134.168-.265.087-.13.18-.256.094-.126.193-.247.1-.121.205-.237.105-.117.216-.227z" fill="#A1D7D4" fill-rule="evenodd"/><path d="m228.654 199.907.002-.001q.126-.127.265-.24.139-.114.288-.214.149-.1.307-.184.158-.085.323-.153.166-.069.337-.12.172-.053.348-.088.176-.035.354-.052.178-.018.358-.018.179 0 .357.018.179.017.354.052.176.035.348.087.171.052.337.12.165.07.324.154.158.084.307.184.149.1.287.213.139.114.266.24l10.317 10.318q.127.127.24.266.114.138.214.287.1.15.184.307.085.158.153.324.069.166.12.337.053.172.088.348.035.175.052.354.018.178.018.357 0 .18-.018.358-.017.178-.052.354-.035.176-.087.347-.052.172-.12.338-.07.165-.154.323-.084.158-.184.307-.1.15-.213.288-.114.139-.24.265l-.002.002q-.127.127-.266.24-.138.114-.287.214-.15.1-.307.184-.158.084-.324.153-.166.068-.337.12-.172.052-.347.087-.176.035-.355.053-.178.017-.357.017-.18 0-.358-.017-.178-.018-.354-.053t-.347-.087q-.172-.052-.337-.12-.166-.069-.324-.153-.158-.085-.307-.185-.15-.1-.288-.213-.138-.113-.265-.24l-10.318-10.318q-.127-.127-.24-.265-.114-.139-.214-.288-.1-.149-.184-.307-.084-.158-.153-.324-.068-.165-.12-.337-.052-.171-.087-.347-.035-.176-.053-.354-.017-.179-.017-.358 0-.18.017-.357.018-.179.053-.355.035-.175.087-.347.052-.172.12-.337.069-.166.153-.324.085-.158.184-.307.1-.149.214-.288.113-.138.24-.265z" fill="#9FDEEB" fill-rule="evenodd"/><path d="M216.428 427.968s-1.446-5.138-2.16-8.637c-.712-3.499-2.502-10.624-2.502-10.624" fill="none" stroke="#1A0D7C" stroke-width="2" stroke-linecap="round"/><path d="m344.978 96.795 14.599-34.657" fill="none" stroke="#9FDEEB" stroke-width="2" stroke-linecap="round"/><path d="m364.139 131.682 20.985 3.187" fill="none" stroke="#1A0D7C" stroke-width="2" stroke-linecap="round"/><path d="M368.7 106.827c7.95-4.374 16.424-10.032 23.249-13.68" fill="none" stroke="#F6DFD2" stroke-width="2" stroke-linecap="round"/><path d="m355.015 16.934 19.452-1.434M157.934 81.29l3.65-19.152" fill="none" stroke="#82CAC7" stroke-width="2" stroke-linecap="round"/><path d="m182.227 123.789-12.431 4.015" fill="none" stroke="#F6DFD2" stroke-width="2" stroke-linecap="round"/><path d="m429.978 176.733 19.16 3.648" fill="none" stroke="#9FDEEB" stroke-width="2" stroke-linecap="round"/><path d="M451.387 129.68c3.527 0 6.387-3.062 6.387-6.84s-2.86-6.84-6.387-6.84c-3.527 0-6.387 3.062-6.387 6.84s2.86 6.84 6.387 6.84z" fill="#9FDEEB" fill-rule="evenodd"/><path d="M378.281 213.534a3.193 3.193 0 1 0 .001-6.386 3.193 3.193 0 0 0-.001 6.386z" fill="#F6DFD2" fill-rule="evenodd"/><path d="M213.591 99.53c2.016 0 3.65-1.428 3.65-3.191s-1.634-3.192-3.65-3.192c-2.015 0-3.65 1.429-3.65 3.192 0 1.763 1.635 3.192 3.65 3.192z" fill="#1A0D7C" fill-rule="evenodd"/><g><path d="M415.452 273.95c-5.25 8.228-2.952 19.23 5.133 24.573 8.084 5.344 18.895 3.005 24.145-5.223s2.953-19.23-5.132-24.574c-8.085-5.344-18.895-3.005-24.146 5.223z" fill="#1A0D7C" fill-rule="evenodd"/><g clip-path="url(#m)" transform="translate(405 259)"><path d="M34.583 42.768s4.31-26.327 10.192-6.41M9.03 33.79s20.304-11.312 14.467-11.863c-5.838-.552-13.723 2.705-13.723 2.705s11.52-9.352-.609-5.812C-2.965 22.36.182 21.293.182 21.293" fill="none" stroke="#FFF" stroke-width=".519"/><path d="M33.274 17.761c-.414 1.133.183 2.394 1.333 2.816 1.15.422 2.418-.153 2.833-1.286.414-1.133-.183-2.394-1.333-2.816-1.15-.422-2.419.154-2.833 1.286zM12.684 36.843c-1.349.282-2.317 1.092-2.161 1.81.155.72 1.375 1.073 2.724.792 1.349-.282 2.317-1.093 2.161-1.812-.155-.718-1.375-1.072-2.724-.79z" fill="#FFF" fill-rule="evenodd"/></g></g><path d="M293.747 181.925c1.27 1.356 5.231 7.345 3.55 7.745-1.68.4-5.51-5.202-5.51-5.202.863.894 5.512 9.202 4.689 9.49-1.507.529-9.481-7.45-8.666-7.15 1.842.681 7.651 11.372 5.31 11.863-.84.176-8.167-10.557-7.945-10.41.396.264 6.798 9.7 3.476 11.357-2.246 1.12-5.504-5.728-6.61-9.447" fill="#F6DFD2" fill-rule="evenodd" stroke="#1A0D7C" stroke-width="2"/></svg>