<svg width="511" height="458" xmlns:xlink="http://www.w3.org/1999/xlink" xmlns="http://www.w3.org/2000/svg"><defs><clipPath id="o"><use xlink:href="#g"/></clipPath><clipPath id="i"><use xlink:href="#a"/></clipPath><clipPath id="j"><use xlink:href="#b"/></clipPath><clipPath id="k"><use xlink:href="#c"/></clipPath><clipPath id="l"><use xlink:href="#d"/></clipPath><clipPath id="m"><use xlink:href="#e"/></clipPath><clipPath id="n"><use xlink:href="#f"/></clipPath><path d="m21.992 62.438-5.237.001C7.5 62.441-.002 54.99 0 45.795c.002-9.193 7.506-16.647 16.761-16.649h5.237L22 8.336c.001-4.596 3.753-8.324 8.38-8.324L53.185.009c1.156 0 1.55.768 1.02 1.796a16.492 16.492 0 0 0-1.829 7.568c-.001 9.193 7.5 16.645 16.756 16.643 9.255-.001 16.76-7.455 16.76-16.649.001-2.725-.657-5.297-1.826-7.567C83.537.772 83.93.004 85.088.004L106.84 0c4.628 0 8.379 3.725 8.378 8.322l-.013 74.909c0 4.597-3.752 8.324-8.38 8.325l-20.072.003c-1.157 0-1.726-.866-1.429-1.984.361-1.359.554-2.786.554-4.258.002-9.194-7.5-16.646-16.755-16.644-9.255.001-16.76 7.456-16.761 16.65 0 1.471.192 2.898.553 4.257.296 1.118-.273 1.985-1.43 1.985l-21.12.003c-4.627.001-8.378-3.725-8.377-8.322l.003-20.808z" transform="rotate(-2 148.64 -1735.3)" id="a"/><path d="M27.494 55.292c15.184 0 27.493-12.377 27.493-27.646C54.987 12.378 42.678 0 27.494 0 12.309 0 0 12.378 0 27.646c0 15.269 12.31 27.646 27.494 27.646z" transform="translate(0 .267)" id="g"/><path d="m21.992 62.438-5.237.001C7.5 62.441-.002 54.99 0 45.795c.002-9.193 7.506-16.647 16.761-16.649h5.237L22 8.336c.001-4.596 3.753-8.324 8.38-8.324L53.185.009c1.156 0 1.55.768 1.02 1.796a16.492 16.492 0 0 0-1.829 7.568c-.001 9.193 7.5 16.645 16.756 16.643 9.255-.001 16.76-7.455 16.76-16.649.001-2.725-.657-5.297-1.826-7.567C83.537.772 83.93.004 85.088.004L106.84 0c4.628 0 8.379 3.725 8.378 8.322l-.013 74.909c0 4.597-3.752 8.324-8.38 8.325l-20.072.003c-1.157 0-1.726-.866-1.429-1.984.361-1.359.554-2.786.554-4.258.002-9.194-7.5-16.646-16.755-16.644-9.255.001-16.76 7.456-16.761 16.65 0 1.471.192 2.898.553 4.257.296 1.118-.273 1.985-1.43 1.985l-21.12.003c-4.627.001-8.378-3.725-8.377-8.322l.003-20.808z" transform="rotate(-2 148.64 -1734.253)" id="b"/><path d="M100.549 50.514C100.549 22.616 78.04 0 50.274 0 22.51 0 0 22.616 0 50.514c0 27.898 22.509 50.513 50.274 50.513V76.781c-14.438 0-26.142-11.76-26.142-26.267s11.704-26.267 26.142-26.267c14.439 0 26.143 11.76 26.143 26.267h24.132z" transform="rotate(124 54.766 66.07)" id="c"/><path d="M64.938 32.623C64.938 14.606 50.4 0 32.468 0 14.538 0 0 14.606 0 32.623c0 18.018 14.537 32.624 32.469 32.624v-15.66c-9.325 0-16.884-7.595-16.884-16.964s7.56-16.964 16.884-16.964c9.325 0 16.884 7.595 16.884 16.964h15.585z" id="d"/><path d="m22.013 63.178-5.25.012C7.482 63.212-.023 55.711 0 46.436c.022-9.275 7.562-16.812 16.842-16.834l5.25-.012.05-20.992C22.153 3.96 25.923.192 30.563.18L53.43.127c1.157-.003 1.552.764 1.023 1.793a16.77 16.77 0 0 0-1.86 7.656c-.021 9.274 7.484 16.776 16.763 16.754 9.28-.022 16.82-7.559 16.842-16.834.007-2.753-.65-5.35-1.82-7.64C83.854.827 84.25.055 85.407.053L107.223 0a8.35 8.35 0 0 1 8.381 8.377l-.178 75.572c-.011 4.638-3.781 8.406-8.421 8.417l-76.66.181a8.351 8.351 0 0 1-8.381-8.377l.05-20.992z" transform="rotate(-48 97.247 42.305)" id="e"/><path d="M113.436 0 87.78 5.542v5.33s-8.841-.716-27.321 10.644c-18.48 11.36-27.674 15.48-27.674 15.48L16.323 2.208 0 12.058s15.669 42.6 28.404 48.655S70.797 45.72 70.797 45.72v63.526l70.69-1.351V76.681l10.928 39.891 20.85-6.12s-19.7-72.106-30.723-86.797c-11.023-14.69-25.861-14.69-25.861-14.69L113.436 0z" transform="translate(.6)" id="f"/><linearGradient x1=".566" y1="1" x2=".339" y2=".055" id="h"><stop offset="0" stop-color="#F4F5F9" stop-opacity=".631"/><stop offset="1" stop-color="#E6E8F0"/><stop offset="1" stop-color="#E6E8F0"/></linearGradient></defs><path d="M173.157 3.437c46.347-21.647 70.239 67.493 133.427 30.718C369.772-2.62 469.919 199.12 356.657 185.393c-113.261-13.727-100.093 143.091-165.216 95.187-65.123-47.903-176.308 80.126-189.998-10.744-13.69-90.871 75.6-7.269 32.73-105.13-42.868-97.86 31.942-40.333 57.156-63.133 25.213-22.8 35.482-76.488 81.828-98.136z" transform="translate(34.914 110.645)" fill="url(#h)" fill-opacity=".665" fill-rule="evenodd"/><g transform="translate(100.36 91.461)"><use fill="#FFF" xlink:href="#a" fill-rule="evenodd"/><g clip-path="url(#i)"><use xlink:href="#a" fill="none" stroke="#82CAC7" stroke-width="6.284"/></g></g><path d="M133.72 289.548 100.36 443.64l55.078 11.03s-2.471-13.61-16.36-17.47c-.694-.192 21.615-104.999 21.615-104.999l27.599 115.539 58.813-15.77s-6.88-12.553-24.843-8.968c-1.682 1.647-37.748-139.246-37.748-139.246l-50.795 5.79z" fill="#1A0D7C" fill-rule="evenodd"/><path d="M184.945 193.31s.728-16.609 3.125-15.69c2.398.917 2.831 11.154 2.831 11.154s3.983-18.972 6.3-18.478c2.316.495-1.276 13.45-1.276 13.45s5.572-14.162 8.777-12.864c3.206 1.298-4.486 14.229-4.486 14.229s7.031-11.363 9.309-9.927c2.277 1.436-4.203 11.027-4.203 11.027s5.188-7.396 6.39-4.714c1.202 2.68-12.004 16.555-12.004 16.555l-14.763-4.742z" fill="#F6DFD2" fill-rule="evenodd" stroke="#1A0D7C" stroke-width="1.047" stroke-linejoin="round"/><g transform="translate(100.36 91.461)"><use fill="#FFF" xlink:href="#b" fill-rule="evenodd"/><g clip-path="url(#j)"><use xlink:href="#b" fill="none" stroke="#6F4CFF" stroke-width="8"/></g></g><path d="M184.945 193.31c.485-11.072 1.527-16.303 3.125-15.69 1.599.611 2.543 4.33 2.831 11.154.147-.7.292-1.38.436-2.039M232.792 183.8s5.954-19.353 4.139-19.953c-1.815-.599-4.791 8.599-4.791 8.599s3.132-12.994.652-14.166c-2.48-1.173-5.167 13.55-5.167 13.55s1.926-16.49-1.048-17.118c-2.974-.629-3.174 17.734-3.174 17.734s-1.82-16.133-3.918-14.713c-2.099 1.42 0 18.053 0 18.053s-2.55-10.434-5.455-7.94c-2.905 2.495 4.27 15.954 4.27 15.954h14.492z" fill="#F6DFD2" fill-rule="evenodd" stroke="#1A0D7C" stroke-width="1.047" stroke-linejoin="round"/><path d="m176.826 203.824 17.151 9.087 9.37-14.842-20.756-6.189-5.765 11.944z" fill="#FFF" fill-rule="evenodd" stroke="#1A0D7C" stroke-width="1.047"/><path d="M152.714 159.78s8.694 9.772 7.836 20.498c-.859 10.725-14.54 7.559-14.54 7.559l-5.924-13.61 12.628-14.448z" fill="#F6DFD2" fill-rule="evenodd"/><path d="M154.598 174.016c.72-.063 1.233-.937 1.145-1.95-.089-1.015-.744-1.785-1.464-1.722-.72.063-1.233.937-1.145 1.95.088 1.015.744 1.785 1.464 1.722z" fill="#0E101A" fill-rule="evenodd"/><path d="m158.603 172.741 2.34 3.118" fill="none" stroke="#0E101A" stroke-width="1.047" stroke-linecap="round"/><path d="M151.562 188.373s.672 4.792 1.567 8.9c0 .37-6.468 0-6.468 0l-.504-10.098 5.405 1.198z" fill="#F6DFD2" fill-rule="evenodd"/><path d="M148.177 197.458s11.285-5.56 35.15 8.26c23.865 13.821 23.81 14.322 23.81 14.322l8.162-37.408h20.839s-7.008 56.012-21.816 58.67c-14.808 2.656-29.377-3.343-29.377-3.343l8.77 49.662-68.04 8.19V251.42s-5.698-10.954-6.357-17.944c-.658-6.99 2.914-22.392 2.914-22.392s13.938 6.173 19.941 0c6.004-6.173 6.004-13.626 6.004-13.626z" fill="#FFF" fill-rule="evenodd" stroke="#1A0D7C"/><path d="m125.675 251.42 1.257-20.604M184.945 237.96s-5.663-3.332-11.158-7.793" fill="none" stroke="#1A0D7C"/><path d="M153.613 157.223c7.009 4.44-8.376 16.583-8.376 16.583s7.93 25.416 0 36.462c-9.223 12.848-51.515 0-24.976-40.008 10.255-15.46 26.344-17.477 33.352-13.037z" fill="#0E101A" fill-rule="evenodd"/><g><path d="M319.283 351.535c23.128 15.6 54.464 9.586 69.99-13.433 15.527-23.019 9.364-54.326-13.764-69.926-23.129-15.6-54.464-9.586-69.99 13.433l20.1 13.558c8.074-11.97 24.369-15.097 36.396-6.985 12.026 8.112 15.231 24.392 7.157 36.362-8.073 11.97-24.368 15.097-36.395 6.985l-13.494 20.006z" fill="#F6DFD2"/><g clip-path="url(#k)" fill="none" stroke="#FFF" stroke-width="1.047" transform="translate(277.221 238.81)"><path d="M36.404 57.038c12.7-6.313 21.137-7.04 28.557 3.173.278.383-1.254.17-1.705-.066-1.004-.525-1.807-1.291-2.469-2.118-.5-.626-.752-1.405-.963-2.174-.242-.881-.545-1.787-.39-2.749.48-2.97 1.345-5.956 2.274-8.924.439-1.404.944-2.838 1.819-4.155.55-.83 1.464-1.502 2.343-2.113.581-.404 1.28-.649 1.954-.874 2.588-.867 5.172-1.894 7.81-2.396 1.209-.23 2.399-.011 3.489.242 2.303.536-.774 3.183-1.587 3.542-5.747 2.534-15.227 1.038-14.129-5.238.249-1.422 1.056-2.848 1.905-4.193.344-.544.965-.993 1.583-1.328 2.974-1.61 6.144-2.86 9.12-4.466.247-.133.442-.452.38-.661a5.317 5.317 0 0 0-1.189-2.087 19.088 19.088 0 0 0-3.38-2.883c-2.407-1.624-4.8-3.3-7.572-4.506-.803-.35-1.911-.193-2.902-.05-6.45.935-13.398 6.294-18.78 9.778M54.94 126.152c12.66-6.4 21.455-6.355 30.396 7.137.336.507-1.3.07-1.8-.272-1.115-.764-2.045-1.804-2.833-2.903-.596-.832-.947-1.826-1.255-2.802-.353-1.12-.772-2.277-.716-3.451.174-3.628.753-7.232 1.4-10.807.306-1.69.678-3.412 1.452-4.947.487-.966 1.374-1.697 2.23-2.355.567-.436 1.275-.66 1.958-.865 2.627-.784 5.232-1.766 7.952-2.094 1.246-.15 2.521.256 3.696.693 2.484.922-.46 3.858-1.276 4.211-5.764 2.497-15.904-.42-15.446-8.077.104-1.735.794-3.412 1.538-4.983.302-.637.905-1.124 1.518-1.469 2.95-1.662 6.146-2.855 9.1-4.512.244-.137.413-.511.325-.777a8.79 8.79 0 0 0-1.483-2.72 28.564 28.564 0 0 0-3.877-3.953c-2.713-2.283-5.417-4.63-8.467-6.435-.884-.523-2.032-.453-3.058-.387-6.683.434-13.397 6.297-18.673 10.011"/></g></g><g><path d="M497.116 172.364c4.663-17.404-5.598-35.275-22.92-39.916-17.32-4.64-35.142 5.705-39.805 23.109-4.664 17.403 5.598 35.274 22.919 39.915l4.052-15.126c-9.006-2.413-14.342-11.706-11.917-20.756 2.425-9.05 11.692-14.43 20.699-12.016 9.007 2.413 14.343 11.706 11.918 20.756l15.054 4.034z" fill="#1A0D7C"/><g clip-path="url(#l)" fill="none" stroke="#FFF" stroke-width="1.047" transform="rotate(15 -249.69 1743.852)"><path d="M-13.91 56.737c8.92-4.509 15.116-4.478 21.416 5.029.236.357-.916.05-1.27-.193-.785-.538-1.44-1.27-1.995-2.045-.42-.585-.667-1.286-.884-1.974-.249-.789-.544-1.604-.504-2.431.122-2.556.53-5.096.986-7.614.216-1.191.478-2.404 1.023-3.485.343-.68.968-1.196 1.572-1.66.399-.307.898-.465 1.379-.609 1.85-.552 3.686-1.244 5.602-1.475.878-.106 1.777.18 2.605.488 1.75.65-.325 2.718-.9 2.967-4.06 1.759-11.205-.297-10.882-5.691.073-1.222.56-2.404 1.084-3.511.212-.448.637-.791 1.069-1.034 2.078-1.171 4.33-2.012 6.41-3.18.173-.096.292-.36.23-.547a6.194 6.194 0 0 0-1.045-1.917 20.12 20.12 0 0 0-2.731-2.785c-1.911-1.608-3.817-3.261-5.966-4.533-.622-.369-1.431-.32-2.154-.273-4.708.306-9.439 4.437-13.156 7.053M35.878 25.208c8.92-4.509 15.116-4.478 21.415 5.029.237.357-.916.05-1.268-.193-.786-.538-1.44-1.27-1.996-2.045-.42-.585-.667-1.286-.884-1.974-.249-.789-.544-1.604-.504-2.431.122-2.556.53-5.096.986-7.614.215-1.191.477-2.404 1.023-3.485.343-.68.968-1.196 1.571-1.66.4-.307.898-.465 1.38-.609 1.85-.552 3.686-1.245 5.602-1.475.878-.106 1.777.18 2.604.488 1.75.65-.324 2.718-.899 2.967-4.06 1.759-11.205-.297-10.882-5.691.073-1.222.56-2.404 1.083-3.511.213-.448.638-.791 1.07-1.035 2.078-1.17 4.33-2.011 6.41-3.179.173-.096.292-.36.23-.547a6.194 6.194 0 0 0-1.045-1.917 20.12 20.12 0 0 0-2.731-2.785c-1.911-1.608-3.817-3.261-5.966-4.533-.622-.369-1.431-.32-2.154-.273-4.709.306-9.44 4.437-13.156 7.053"/></g></g><g><path d="m294.133 113.626-3.504 3.91c-6.193 6.911-16.79 7.47-23.667 1.247-6.878-6.223-7.434-16.87-1.24-23.78l3.503-3.91-15.567-14.084c-3.439-3.11-3.716-8.434-.62-11.89L268.3 48.09c.772-.86 1.607-.641 2.017.44a16.77 16.77 0 0 0 4.445 6.505c6.878 6.222 17.474 5.664 23.667-1.247 6.193-6.91 5.638-17.557-1.24-23.78a16.663 16.663 0 0 0-6.895-3.76c-1.117-.298-1.426-1.11-.654-1.97l14.56-16.248a8.35 8.35 0 0 1 11.833-.623l56.042 50.7c3.44 3.111 3.717 8.434.62 11.89l-51.16 57.09a8.351 8.351 0 0 1-11.834.624l-15.567-14.084z" fill="#82CAC7" fill-rule="evenodd"/><g clip-path="url(#m)" transform="translate(231.716 1.445)"><path d="M-31.668 43.616C7.47 18.882 10.53 11.724 53.409 19.728c7.496 1.4 21.7.369 24.492 5.783 2.79 5.414.42 14.588-4.401 16.152C52.24 48.562 22.924 55.535.316 51.246c-.631-.12-1.334-1.172-.942-1.68 8.177-10.616 65.342-5.696 70.934 7.389 1.649 3.86-2.84 6.139-5.3 7.034-8.143 2.965-16.786 4.516-24.783 7.856-1.851.773 7.06-1.735 6.02-.02C44.592 74.55 29.042 82.025 32.14 90.36c.561 1.509 1.397 3.213 2.855 3.895 6.615 3.096 31.796 5.32 63.474-.84 31.677-6.16 12.126-35.718 27.854-62.462 3.283-5.582 31.969 1.586 36.158 2.431" fill="none" stroke="#FFF"/></g></g><g><path d="M385.426 112.656s-.212 1.89-.212 4.013c0 2.121 1.048 5.526 1.515 7.483 1.068 4.484 1.343 9.391 5.189 11.54 3.846 2.15 8.704 1.846 8.704 1.846l-1.717 6.285h21.831l-2.754-12.196-16.636-22.249-10.99-2.329-4.93 5.607z" fill="#F6DFD2" fill-rule="evenodd"/><path d="M384.73 113.914c0 .817 2.838 1.135 2.838 0 0-.603.644.973 2.038 4.403.662 1.628 3.79 2.115 3.79 2.115s-.577-7.475 4.722-4.497c5.299 2.978 1.026 8.962 1.026 8.962l10.888 9.065 8.039-2.004s-1.315-32.741-17.622-30.766c-16.306 1.975-15.718 11.906-15.718 12.722zM388.976 122.23c.561-.14.846-.94.636-1.786-.21-.846-.835-1.417-1.396-1.277-.562.14-.846.94-.636 1.787.21.845.835 1.417 1.396 1.277z" fill="#0E101A" fill-rule="evenodd"/><path d="M477.032 244.615s11.067 23.963 9.239 25.518c-1.828 1.555-6.017-8.256-6.017-8.256s4.685 14.686 1.866 15.494c-2.819.808-5.794-13.122-5.794-13.122s3.753 16.364.706 16.645c-2.953 0-5.06-16.645-5.06-16.645s1.906 15.875-1.244 15.206c-3.15-.67-3.546-21.527-3.546-21.527s-1.73 10.671-5.18 9.563c-2.033-.7 0-19.091 0-19.091l15.03-3.785z" fill="#F6DFD2" fill-rule="evenodd" stroke="#1A0D7C"/><path d="M466.841 258.311s4.567-.798 6.272-4.07" fill="#FFF" fill-rule="evenodd" stroke="#1A0D7C"/><path d="M322.86 139.076s-2.797-19.12-5.245-18.157c-2.449.963-1.689 9.37-1.689 9.37s-2.695-12.404-5.54-12.404c-2.844 0-7.794 8.222-7.346 13.673.448 5.45 6.91 14.446 6.91 14.446l12.91-6.928z" fill="#F6DFD2" fill-rule="evenodd" stroke="#1A0D7C"/><path d="M420.736 134.858 395.08 140.4v5.33s-8.841-.716-27.321 10.644c-18.48 11.36-27.674 15.48-27.674 15.48l-16.462-34.788-16.323 9.85s15.669 42.6 28.404 48.655 42.393-14.993 42.393-14.993v63.526l70.69-1.351v-31.214l10.928 39.891 20.85-6.12s-19.7-72.106-30.723-86.797c-11.023-14.69-25.861-14.69-25.861-14.69l-3.245-8.965z" fill="#FBFBFD" fill-rule="evenodd"/><g clip-path="url(#n)" transform="translate(306.7 134.858)"><g fill="none" stroke="#82CAC7" stroke-width="1.047"><path d="M76.813 12.199h56.58M51.704 26.611h97.26M11.624 41.587H158.12M21.847 57.234h146.348M68.977 72.652h99.218M68.977 87.779h102.35M68.977 102.993h112.13M7.855 7.067v27.471M20.198 7.067v48.567M32.975 33.413v32.733M44.236 28.853v35.879M55.983 22.717V59.43M67.932 15.586v36.132M80.162 11.146v98.611M92.445 3.492V113.34M104.687 1.338v110.533M116 1.338v110.533M128.291 8.965v100.793M140.732 18.136v92.316M152.562 39.693V118.4M165.366 77.837v37.357M29.648 26.611H4.02M22.58 11.146H-1.174"/></g></g><path d="M446.119 242.892s6.84 37.728 10 84.63c3.16 46.902 2.07 94.492 2.07 94.492h-54.026s5.739-13.862 19.704-14.482c13.966-.619 16.254-.96 16.254-.96v-2.697l-14.508-1.053-8.805-112.433-26.711 116.182v15.443h-54.984s2.503-11.96 16.562-13.38c14.059-1.42 20.448-2.063 20.448-2.063v-2.696l-10.692-1.549s3.624-47.772 9.128-85.911c5.505-38.14 13.18-73.523 13.18-73.523h62.38z" fill="#1A0D7C" fill-rule="evenodd"/><path d="M387.2 124.218c-.3 1.63-.6 3.771-.6 3.771" fill="none" stroke="#0E101A" stroke-width="1.047" stroke-linecap="round" stroke-linejoin="round"/></g><g><path d="M65.461 361.816c0-20.068-16.178-36.335-36.134-36.335" fill="none" stroke="#1A0D7C" stroke-width="2.095"/><path d="M28.541 390.518c15.185 0 27.494-12.378 27.494-27.646 0-15.27-12.31-27.647-27.494-27.647S1.047 347.603 1.047 362.872c0 15.268 12.31 27.646 27.494 27.646z" fill="#9FDEEB" fill-rule="evenodd"/><g clip-path="url(#o)" transform="translate(1.047 334.959)"><path d="M55.91 5.896S17.327 22.81 38.65-2.078M53.199 41.928s-32.451-17.137-28.16-8.943c4.29 8.194 15.387 15.826 15.387 15.826s-22.297-7.204-7.174 5.797c15.124 13.001 11.003 9.757 11.003 9.757" fill="none" stroke="#FFF" stroke-width=".524"/><path d="M12.343 23.342c2.536-.589 4.381-1.985 4.121-3.119-.26-1.133-2.527-1.575-5.064-.986-2.536.589-4.381 1.985-4.12 3.119.26 1.133 2.527 1.575 5.063.986zM54.099 34.474c1.534 1.543 3.44 2.126 4.258 1.304.819-.823.238-2.74-1.296-4.282-1.533-1.543-3.44-2.126-4.258-1.304-.818.823-.238 2.74 1.296 4.282z" fill="#FFF" fill-rule="evenodd"/></g></g><g fill="#9FDEEB"><path d="m71.066 197.175 20.408-18.788-2.156-1.006-20.38 18.802 2.128.992zm-12.27-19.214 9.158 11.584.966-2.072-6.891-8.53.026-.055 11.235-.787.973-2.086-15.084 1.126-.382.82zM58.553 224.19l-14.76.43.967-2.071 10.978-.163.039-.083-6.647-9.126.973-2.086 8.833 12.278-.383.82z"/></g><g fill="#1A0D7C"><path d="M275.293 236.094q-4.705-.225-4.54-4.917l.16-4.6q.108-3.097-2.279-3.334l.062-1.779q2.398-.07 2.508-3.228l.156-4.478q.166-4.753 4.876-4.65l-.069 1.963q-2.44-.024-2.544 2.95l-.157 4.493q-.112 3.22-2.438 3.876l-.002.061q2.276.77 2.163 4.006l-.155 4.431q-.06 1.702.46 2.45.519.747 1.867.825l-.068 1.931z"/></g><path d="M303.012 121.585s4.228 3.914 6.616 6.06c1.537 1.38 3.323 2.12 5.36 2.217.073.003.303 0 .303 0s-.091-1.141-.072-2.855c.018-1.714.159-5.095.159-5.095l.382-6.503-9.529-1.176-3.22 7.352z" fill="#82CAC7" fill-rule="evenodd"/><path d="M497.698 377.591c6.074 0 10.998-4.947 10.998-11.05 0-6.103-4.924-11.05-10.998-11.05-6.074 0-10.997 4.947-10.997 11.05 0 6.103 4.923 11.05 10.997 11.05z" fill="#6F4CFF" fill-rule="evenodd"/></svg>