<svg width="673" height="445" xmlns="http://www.w3.org/2000/svg"><path d="M197.159 325.572h289" fill="#E9E9E9" fill-rule="evenodd"/><path d="M209.659 70.072h285v165h-285v-165z" fill="#FBF6F2" fill-rule="evenodd"/><path d="M209.659 243.072h150v149h-150v-149z" fill="#FCF9FF" fill-rule="evenodd"/><path d="M38.659 177.072h163v105h-163v-105z" fill="#9FDEEB" fill-opacity=".75" fill-rule="evenodd"/><path d="M502.659 2.072h167v136h-167v-136z" fill="#FFF0E4" fill-opacity=".3" fill-rule="evenodd"/><path d="M502.659 442.072c92.231 0 167-67.157 167-150 0-82.842-74.769-150-167-150" fill="#EDF4F4" fill-opacity=".75" fill-rule="evenodd"/><path d="M291.4 155.674h1.282V143.83H291.4v4.953h-.032q-.75-1.297-2.398-1.297-1.664 0-2.664 1.196-1 1.195-1 3.18 0 1.85.902 2.925.903 1.074 2.41 1.074 1.86 0 2.75-1.547h.032v1.36zm105.009 0h-1.281V143.83h1.28v11.844zm2.664-10.266q.242.235.586.235.352 0 .598-.243.246-.242.246-.586 0-.359-.246-.597t-.598-.238q-.344 0-.586.238t-.242.597q0 .36.242.594zm24.672 0q.242.235.586.235.35 0 .598-.243.246-.242.246-.586 0-.359-.246-.597-.247-.238-.598-.238-.344 0-.586.238t-.242.597q0 .36.242.594zM263.44 155.674v-4.235h1.476q1.868 0 2.965-1.015 1.098-1.016 1.098-2.61 0-1.593-.988-2.468-.989-.875-2.786-.875h-3.078v11.203h1.313zm51.992-.078q-.453.25-1.195.25-2.102 0-2.102-2.344v-4.734h-1.375v-1.094h1.375v-1.953l1.281-.414v2.367h2.016v1.094h-2.016v4.507q0 .805.274 1.149.273.344.906.344.484 0 .836-.266v1.094zm59.594.25q.742 0 1.196-.25v-1.094q-.352.266-.836.266-.633 0-.907-.344-.273-.344-.273-1.149v-4.507h2.016v-1.094h-2.016v-2.367l-1.281.414v1.953h-1.375v1.094h1.375v4.734q0 2.344 2.1 2.344zm46.938-.25q-.453.25-1.196.25-2.101 0-2.101-2.344v-4.734h-1.375v-1.094h1.375v-1.953l1.28-.414v2.367h2.017v1.094h-2.016v4.507q0 .805.274 1.149.273.344.906.344.484 0 .836-.266v1.094zm-158.524-5.344v-4.594h1.539q2.625 0 2.625 2.219 0 1.133-.715 1.754t-2.074.621h-1.375zm16.383 5.61q-1.774 0-2.832-1.122-1.06-1.12-1.06-2.972 0-2.016 1.103-3.149 1.101-1.133 2.976-1.133 1.79 0 2.793 1.102 1.004 1.101 1.004 3.055 0 1.914-1.082 3.066t-2.902 1.152zm27.773 0q1.266 0 2.188-.555v-1.22q-.922.696-1.97.696-1.241 0-1.98-.812-.738-.813-.738-2.219 0-1.43.785-2.309.785-.879 2.012-.879 1.016 0 1.906.625v-1.312q-.805-.39-1.86-.39-1.89 0-3.023 1.199-1.132 1.199-1.132 3.175 0 1.774 1.05 2.887 1.051 1.113 2.762 1.113zm17.195 0q1.266 0 2.188-.555v-1.22q-.922.696-1.969.696-1.242 0-1.98-.812-.739-.813-.739-2.219 0-1.43.786-2.309.785-.879 2.011-.879 1.016 0 1.906.625v-1.312q-.804-.39-1.859-.39-1.89 0-3.023 1.199-1.133 1.199-1.133 3.175 0 1.774 1.05 2.887 1.051 1.113 2.762 1.113zm7.47 0q-1.774 0-2.833-1.122-1.059-1.12-1.059-2.972 0-2.016 1.102-3.149t2.977-1.133q1.789 0 2.793 1.102 1.003 1.101 1.003 3.055 0 1.914-1.082 3.066t-2.902 1.152zm11.39-.188h1.28v-4.89q0-1.602-.694-2.45-.696-.848-2.008-.848-1.719 0-2.625 1.516h-.031v-1.328h-1.282v8h1.282v-4.563q0-1.101.629-1.824.628-.723 1.59-.723 1.859 0 1.859 2.547v4.563zm9.148-.367q-.922.554-2.187.554-1.711 0-2.762-1.113-1.05-1.113-1.05-2.887 0-1.976 1.132-3.175 1.133-1.2 3.023-1.2 1.055 0 1.86.391v1.312q-.89-.625-1.906-.625-1.227 0-2.012.88-.785.878-.785 2.308 0 1.406.738 2.219.738.812 1.98.812 1.047 0 1.97-.695v1.219zm2.719-3.313h5.649v-.672q0-1.804-.86-2.82-.86-1.016-2.43-1.016-1.57 0-2.629 1.176-1.058 1.176-1.058 3.043 0 1.977.969 3.066.968 1.09 2.664 1.09 1.734 0 2.789-.765v-1.203q-1.133.89-2.485.89-1.203 0-1.89-.726-.688-.727-.72-2.063zm8.899 2.524h-.031v4.836h-1.282v-11.68h1.282v1.406h.03q.946-1.594 2.766-1.594 1.547 0 2.415 1.075.867 1.074.867 2.878 0 2.008-.977 3.215-.976 1.207-2.672 1.207-1.554 0-2.398-1.343zm27.015 1.156h1.282v-5.203q0-2.985-2.821-2.985-1.54 0-2.718.75v1.313q1.164-.985 2.609-.985 1.648 0 1.648 2.04l-2.398.335q-2.641.368-2.641 2.61 0 1.047.676 1.68.676.632 1.87.632 1.626 0 2.462-1.437h.03v1.25zm23.125 0h1.282v-5.203q0-2.985-2.821-2.985-1.54 0-2.718.75v1.313q1.164-.985 2.609-.985 1.648 0 1.648 2.04l-2.398.335q-2.641.368-2.641 2.61 0 1.047.676 1.68.676.632 1.87.632 1.626 0 2.462-1.437h.03v1.25zm16.336.187q-1.773 0-2.832-1.12-1.058-1.122-1.058-2.973 0-2.016 1.1-3.149 1.103-1.133 2.978-1.133 1.789 0 2.793 1.102 1.004 1.101 1.004 3.055 0 1.914-1.082 3.066t-2.903 1.152zm11.39-.187h1.282v-4.89q0-1.602-.695-2.45-.695-.848-2.008-.848-1.72 0-2.625 1.516h-.031v-1.328h-1.281v8h1.28v-4.563q0-1.101.63-1.824.629-.723 1.59-.723 1.859 0 1.859 2.547v4.563zm-168.164-6.961q.633 0 .97.258v-1.328q-.266-.11-.766-.11-.696 0-1.258.473-.563.473-.836 1.316h-.031v-1.648h-1.282v8h1.282v-4.078q0-1.336.55-2.11.551-.773 1.371-.773zm27.625 6.96h-1.28v-1.265h-.032q-.797 1.453-2.469 1.453-2.86 0-2.86-3.406v-4.781h1.274v4.578q0 2.531 1.938 2.531.937 0 1.543-.691.605-.692.605-1.809v-4.61h1.281v8zm82.657 0h-1.281v-1.265h-.031q-.797 1.453-2.47 1.453-2.858 0-2.858-3.406v-4.781h1.273v4.578q0 2.531 1.938 2.531.937 0 1.542-.691.606-.692.606-1.809v-4.61h1.28v8zm14.602 0h1.28v-8h-1.28v8zm9.453-7.632-4.734 6.54h4.687v1.093h-6.57v-.399l4.734-6.507h-4.29v-1.094h6.173v.367zm15.219 7.633h1.28v-8h-1.28v8zm-143.759-7.11q-1.234 0-1.953.84-.719.84-.719 2.317 0 1.422.727 2.242.727.82 1.945.82 1.243 0 1.91-.804.668-.805.668-2.29 0-1.5-.667-2.312-.668-.813-1.91-.813zm11.485 2.313v1.18q0 1.18-.668 1.953-.668.773-1.739.773-1.085 0-1.73-.8-.645-.801-.645-2.184 0-1.516.672-2.375.672-.86 1.844-.86.984 0 1.625.672.64.672.64 1.641zm40.953-2.313q-1.235 0-1.953.84-.72.84-.72 2.317 0 1.422.728 2.242.726.82 1.945.82 1.242 0 1.91-.804.668-.805.668-2.29 0-1.5-.668-2.312-.668-.813-1.91-.813zm26.965.618q.527.617.535 1.726h-4.32q.148-1.047.78-1.695.634-.649 1.54-.649.937 0 1.465.618zm5.067 2.11v1.116q0 .992.644 1.684.645.691 1.637.691 1.164 0 1.824-.89.66-.891.66-2.477 0-1.336-.617-2.094-.617-.758-1.672-.758-1.117 0-1.797.778-.68.777-.68 1.95zm66.6-2.728q-1.233 0-1.952.84-.72.84-.72 2.317 0 1.422.728 2.242.726.82 1.945.82 1.242 0 1.91-.804.668-.805.668-2.29 0-1.5-.668-2.312-.668-.813-1.91-.813zm-41.483 3.329 1.929-.266v.797q0 1.023-.621 1.691-.621.668-1.574.668-.695 0-1.113-.37-.418-.372-.418-.958 0-.805.453-1.121.453-.316 1.344-.441zm23.125 0 1.929-.266v.797q0 1.023-.621 1.691-.621.668-1.574.668-.695 0-1.113-.37-.418-.372-.418-.958 0-.805.453-1.121.453-.316 1.344-.441z" fill="#1A0D7C"/><g stroke="#82CAC7" stroke-width="4.145" stroke-linecap="round" stroke-linejoin="round"><path d="m340.817 249.025 33.265-3.496c2.287-.24 4.351 1.401 4.587 3.648l2.576 24.51c.236 2.247-1.442 4.281-3.729 4.522l-33.265 3.496c-2.287.24-4.35-1.401-4.587-3.648l-2.576-24.51c-.236-2.246 1.442-4.281 3.729-4.522z" fill="#FFF" fill-rule="evenodd"/><path d="M378.67 249.177 359.38 265.66l-22.293-12.113" fill="none"/></g><path d="M106.948 231.674h1.28V219.83h-1.28v11.844zm-28.82-11.203v11.203h2.968q2.758 0 4.402-1.574 1.645-1.575 1.645-4.168 0-5.461-5.922-5.461h-3.094zm83.53 11.375q.743 0 1.196-.25v-1.094q-.352.266-.836.266-.633 0-.906-.344-.274-.344-.274-1.149v-4.507h2.016v-1.094h-2.016v-2.367l-1.281.414v1.953h-1.375v1.094h1.375v4.734q0 2.344 2.102 2.344zm-82.218-1.36v-8.828h1.75q4.578 0 4.578 4.305 0 2.164-1.227 3.344-1.226 1.18-3.43 1.18H79.44zm10.515-2.492h5.649v-.672q0-1.804-.86-2.82-.859-1.016-2.43-1.016-1.57 0-2.628 1.176-1.059 1.176-1.059 3.043 0 1.977.969 3.066.969 1.09 2.664 1.09 1.734 0 2.79-.765v-1.203q-1.134.89-2.485.89-1.203 0-1.89-.726-.688-.727-.72-2.063zm8.899 2.524h-.031v4.836H97.54v-11.68h1.282v1.406h.03q.946-1.594 2.766-1.594 1.547 0 2.415 1.075.867 1.074.867 2.878 0 2.008-.977 3.215-.976 1.207-2.672 1.207-1.554 0-2.398-1.343zm15.312 1.343q-1.773 0-2.832-1.12-1.058-1.122-1.058-2.973 0-2.016 1.101-3.149 1.102-1.133 2.977-1.133 1.789 0 2.793 1.102 1.004 1.101 1.004 3.055 0 1.914-1.082 3.066t-2.903 1.152zm25.133-.187h-1.281v-4.594q0-1.328-.41-1.922-.41-.594-1.38-.594-.82 0-1.394.75t-.574 1.797v4.563h-1.281v-4.75q0-2.36-1.82-2.36-.844 0-1.391.707-.547.708-.547 1.84v4.563h-1.281v-8h1.281v1.265h.031q.852-1.453 2.485-1.453.82 0 1.43.457.609.457.835 1.2.89-1.657 2.657-1.657 2.64 0 2.64 3.258v4.93zm3.203-3.68h5.649v-.672q0-1.804-.86-2.82-.86-1.016-2.43-1.016-1.57 0-2.628 1.176-1.059 1.176-1.059 3.043 0 1.977.969 3.066.969 1.09 2.664 1.09 1.734 0 2.789-.765v-1.203q-1.133.89-2.484.89-1.203 0-1.891-.726-.687-.727-.719-2.063zm14.227 3.68h-1.281v-4.563q0-2.547-1.86-2.547-.96 0-1.59.723-.629.723-.629 1.824v4.563h-1.28v-8h1.28v1.328h.032q.906-1.516 2.625-1.516 1.312 0 2.008.848.695.848.695 2.45v4.89zm-33.844 1.281 3.68-9.281h-1.328l-2.274 6.172q-.117.406-.156.593h-.047q-.125-.492-.164-.609l-2.164-6.156h-1.422l3.125 7.984-.64 1.516q-.485 1.156-1.454 1.156-.343 0-.757-.14v1.148q.335.101.835.101 1.782 0 2.766-2.484zm-29.129-7.773q.528.617.535 1.726h-4.32q.148-1.047.781-1.695.633-.649 1.54-.649.937 0 1.464.618zm5.067 2.11v1.116q0 .992.644 1.684.645.691 1.637.691 1.164 0 1.824-.89.66-.891.66-2.477 0-1.336-.617-2.094-.617-.758-1.672-.758-1.117 0-1.797.778-.68.777-.68 1.95zm15.437-2.728q-1.234 0-1.953.84-.719.84-.719 2.317 0 1.422.727 2.242.726.82 1.945.82 1.242 0 1.91-.804.668-.805.668-2.29 0-1.5-.668-2.312-.668-.813-1.91-.813zm32.043.618q.527.617.535 1.726h-4.32q.148-1.047.781-1.695.633-.649 1.54-.649.937 0 1.464.618zM514.622 352.05l-.802 1.96-5.02-.884-2.229 5.556 5.405.953-.879 1.948-5.29-.933-3.039 7.338-2.423-.428 3-7.344-4.808-.848-2.962 7.351-2.405-.424 2.963-7.35-5.04-.89.744-1.97 5.097.898 2.191-5.563-5.328-.94.764-1.967 5.328.94 2.979-7.448 2.423.427-2.979 7.447 4.847.855 3.018-7.44 2.366.417-2.98 7.447 5.06.892zm-8.207.655-4.847-.854-2.287 5.546 4.886.861 2.248-5.553z" fill="#1A0D7C"/><g fill="#1A0D7C"><path d="M260.725 298.408q.242.235.586.235.351 0 .598-.243.246-.242.246-.586 0-.359-.246-.597-.247-.238-.598-.238-.344 0-.586.238t-.242.597q0 .36.242.594zm-10.984 10.266h-1.305v-7.516q0-.89.11-2.18h-.032q-.187.758-.336 1.086l-3.828 8.61h-.64l-3.821-8.547q-.164-.375-.336-1.148h-.031q.062.671.062 2.195v7.5h-1.265V297.47h1.734l3.438 7.812q.398.899.515 1.344h.047q.336-.922.54-1.375l3.507-7.781h1.64v11.203zm26.359.172q.742 0 1.195-.25v-1.094q-.351.266-.836.266-.632 0-.906-.344-.273-.344-.273-1.149v-4.507h2.015v-1.094h-2.015v-2.367l-1.282.414v1.953h-1.375v1.094h1.375v4.734q0 2.344 2.102 2.344zm-17.86-.172h-1.28v-1.25h-.032q-.836 1.437-2.46 1.437-1.196 0-1.872-.632-.676-.633-.676-1.68 0-2.242 2.64-2.61l2.4-.335q0-2.04-1.65-2.04-1.444 0-2.608.985v-1.313q1.18-.75 2.718-.75 2.82 0 2.82 2.985v5.203zm12.93 0h-1.281v-4.563q0-2.547-1.86-2.547-.96 0-1.59.723-.628.723-.628 1.824v4.563h-1.281v-8h1.28v1.328h.032q.906-1.516 2.625-1.516 1.313 0 2.008.848.695.848.695 2.45v4.89zm14.266-3.68h-5.649q.032 1.336.72 2.063.687.726 1.89.726 1.351 0 2.484-.89v1.203q-1.054.765-2.789.765-1.695 0-2.664-1.09-.969-1.09-.969-3.066 0-1.867 1.059-3.043 1.059-1.176 2.629-1.176t2.43 1.016q.859 1.016.859 2.82v.672zm7.297 3.68h1.281v-4.89q0-1.602-.695-2.45-.696-.848-2.008-.848-1.719 0-2.625 1.516h-.031v-1.328h-1.282v8h1.282v-4.563q0-1.101.629-1.824.628-.723 1.59-.723 1.859 0 1.859 2.547v4.563zm9.422 0h-1.282v-1.25h-.03q-.837 1.437-2.462 1.437-1.195 0-1.87-.632-.677-.633-.677-1.68 0-2.242 2.64-2.61l2.4-.335q0-2.04-1.65-2.04-1.444 0-2.608.985v-1.313q1.18-.75 2.718-.75 2.82 0 2.82 2.985v5.203zm7.773 0h1.281v-4.89q0-1.602-.695-2.45-.695-.848-2.008-.848-1.719 0-2.625 1.516h-.031v-1.328h-1.281v8h1.28v-4.563q0-1.101.63-1.824.629-.723 1.59-.723 1.859 0 1.859 2.547v4.563zm9.149-.367q-.922.554-2.188.554-1.711 0-2.762-1.113-1.05-1.113-1.05-2.887 0-1.976 1.132-3.175 1.133-1.2 3.024-1.2 1.054 0 1.86.391v1.312q-.891-.625-1.907-.625-1.227 0-2.012.88-.785.878-.785 2.308 0 1.406.738 2.219.739.812 1.98.812 1.048 0 1.97-.695v1.219zm2.718-3.313h5.649v-.672q0-1.804-.86-2.82-.86-1.016-2.43-1.016-1.57 0-2.628 1.176-1.059 1.176-1.059 3.043 0 1.977.969 3.066.969 1.09 2.664 1.09 1.734 0 2.789-.765v-1.203q-1.133.89-2.484.89-1.203 0-1.891-.726-.687-.727-.719-2.063zm-61.14 3.68h1.28v-8h-1.28v8zm23.468-4.766q-.007-1.11-.535-1.726-.527-.618-1.465-.618-.906 0-1.539.649-.632.648-.781 1.695h4.32zm41.473-1.726q.527.617.535 1.726h-4.32q.148-1.047.781-1.695.633-.649 1.54-.649.937 0 1.464.618zm-68.637 2.445-1.93.266q-.89.125-1.343.441-.453.316-.453 1.121 0 .586.418.957t1.113.371q.953 0 1.574-.668.621-.668.621-1.691v-.797zm43.914 0-1.93.266q-.89.125-1.343.441-.453.316-.453 1.121 0 .586.418.957t1.113.371q.953 0 1.574-.668.621-.668.621-1.691v-.797zM266.971 328.674h-1.281v-1.36h-.031q-.891 1.547-2.75 1.547-1.508 0-2.41-1.074-.903-1.074-.903-2.926 0-1.984 1-3.18 1-1.195 2.664-1.195 1.649 0 2.399 1.297h.03v-4.953h1.282v11.844zm59.086.172q.742 0 1.195-.25v-1.094q-.351.266-.836.266-.632 0-.906-.344-.273-.344-.273-1.149v-4.507h2.015v-1.094h-2.015v-2.367l-1.282.414v1.953h-1.375v1.094h1.375v4.734q0 2.344 2.102 2.344zm-78.664-.172h1.281v-5.203q0-2.985-2.82-2.985-1.54 0-2.719.75v1.313q1.164-.985 2.61-.985 1.648 0 1.648 2.04l-2.399.335q-2.64.368-2.64 2.61 0 1.047.676 1.68.675.632 1.87.632 1.626 0 2.462-1.437h.03v1.25zm9.055 0h1.28v-4.89q0-1.602-.694-2.45-.696-.848-2.008-.848-1.72 0-2.625 1.516h-.032v-1.328h-1.28v8h1.28v-4.563q0-1.101.63-1.824.628-.723 1.59-.723 1.859 0 1.859 2.547v4.563zm17.015-1.664v1.375q.906.476 2.14.476.626 0 1.196-.14t1.008-.43q.437-.289.7-.727.26-.437.26-1.03 0-.485-.16-.837-.16-.351-.456-.62-.297-.27-.72-.485-.42-.215-.952-.418-.399-.156-.711-.29-.313-.132-.531-.296-.22-.164-.332-.375-.114-.211-.114-.524 0-.25.114-.457.113-.207.32-.355.207-.148.496-.23.29-.083.648-.083 1.149 0 2.032.579v-1.297q-.82-.36-1.86-.36-.586 0-1.136.149-.551.148-.98.441-.43.293-.688.727-.258.433-.258.996 0 .46.137.805.136.343.406.613.27.27.672.484.402.215.933.426.383.148.715.285.332.137.578.309.246.172.39.394.145.223.145.543 0 1.125-1.687 1.125-1.258 0-2.305-.773zm17.61.508h.03q.845 1.343 2.4 1.343 1.695 0 2.671-1.207.977-1.207.977-3.215 0-1.804-.867-2.878-.868-1.075-2.415-1.075-1.82 0-2.765 1.594h-.031v-1.406h-1.282v11.68h1.282v-4.836zm9.437 0h-.031v4.836h-1.281v-11.68h1.28v1.406h.032q.945-1.594 2.766-1.594 1.547 0 2.414 1.075.867 1.074.867 2.878 0 2.008-.977 3.215-.976 1.207-2.671 1.207-1.555 0-2.399-1.343zm8.606.222q1.058 1.121 2.832 1.121 1.82 0 2.902-1.152t1.082-3.066q0-1.954-1.004-3.055-1.004-1.102-2.793-1.102-1.875 0-2.976 1.133-1.102 1.133-1.102 3.149 0 1.851 1.059 2.972zm13.035-5.77q-.336-.257-.97-.257-.82 0-1.37.773-.55.774-.55 2.11v4.078h-1.282v-8h1.281v1.648h.031q.274-.843.836-1.316.563-.473 1.258-.473.5 0 .766.11v1.328zm-34.946 6.704h-1.28v-1.266h-.032q-.797 1.453-2.469 1.453-2.86 0-2.86-3.406v-4.781h1.274v4.578q0 2.531 1.938 2.531.937 0 1.543-.691.605-.692.605-1.809v-4.61h1.281v8zm-21.515-3.617v-1.18q0-.969-.64-1.64-.641-.673-1.626-.673-1.172 0-1.844.86-.671.86-.671 2.375 0 1.383.644 2.183.645.801 1.73.801 1.07 0 1.739-.773.668-.774.668-1.953zm25.383.351v-1.117q0-1.172.68-1.95.679-.777 1.796-.777 1.055 0 1.672.758t.617 2.094q0 1.586-.66 2.477-.66.89-1.824.89-.992 0-1.637-.691-.644-.692-.644-1.684zm9.406-1.117v1.117q0 .992.644 1.684.645.691 1.637.691 1.164 0 1.824-.89.66-.891.66-2.477 0-1.336-.617-2.094-.617-.758-1.672-.758-1.117 0-1.796.778-.68.777-.68 1.95zm9.61-1.887q.718-.84 1.952-.84 1.243 0 1.91.813.668.812.668 2.312 0 1.485-.667 2.29-.668.804-1.91.804-1.22 0-1.946-.82-.727-.82-.727-2.242 0-1.477.72-2.317zm-64.626 2.489 1.93-.266v.797q0 1.023-.621 1.691-.621.668-1.574.668-.696 0-1.114-.37-.418-.372-.418-.958 0-.805.453-1.121.454-.316 1.344-.441z"/></g><g fill="#1A0D7C"><path d="M572.733 50.674h1.281v-4.93q0-3.258-2.703-3.258-1.703 0-2.625 1.516h-.031V38.83h-1.282v11.844h1.282v-4.531q0-1.133.64-1.856.64-.723 1.578-.723 1.86 0 1.86 2.5v4.61zm4.351-10.031q-.343 0-.586-.235-.242-.234-.242-.594 0-.359.242-.597.243-.238.586-.238.352 0 .598.238t.246.597q0 .344-.246.586-.246.243-.598.243zm-25.593 10.03h1.453l-4.313-11.202h-1.36l-4.296 11.203h1.46l1.118-3.14h4.75l1.188 3.14zm31.328.173q.742 0 1.195-.25v-1.094q-.352.266-.836.266-.633 0-.906-.344-.274-.344-.274-1.149v-4.507h2.016v-1.094h-2.016v-2.367l-1.28.414v1.953h-1.376v1.094h1.375v4.734q0 2.344 2.102 2.344zm22.375-.25q-.453.25-1.196.25-2.101 0-2.101-2.344v-4.734h-1.375v-1.094h1.375V40.72l1.281-.414v2.367h2.016v1.094h-2.016v4.507q0 .805.274 1.149.273.344.906.344.484 0 .836-.266v1.094zm-57.078-9.016 1.757 4.774h-3.882l1.742-4.774q.101-.273.18-.75h.03q.087.516.173.75zm17.32 8.727q-.922.554-2.188.554-1.71 0-2.761-1.113-1.051-1.113-1.051-2.887 0-1.976 1.133-3.175 1.133-1.2 3.023-1.2 1.055 0 1.86.391v1.312q-.891-.625-1.907-.625-1.226 0-2.011.88-.786.878-.786 2.308 0 1.406.739 2.219.738.812 1.98.812 1.047 0 1.969-.695v1.219zm26.719-3.313h-5.649q.031 1.336.719 2.063.687.726 1.89.726 1.352 0 2.485-.89v1.203q-1.055.765-2.79.765-1.694 0-2.663-1.09-.969-1.09-.969-3.066 0-1.867 1.059-3.043 1.058-1.176 2.629-1.176 1.57 0 2.43 1.016.859 1.016.859 2.82v.672zm5.203 3.867q1.265 0 2.187-.554v-1.22q-.922.696-1.968.696-1.243 0-1.981-.812-.738-.813-.738-2.219 0-1.43.785-2.309.785-.879 2.012-.879 1.015 0 1.906.625v-1.312q-.805-.39-1.86-.39-1.89 0-3.023 1.199-1.133 1.199-1.133 3.175 0 1.774 1.051 2.887 1.05 1.113 2.762 1.113zm24.945-3.867h5.649v-.672q0-1.804-.86-2.82-.86-1.016-2.43-1.016-1.57 0-2.628 1.176-1.06 1.176-1.06 3.043 0 1.977.97 3.066.968 1.09 2.664 1.09 1.734 0 2.789-.765v-1.203q-1.133.89-2.485.89-1.203 0-1.89-.726-.688-.727-.719-2.063zm-64.68-3.281q.633 0 .97.258v-1.328q-.266-.11-.766-.11-.696 0-1.258.473-.563.473-.836 1.316h-.031v-1.648h-1.282v8h1.282v-4.078q0-1.336.55-2.11.551-.773 1.371-.773zm62.508.258q-.336-.258-.969-.258-.82 0-1.37.773-.551.774-.551 2.11v4.078h-1.282v-8h1.282v1.648h.03q.274-.843.837-1.316.562-.473 1.258-.473.5 0 .765.11v1.328zm-42.422 6.703h-1.281v-8h1.281v8zm34.383 0h1.281v-8h-1.28v4.61q0 1.116-.606 1.808-.606.691-1.543.691-1.938 0-1.938-2.531v-4.578h-1.273v4.781q0 3.406 2.86 3.406 1.671 0 2.468-1.453h.031v1.266zm-21.25-4.766q-.008-1.11-.535-1.726-.527-.618-1.465-.618-.906 0-1.539.649-.633.648-.781 1.695h4.32zm35.262-1.726q.527.617.535 1.726h-4.32q.148-1.047.78-1.695.634-.649 1.54-.649.938 0 1.465.618zM566.885 70.674h1.281V58.83h-1.28v4.953h-.032q-.75-1.297-2.399-1.297-1.664 0-2.664 1.196-1 1.195-1 3.18 0 1.85.903 2.925.902 1.074 2.41 1.074 1.86 0 2.75-1.547h.031v1.36zm19.102-10.266q.242.235.586.235.351 0 .597-.243.246-.242.246-.586 0-.359-.246-.597t-.597-.238q-.344 0-.586.238-.243.238-.243.597 0 .36.243.594zm-14.446 6.586h5.649v-.672q0-1.804-.86-2.82-.859-1.016-2.43-1.016-1.57 0-2.628 1.176-1.059 1.176-1.059 3.043 0 1.977.969 3.066.969 1.09 2.664 1.09 1.734 0 2.79-.765v-1.203q-1.134.89-2.485.89-1.203 0-1.89-.726-.688-.727-.72-2.063zm7.102 3.39V69.01q1.047.773 2.305.773 1.687 0 1.687-1.125 0-.32-.144-.543-.145-.222-.391-.394-.246-.172-.578-.309-.332-.137-.715-.285-.531-.21-.934-.426-.402-.215-.671-.484-.27-.27-.407-.613-.136-.344-.136-.805 0-.563.257-.996.258-.434.688-.727.43-.293.98-.441.551-.149 1.137-.149 1.04 0 1.86.36v1.297q-.883-.579-2.032-.579-.36 0-.648.082-.29.083-.496.231-.207.148-.32.355-.114.207-.114.457 0 .313.113.524.114.21.332.375.22.164.532.297.312.133.71.289.532.203.954.418.422.215.718.484.297.27.457.621.16.352.16.836 0 .594-.261 1.031-.262.438-.7.727-.437.29-1.007.43-.57.14-1.195.14-1.235 0-2.141-.476zm17.976-.35q0 4.405-4.218 4.405-1.485 0-2.594-.562v-1.281q1.352.75 2.578.75 2.953 0 2.953-3.14v-.876h-.031q-.914 1.531-2.75 1.531-1.492 0-2.402-1.066-.91-1.066-.91-2.863 0-2.04.98-3.243.98-1.203 2.684-1.203 1.617 0 2.398 1.297h.031v-1.11h1.281v7.36zm7.954.64h1.28v-4.89q0-1.602-.694-2.45-.696-.848-2.008-.848-1.72 0-2.625 1.516h-.032v-1.328h-1.28v8h1.28V66.11q0-1.101.63-1.824.628-.723 1.59-.723 1.859 0 1.859 2.547v4.563zm-18.657 0h1.282v-8h-1.282v8zm-19.03-4.797v1.18q0 1.18-.669 1.953-.668.773-1.738.773-1.086 0-1.73-.8-.645-.801-.645-2.184 0-1.516.672-2.375.672-.86 1.843-.86.985 0 1.625.672.641.672.641 1.641zm8.456-1.695q.527.617.535 1.726h-4.32q.148-1.047.781-1.695.633-.649 1.54-.649.937 0 1.464.618zm19.996 2.875v-1.18q0-.953-.644-1.633-.645-.68-1.606-.68-1.187 0-1.86.864-.671.863-.671 2.418 0 1.336.645 2.136.644.801 1.707.801 1.078 0 1.753-.765.676-.766.676-1.961zM560.479 90.674h-1.281v-1.36h-.032q-.89 1.547-2.75 1.547-1.507 0-2.41-1.074-.902-1.074-.902-2.926 0-1.984 1-3.18 1-1.195 2.664-1.195 1.648 0 2.398 1.297h.032V78.83h1.28v11.844zm35.031-.078q-.453.25-1.195.25-2.102 0-2.102-2.344v-4.734h-1.375v-1.094h1.375V80.72l1.281-.414v2.367h2.016v1.094h-2.016v4.507q0 .805.274 1.149.273.344.906.344.485 0 .836-.266v1.094zm14.797 0q-.453.25-1.195.25-2.102 0-2.102-2.344v-4.734h-1.375v-1.094h1.375V80.72l1.281-.414v2.367h2.016v1.094h-2.016v4.507q0 .805.274 1.149.273.344.906.344.484 0 .836-.266v1.094zm-69.406.078h1.28V85.47q0-2.985-2.82-2.985-1.538 0-2.718.75v1.313q1.164-.985 2.61-.985 1.648 0 1.648 2.04l-2.399.335q-2.64.368-2.64 2.61 0 1.047.675 1.68.676.632 1.872.632 1.625 0 2.46-1.437h.032v1.25zm9.054 0h1.282v-4.89q0-1.602-.696-2.45-.695-.848-2.007-.848-1.72 0-2.625 1.516h-.032v-1.328h-1.281v8h1.281V86.11q0-1.101.63-1.824.628-.723 1.589-.723 1.86 0 1.86 2.547v4.563zm18.782-1.156h.03q.845 1.343 2.4 1.343 1.695 0 2.671-1.207.977-1.207.977-3.215 0-1.804-.867-2.878-.868-1.075-2.414-1.075-1.82 0-2.766 1.594h-.031v-1.406h-1.282v11.68h1.282v-4.836zm14.199.222q1.058 1.121 2.832 1.121 1.82 0 2.902-1.152t1.082-3.066q0-1.954-1.004-3.055-1.004-1.102-2.793-1.102-1.875 0-2.976 1.133-1.102 1.133-1.102 3.149 0 1.851 1.059 2.972zm14.797 0q1.058 1.121 2.832 1.121 1.82 0 2.902-1.152t1.082-3.066q0-1.954-1.004-3.055-1.004-1.102-2.793-1.102-1.875 0-2.976 1.133-1.102 1.133-1.102 3.149 0 1.851 1.059 2.972zm23.34-.222h-.032v4.836h-1.28v-11.68h1.28v1.406h.032q.945-1.594 2.765-1.594 1.547 0 2.414 1.075.867 1.074.867 2.878 0 2.008-.976 3.215-.977 1.207-2.672 1.207-1.555 0-2.398-1.343zm8.875-2.524h5.649v-.672q0-1.804-.86-2.82-.86-1.016-2.43-1.016-1.57 0-2.629 1.176t-1.059 3.043q0 1.977.97 3.066.968 1.09 2.663 1.09 1.735 0 2.79-.765v-1.203q-1.133.89-2.485.89-1.203 0-1.89-.726-.688-.727-.72-2.063zm-48.914-3.023q-.336-.258-.97-.258-.82 0-1.37.773-.551.774-.551 2.11v4.078h-1.281v-8h1.28v1.648h.032q.274-.843.836-1.316.563-.473 1.258-.473.5 0 .766.11v1.328zm33.671 7.984 3.68-9.281h-1.328l-2.273 6.172q-.118.406-.157.593h-.047q-.125-.492-.164-.609l-2.164-6.156h-1.422l3.125 7.984-.64 1.516q-.485 1.156-1.453 1.156-.344 0-.758-.14v1.148q.336.101.836.101 1.781 0 2.765-2.484zm-55.507-4.898v-1.18q0-.969-.641-1.64-.64-.673-1.625-.673-1.172 0-1.844.86-.672.86-.672 2.375 0 1.383.645 2.183.644.801 1.73.801 1.07 0 1.739-.773.668-.774.668-1.953zm9.539.351v-1.117q0-1.172.68-1.95.679-.777 1.796-.777 1.055 0 1.672.758t.617 2.094q0 1.586-.66 2.477-.66.89-1.824.89-.992 0-1.637-.691-.644-.692-.644-1.684zm15.172-3.004q.718-.84 1.953-.84 1.242 0 1.91.813.668.812.668 2.312 0 1.485-.668 2.29-.668.804-1.91.804-1.22 0-1.946-.82t-.726-2.242q0-1.477.719-2.317zm14.796 0q.72-.84 1.954-.84 1.242 0 1.91.813.668.812.668 2.312 0 1.485-.668 2.29-.668.804-1.91.804-1.22 0-1.946-.82t-.726-2.242q0-1.477.718-2.317zm22.336 1.887v1.117q0 .992.645 1.684.644.691 1.637.691 1.164 0 1.824-.89.66-.891.66-2.477 0-1.336-.617-2.094-.617-.758-1.672-.758-1.117 0-1.797.778-.68.777-.68 1.95zm12.707-2.11q.528.618.536 1.727h-4.32q.148-1.047.78-1.695.633-.649 1.54-.649.937 0 1.464.618zm-94.777 2.712 1.93-.266v.797q0 1.023-.621 1.691-.621.668-1.575.668-.695 0-1.113-.37-.418-.372-.418-.958 0-.805.453-1.121.453-.316 1.344-.441z"/></g><g fill="#1A0D7C"><path d="M571.573 278.674h1.28V266.83h-1.28v11.844zm-35.446 0V267.47h3.094q5.922 0 5.922 5.46 0 2.594-1.645 4.169-1.644 1.574-4.402 1.574h-2.969zm91.82.172q.743 0 1.196-.25v-1.094q-.352.266-.836.266-.633 0-.906-.344-.274-.344-.274-1.149v-4.507h2.016v-1.094h-2.016v-2.367l-1.281.414v1.953h-1.375v1.094h1.375v4.734q0 2.344 2.102 2.344zm-90.507-10.188v8.828h1.672q2.203 0 3.43-1.18 1.226-1.179 1.226-3.343 0-4.305-4.578-4.305h-1.75zm16.164 6.336h-5.649q.032 1.336.72 2.063.687.726 1.89.726 1.351 0 2.484-.89v1.203q-1.055.765-2.789.765-1.695 0-2.664-1.09-.969-1.09-.969-3.066 0-1.867 1.059-3.043 1.058-1.176 2.629-1.176 1.57 0 2.43 1.016.859 1.016.859 2.82v.672zm16.031 0h-5.648q.03 1.336.718 2.063.688.726 1.891.726 1.352 0 2.484-.89v1.203q-1.054.765-2.789.765-1.695 0-2.664-1.09-.968-1.09-.968-3.066 0-1.867 1.058-3.043 1.059-1.176 2.629-1.176t2.43 1.016q.86 1.016.86 2.82v.672zm9.156 3.867q-1.773 0-2.832-1.12-1.058-1.122-1.058-2.973 0-2.016 1.101-3.149 1.102-1.133 2.977-1.133 1.789 0 2.793 1.102 1.004 1.101 1.004 3.055 0 1.914-1.082 3.066t-2.903 1.152zm7.313-1.343h.031q.844 1.343 2.399 1.343 1.695 0 2.671-1.207.977-1.207.977-3.215 0-1.804-.867-2.878-.867-1.075-2.414-1.075-1.82 0-2.766 1.594h-.031v-1.406h-1.281v11.68h1.28v-4.836zm19.484 1.156h-1.281v-4.594q0-1.328-.41-1.922-.41-.594-1.38-.594-.82 0-1.394.75t-.574 1.797v4.563h-1.281v-4.75q0-2.36-1.82-2.36-.844 0-1.391.707-.547.708-.547 1.84v4.563h-1.281v-8h1.281v1.265h.031q.852-1.453 2.485-1.453.82 0 1.43.457.609.457.835 1.2.89-1.657 2.657-1.657 2.64 0 2.64 3.258v4.93zm3.203-3.68h5.649v-.672q0-1.804-.86-2.82-.859-1.016-2.43-1.016-1.57 0-2.628 1.176-1.059 1.176-1.059 3.043 0 1.977.969 3.066.969 1.09 2.664 1.09 1.734 0 2.79-.765v-1.203q-1.134.89-2.485.89-1.203 0-1.89-.726-.688-.727-.72-2.063zm14.227 3.68h-1.281v-4.563q0-2.547-1.86-2.547-.96 0-1.59.723-.628.723-.628 1.824v4.563h-1.282v-8h1.282v1.328h.03q.907-1.516 2.626-1.516 1.312 0 2.008.848.695.848.695 2.45v4.89zm-64.375 0 3.187-8h-1.351l-2.125 5.844q-.172.484-.25 1.086h-.031q-.055-.477-.282-1.118l-2.03-5.812h-1.407l3.031 8h1.258zm-6.352-4.766q-.007-1.11-.535-1.726-.527-.618-1.465-.618-.906 0-1.539.649-.633.648-.781 1.695h4.32zm16.032 0q-.008-1.11-.536-1.726-.527-.618-1.464-.618-.907 0-1.54.649-.632.648-.78 1.695h4.32zm10.562-2.344q-1.234 0-1.953.84-.719.84-.719 2.317 0 1.422.727 2.242.726.82 1.945.82 1.242 0 1.91-.804.668-.805.668-2.29 0-1.5-.668-2.312-.668-.813-1.91-.813zm7.219 3.844v-1.117q0-1.172.68-1.95.68-.777 1.796-.777 1.055 0 1.672.758t.617 2.094q0 1.586-.66 2.477-.66.89-1.824.89-.992 0-1.637-.691-.644-.692-.644-1.684zm26.488-3.226q.527.617.535 1.726h-4.32q.148-1.047.781-1.695.633-.649 1.54-.649.937 0 1.464.618zM567.752 298.674h-1.281v-1.36h-.031q-.89 1.547-2.75 1.547-1.508 0-2.41-1.074-.903-1.074-.903-2.926 0-1.984 1-3.18 1-1.195 2.664-1.195 1.649 0 2.399 1.297h.031v-4.953h1.281v11.844zm33.047-10.266q.242.235.586.235.352 0 .598-.243.246-.242.246-.586 0-.359-.246-.597t-.598-.238q-.344 0-.586.238t-.242.597q0 .36.242.594zm-23.555 10.438q.743 0 1.196-.25v-1.094q-.352.266-.836.266-.633 0-.906-.344-.274-.344-.274-1.149v-4.507h2.016v-1.094h-2.016v-2.367l-1.281.414v1.953h-1.375v1.094h1.375v4.734q0 2.344 2.101 2.344zm21.774-.25q-.453.25-1.195.25-2.102 0-2.102-2.344v-4.734h-1.375v-1.094h1.375v-1.953l1.281-.414v2.367h2.016v1.094h-2.016v4.507q0 .805.274 1.149.273.344.906.344.484 0 .836-.266v1.094zm-50.844.078h1.281v-5.203q0-2.985-2.82-2.985-1.539 0-2.719.75v1.313q1.164-.985 2.61-.985 1.648 0 1.648 2.04l-2.398.335q-2.64.368-2.64 2.61 0 1.047.675 1.68.676.632 1.87.632 1.626 0 2.462-1.437h.031v1.25zm9.055 0h1.281v-4.89q0-1.602-.695-2.45-.696-.848-2.008-.848-1.719 0-2.625 1.516h-.031v-1.328h-1.282v8h1.282v-4.563q0-1.101.629-1.824.629-.723 1.59-.723 1.859 0 1.859 2.547v4.563zm29.351-3.68h-5.648q.031 1.336.719 2.063.687.726 1.89.726 1.352 0 2.485-.89v1.203q-1.055.765-2.79.765-1.695 0-2.663-1.09-.97-1.09-.97-3.066 0-1.867 1.06-3.043 1.058-1.176 2.628-1.176t2.43 1.016q.86 1.016.86 2.82v.672zm1.454 2.016v1.375q.906.476 2.14.476.625 0 1.195-.14.57-.14 1.008-.43.438-.289.7-.727.261-.437.261-1.03 0-.485-.16-.837-.16-.351-.457-.62-.297-.27-.719-.485-.422-.215-.953-.418-.398-.156-.71-.29-.313-.132-.532-.296-.219-.164-.332-.375-.113-.211-.113-.524 0-.25.113-.457.113-.207.32-.355.207-.148.496-.23.29-.083.649-.083 1.148 0 2.031.579v-1.297q-.82-.36-1.86-.36-.585 0-1.136.149-.55.148-.98.441-.43.293-.688.727-.258.433-.258.996 0 .46.137.805.137.343.406.613.27.27.672.484.402.215.934.426.382.148.714.285.332.137.579.309.246.172.39.394.145.223.145.543 0 1.125-1.688 1.125-1.258 0-2.304-.773zm23.21 1.664h-1.28v-4.563q0-2.547-1.86-2.547-.961 0-1.59.723-.629.723-.629 1.824v4.563h-1.281v-8h1.281v1.328h.031q.907-1.516 2.625-1.516 1.313 0 2.008.848.695.848.695 2.45v4.89zm5.024 3.765q4.219 0 4.219-4.406v-7.36h-1.282v1.11h-.03q-.782-1.297-2.4-1.297-1.702 0-2.683 1.203-.98 1.204-.98 3.243 0 1.797.91 2.863t2.402 1.066q1.836 0 2.75-1.53h.031v.874q0 3.14-2.953 3.14-1.226 0-2.578-.75v1.282q1.11.562 2.594.562zm-15.54-3.765h1.282v-8h-1.281v8zm-34.257-3.617v-1.18q0-.969-.64-1.64-.641-.673-1.626-.673-1.171 0-1.843.86-.672.86-.672 2.375 0 1.383.644 2.183.645.801 1.73.801 1.071 0 1.739-.773.668-.774.668-1.953zm18.797-1.149q-.008-1.11-.535-1.726-.528-.618-1.465-.618-.906 0-1.54.649-.632.648-.78 1.695h4.32zm33.937-.031v1.18q0 1.195-.675 1.96-.676.766-1.754.766-1.063 0-1.707-.8-.645-.801-.645-2.137 0-1.555.672-2.418.672-.864 1.86-.864.96 0 1.605.68.644.68.644 1.633zm-72.96 1.016 1.93-.266v.797q0 1.023-.622 1.691-.621.668-1.574.668-.695 0-1.113-.37-.418-.372-.418-.958 0-.805.453-1.121.453-.316 1.343-.441z"/></g><path d="m153.08 60.312 50.372-7.978 5.945 37.532-50.372 7.978-5.945-37.532z" fill="#1A0D7C" fill-rule="evenodd"/><path d="m158.224 54.435 57.286-9.073 5.815 36.716 1.694 10.693-12.347-9.006-46.633 7.386-5.815-36.716z" fill="#82CAC7" fill-rule="evenodd"/><path d="m192.617 61.01-4.381 17.105-1.48.207 4.362-17.101 1.499-.21zm-8.687 14.11-8.904-3.009-.08-.57 7.661-5.83.204 1.45-5.725 4.316.006.038 6.635 2.164.203 1.441zm12.949-1.82 7.73-5.346-.081-.57-8.972-3.493.204 1.45 6.712 2.568.008.058-5.804 3.892.203 1.441z" fill="#FFF"/><path d="m38.659 161.072-9-30M26.658 175.072c-8.894-1.388-17.61-3.29-24.586-4.319" fill="none" stroke="#1A0D7C" stroke-width="3" stroke-linecap="round"/><path d="m384.659 351.072 27-34" fill="none" stroke="#9FDEEB" stroke-width="3" stroke-linecap="round"/><path d="m406.559 384.057 19.2 6.03" fill="none" stroke="#82CAC7" stroke-width="3" stroke-linecap="round"/></svg>