<svg width="1066" height="516" xmlns="http://www.w3.org/2000/svg"><defs><linearGradient x1="0" y1=".062" x2=".832" y2="1" id="b"><stop offset="0" stop-color="#19084C"/><stop offset="1" stop-color="#280868"/></linearGradient><path d="M557.721 0c6.927 0 12.543 5.613 12.543 12.54v271.278c0 6.924-5.616 12.54-12.543 12.54H12.54c-6.924 0-12.54-5.616-12.54-12.54V12.54C0 5.613 5.616 0 12.54 0" transform="translate(.059 .477)" id="a"/></defs><path d="M327.181 8.333c-100.516 0-182 78.35-182 175s81.484 175 182 175" fill="#9FDEEB" fill-opacity=".25" fill-rule="evenodd"/><g fill-rule="evenodd"><path d="M0 0h840v405H0V0z" transform="translate(225.181 107.333)" fill="url(#b)"/><path d="M233.18 82.333h824.002q.196 0 .392.01.197.01.392.029.195.019.39.048.194.028.386.067.193.038.384.086.19.047.378.104.188.057.373.124.185.066.366.14.181.076.36.16.177.084.35.177.173.092.341.193.17.101.332.21.163.11.321.226.158.117.31.242.151.124.297.256.145.132.284.27.14.14.271.285.132.146.256.297.125.152.242.31.117.158.226.321.11.163.21.332.101.168.193.341.093.173.177.351.084.178.16.359.074.181.14.366.067.185.124.373.057.188.104.378.048.19.086.383.04.193.067.387.03.195.05.39.018.195.027.392.01.196.01.392v20.001h-840V90.332q0-.196.01-.392.01-.197.029-.392.019-.195.048-.39.029-.194.067-.387.038-.192.086-.383.048-.19.105-.378.057-.188.123-.373t.141-.366q.075-.181.16-.359.083-.178.176-.35.092-.174.193-.342.101-.169.21-.332.11-.163.226-.321.117-.158.242-.31.124-.151.256-.297.132-.145.271-.284.139-.139.284-.27.146-.133.298-.257.151-.125.31-.242.157-.117.32-.226t.332-.21q.168-.1.341-.193.174-.093.351-.177.178-.084.36-.16.18-.074.365-.14.185-.067.373-.124.188-.057.379-.104.19-.048.383-.086.192-.039.386-.067.195-.03.39-.048.196-.02.392-.03.196-.009.392-.009z" fill="#EBECED"/><path d="M239.181 102.333a6 6 0 1 0 0-12 6 6 0 0 0 0 12z" fill="#FF4143"/><path d="M256.181 102.333a6 6 0 1 0 0-12 6 6 0 0 0 0 12z" fill="#FCB414"/><path d="M273.181 102.333a6 6 0 1 0 0-12 6 6 0 0 0 0 12z" fill="#46C793"/></g><path d="M838.961 174.81c6.927 0 12.543 5.613 12.543 12.54v271.278c0 6.924-5.616 12.54-12.543 12.54h-545.18c-6.925 0-12.54-5.616-12.54-12.54V187.35c0-6.927 5.615-12.54 12.54-12.54" fill="none"/><path d="m311.321 192.185-13.626 13.626 13.611 13.614M345.564 192.185l13.626 13.626-13.611 13.614M322.677 221.759l10.812-29.574" fill="none" stroke="#12D77E" stroke-width="6" stroke-linecap="round" stroke-linejoin="round"/><path d="M377.51 221.999a3.843 3.843 0 1 1-7.685 0 3.843 3.843 0 0 1 7.685 0M393.419 221.999a3.843 3.843 0 0 1-3.843 3.843 3.844 3.844 0 1 1 0-7.686 3.843 3.843 0 0 1 3.843 3.843M409.325 221.999a3.843 3.843 0 1 1-7.686 0 3.843 3.843 0 0 1 7.686 0" fill="#12D77E" fill-rule="evenodd"/><path d="M304.508 249.695H714.09M738.93 249.695h31.563M788.219 249.695h40.287" fill="none" stroke="#12D77E" stroke-width="6" stroke-linecap="round" stroke-linejoin="round"/><path d="M304.508 281.924h256.24M598.869 281.924h45.927M644.796 300.456H520.113M502.985 300.456H477.86M457.898 300.456h-25.125M412.813 300.456h-25.125M367.727 300.456h-25.125" fill="none" stroke="#12FFFF" stroke-width="6" stroke-linecap="round" stroke-linejoin="round"/><path d="M731.162 322.988H342.599" fill="none" stroke="#FF3181" stroke-width="6" stroke-linecap="round" stroke-linejoin="round"/><path d="M313.574 300.456h-9.066M313.574 322.988h-9.066M313.574 345.52h-9.066M313.574 368.053h-9.066" fill="none" stroke="#12FFFF" stroke-width="6" stroke-linecap="round" stroke-linejoin="round"/><path d="M754.712 322.988h53.65M341.673 345.52h107.511M341.673 368.606h107.511M341.673 391.69h107.511M341.673 414.775h107.511" fill="none" stroke="#FF3181" stroke-width="6" stroke-linecap="round" stroke-linejoin="round"/><path d="M520.115 414.775h218.814M649.838 391.69h89.091M703.561 368.053h35.37" fill="none" stroke="#FFD000" stroke-width="6" stroke-linecap="round" stroke-linejoin="round"/><g><path d="m173.247 33.013 37.78-5.984 4.458 28.15-37.78 5.983-4.458-28.15z" fill="#1A0D7C" fill-rule="evenodd"/><path d="M177.106 28.605 220.07 21.8l4.362 27.537 1.27 8.02-9.26-6.754-34.975 5.54-4.361-27.538z" fill="#82CAC7" fill-rule="evenodd"/><path d="M203.005 33.391 199.72 46.22l-1.11.156 3.271-12.826 1.124-.158zm-6.515 10.583-6.678-2.257-.06-.428 5.746-4.372.153 1.088-4.293 3.236.004.03 4.976 1.622.152 1.08zm9.712-1.365 5.797-4.01-.06-.428-6.73-2.62.154 1.089 5.034 1.925.006.044-4.353 2.92.152 1.08z" fill="#FFF"/></g><g><path d="m26.82 328.046 39.704-4.875q.585-.072 1.172-.115.588-.043 1.177-.057.589-.014 1.178 0 .589.016 1.176.06.588.043 1.172.115.585.073 1.165.174.58.1 1.156.23.574.13 1.142.287.568.158 1.127.343.56.185 1.109.397.55.212 1.088.451.539.24 1.065.505.526.265 1.038.556.513.29 1.01.606.498.315.98.655.48.34.945.702.464.363.91.748t.872.791q.427.407.833.833.406.427.79.874.385.446.747.91.362.465.701.947.34.482.654.98.315.498.605 1.01.29.513.555 1.04.265.526.503 1.065.239.539.45 1.088.212.55.397 1.11.184.56.34 1.127.158.568.286 1.143.13.575.23 1.155.1.58.172 1.166l3.169 25.808q.071.584.114 1.172.044.588.058 1.177.014.589-.001 1.178-.015.588-.058 1.176-.044.588-.117 1.172-.072.585-.173 1.165-.101.58-.23 1.155-.13.575-.287 1.143-.158.568-.343 1.127-.185.56-.397 1.109-.213.55-.452 1.088-.239.538-.504 1.064-.265.527-.556 1.039-.29.512-.606 1.01-.315.498-.655.979-.34.482-.702.946-.363.464-.748.91t-.791.872q-.407.427-.834.833-.427.406-.873.79-.446.385-.91.747-.466.362-.947.701-.482.34-.98.654-.498.315-1.01.605-.514.29-1.04.555-.526.264-1.065.503-.539.238-1.089.45-.55.212-1.109.396-.56.185-1.127.342-.568.156-1.143.285-.575.129-1.155.23-.581.1-1.166.172l-39.704 4.875q-.584.071-1.172.114-.587.043-1.176.058-.59.014-1.178-.001-.59-.015-1.177-.058-.587-.044-1.172-.117-.585-.072-1.165-.173-.58-.101-1.155-.23-.575-.13-1.143-.287-.567-.158-1.127-.343-.56-.185-1.109-.397-.55-.213-1.088-.452-.538-.239-1.064-.504t-1.039-.556q-.512-.29-1.01-.606-.497-.315-.979-.655-.481-.34-.946-.702-.464-.363-.91-.748t-.872-.791q-.427-.407-.833-.834-.406-.427-.79-.873-.385-.446-.747-.91-.362-.466-.701-.947-.339-.482-.654-.98t-.605-1.01q-.29-.514-.555-1.04-.264-.526-.503-1.065-.238-.539-.45-1.089-.212-.55-.396-1.109-.185-.56-.341-1.127-.157-.568-.286-1.143-.129-.575-.23-1.155-.1-.581-.171-1.166l-3.17-25.808q-.071-.585-.114-1.172-.043-.588-.057-1.177-.014-.589 0-1.178.015-.589.059-1.176.044-.588.116-1.172.072-.585.173-1.165.101-.58.23-1.156.13-.574.288-1.142.157-.568.342-1.127.185-.56.398-1.11.212-.549.451-1.087.24-.539.504-1.065.265-.526.556-1.038.29-.513.606-1.01.316-.498.655-.98.34-.48.702-.945.363-.464.748-.91t.792-.872q.406-.427.833-.833.427-.406.873-.79.447-.385.911-.747.465-.362.947-.701.482-.34.98-.654.497-.315 1.01-.605t1.04-.555q.526-.265 1.064-.503.54-.239 1.089-.45.55-.212 1.11-.397.559-.184 1.127-.34.568-.158 1.142-.286.575-.13 1.156-.23.58-.1 1.165-.172z" fill="#6F4CFF" fill-rule="evenodd"/><path d="m29.82 324.046 39.704-4.875q.585-.072 1.172-.115.588-.043 1.177-.057.589-.014 1.178 0 .589.016 1.176.06.588.043 1.172.115.585.073 1.165.174.58.1 1.156.23.574.13 1.142.287.568.158 1.127.343.56.185 1.109.397.55.212 1.088.451.539.24 1.065.505.526.265 1.038.556.513.29 1.01.606.498.315.98.655.48.34.945.702.464.363.91.748t.872.791q.427.407.833.833.406.427.79.874.385.446.747.91.362.465.701.947.34.482.654.98.315.498.605 1.01.29.513.555 1.04.265.526.503 1.065.239.539.45 1.088.212.55.397 1.11.184.56.34 1.127.158.568.286 1.143.13.575.23 1.155.1.58.172 1.166l3.169 25.808q.071.584.114 1.172.044.588.058 1.177.014.589-.001 1.178-.015.588-.058 1.176-.044.588-.117 1.172-.072.585-.173 1.165-.101.58-.23 1.155-.13.575-.287 1.143-.158.568-.343 1.127-.185.56-.397 1.109-.213.55-.452 1.088-.239.538-.504 1.064-.265.527-.556 1.039-.29.512-.606 1.01-.315.498-.655.979-.34.482-.702.946-.363.464-.748.91t-.791.872q-.407.427-.834.833-.427.406-.873.79-.446.385-.91.747-.466.362-.947.701-.482.34-.98.654-.498.315-1.01.605-.514.29-1.04.555-.526.264-1.065.503-.539.238-1.089.45-.55.212-1.109.396-.56.185-1.127.342-.568.156-1.143.285-.575.129-1.155.23-.581.1-1.166.172l-39.704 4.875q-.584.071-1.172.114-.587.043-1.176.058-.59.014-1.178-.001-.59-.015-1.177-.058-.587-.044-1.172-.117-.585-.072-1.165-.173-.58-.101-1.155-.23-.575-.13-1.143-.287-.567-.158-1.127-.343-.56-.185-1.109-.397-.55-.213-1.088-.452-.538-.239-1.064-.504t-1.039-.556q-.512-.29-1.01-.606-.497-.315-.979-.655-.481-.34-.946-.702-.464-.363-.91-.748t-.872-.791q-.427-.407-.833-.834-.406-.427-.79-.873-.385-.446-.747-.91-.362-.466-.701-.947-.339-.482-.654-.98t-.605-1.01q-.29-.514-.555-1.04-.264-.526-.503-1.065-.238-.539-.45-1.089-.212-.55-.396-1.109-.185-.56-.341-1.127-.157-.568-.286-1.143-.129-.575-.23-1.155-.1-.581-.171-1.166l-3.17-25.808q-.071-.585-.114-1.172-.043-.588-.057-1.177-.014-.589 0-1.178.015-.589.059-1.176.044-.588.116-1.172.072-.585.173-1.165.101-.58.23-1.156.13-.574.288-1.142.157-.568.342-1.127.185-.56.398-1.11.212-.549.451-1.087.24-.539.504-1.065.265-.526.556-1.038.29-.513.606-1.01.316-.498.655-.98.34-.48.702-.945.363-.464.748-.91t.792-.872q.406-.427.833-.833.427-.406.873-.79.447-.385.911-.747.465-.362.947-.701.482-.34.98-.654.497-.315 1.01-.605t1.04-.555q.526-.265 1.064-.503.54-.239 1.089-.45.55-.212 1.11-.397.559-.184 1.127-.34.568-.158 1.142-.286.575-.13 1.156-.23.58-.1 1.165-.172z" fill="#FAF5F6" fill-rule="evenodd"/><path d="M24.714 374.914a1.702 1.702 0 0 1-1.327-.384 1.811 1.811 0 0 1-.689-1.227c-.069-.491.064-.99.361-1.377.285-.39.721-.64 1.196-.685.488-.069.98.072 1.36.388.391.303.644.754.697 1.248a1.78 1.78 0 0 1-.372 1.357 1.75 1.75 0 0 1-1.226.68zm25.17-3.458-3.321.408-14.183-17.231a8.188 8.188 0 0 1-.927-1.377l-.095.011a24.74 24.74 0 0 1 .524 3.204l2.08 16.94-2.7.332-2.878-23.447 3.512-.431 13.827 16.976c.578.702.954 1.185 1.13 1.454l.066-.008a25.444 25.444 0 0 1-.586-3.431l-2.027-16.515 2.703-.332 2.875 23.447zm18.306-2.247-12.252 1.504-2.88-23.447 11.731-1.44.305 2.487-9.022 1.108.956 7.79 8.343-1.024.303 2.467-8.343 1.024 1.008 8.21 9.55-1.172.306 2.492h-.005zm15.592-23.19-6.667.819 2.573 20.959-2.707.332-2.574-20.959-6.65.817-.307-2.496 16.026-1.968.306 2.496z" fill="#1A0D7C"/></g><g><path d="m589.482 7.42 51.804 4.531q.587.052 1.17.132.584.08 1.163.189.58.108 1.153.245.573.137 1.138.302.566.165 1.123.357.556.193 1.103.412.547.22 1.082.466.535.246 1.058.518t1.031.57q.509.297 1.002.618.494.322.97.668.478.346.937.715.46.368.9.76.441.39.862.802.421.412.822.844.4.433.779.884t.735.92q.356.47.688.956.333.486.641.988.309.502.592 1.019.283.516.541 1.046.258.53.49 1.072.23.542.435 1.094.205.553.382 1.115.177.561.326 1.131.15.57.27 1.147.122.576.215 1.158t.157 1.167q.064.586.1 1.174.035.588.041 1.177.007.59-.016 1.178-.022.589-.074 1.176l-2.266 25.903q-.051.587-.131 1.17-.08.584-.19 1.163-.108.58-.245 1.152-.137.573-.301 1.139-.165.565-.358 1.122-.192.557-.412 1.104-.22.547-.465 1.082-.246.535-.518 1.058-.272.522-.57 1.03-.297.51-.619 1.003-.322.493-.668.97-.346.477-.714.937-.369.46-.76.9-.39.44-.803.862-.412.421-.844.821-.432.4-.883.78-.452.378-.921.734-.47.356-.956.689-.486.333-.988.641t-1.018.592q-.517.283-1.047.54-.53.258-1.071.49-.542.231-1.095.436-.552.204-1.114.381-.562.178-1.132.327-.57.15-1.146.27-.577.122-1.159.215-.581.092-1.167.157-.586.064-1.174.099t-1.177.042q-.589.006-1.178-.016-.588-.023-1.175-.074l-51.804-4.532q-.587-.052-1.171-.132-.584-.08-1.163-.189-.579-.108-1.152-.245t-1.138-.302q-.566-.165-1.123-.357-.557-.193-1.103-.412-.547-.22-1.082-.466-.536-.246-1.058-.518-.523-.272-1.031-.57-.51-.296-1.002-.618-.494-.322-.97-.668-.478-.346-.937-.715-.46-.368-.9-.76-.441-.39-.863-.802-.42-.412-.821-.844-.4-.433-.78-.884-.378-.451-.734-.92-.356-.47-.689-.956-.332-.486-.64-.988-.309-.502-.592-1.019-.284-.516-.541-1.046-.258-.53-.49-1.072-.23-.542-.435-1.094-.205-.553-.382-1.114-.177-.562-.327-1.132-.149-.57-.27-1.147-.121-.576-.214-1.158t-.157-1.167q-.064-.586-.1-1.174-.035-.588-.041-1.177-.007-.59.016-1.178.022-.589.074-1.176l2.266-25.903q.051-.587.131-1.17.08-.584.189-1.163.109-.58.245-1.152.137-.573.302-1.139.165-.565.357-1.122.193-.557.412-1.104.22-.546.466-1.082.246-.535.518-1.058.272-.522.57-1.03.297-.51.619-1.003.322-.493.667-.97.346-.477.715-.937.369-.46.76-.9.39-.44.802-.862.413-.421.845-.821.432-.4.883-.78.451-.378.92-.734.47-.356.956-.689.487-.333.989-.641t1.018-.592q.517-.283 1.046-.54.53-.258 1.072-.49.542-.231 1.094-.436.553-.204 1.115-.381.562-.178 1.132-.327.57-.15 1.146-.27.576-.122 1.158-.215.582-.092 1.168-.156.585-.065 1.173-.1.589-.035 1.178-.042.589-.006 1.177.016.59.023 1.176.074z" fill="#2D3880" fill-rule="evenodd"/><path d="m592.704 5.237 51.804 4.532q.587.052 1.17.132.584.08 1.163.188.58.11 1.152.246.573.137 1.139.302.565.165 1.122.357.557.192 1.104.412.547.22 1.082.466.535.246 1.058.518.522.272 1.03.569.51.297 1.003.62.493.321.97.667.477.346.937.715.46.368.9.76.44.39.862.802.421.412.821.844.4.432.78.884.378.451.734.92.356.47.69.956.332.486.64.988t.592 1.019q.283.516.54 1.046.259.53.49 1.072.231.541.436 1.094.204.552.382 1.114.177.562.326 1.132.15.57.27 1.147.122.576.215 1.158.092.582.157 1.167.064.586.099 1.174t.042 1.177q.006.59-.016 1.178-.023.589-.074 1.176l-2.266 25.903q-.052.587-.132 1.17-.08.584-.188 1.163-.11.579-.246 1.152-.137.573-.302 1.139-.165.565-.357 1.122-.192.557-.412 1.104-.22.546-.466 1.082-.246.535-.518 1.058-.272.522-.569 1.03-.297.51-.62 1.003-.321.493-.667.97-.346.477-.715.937-.368.46-.76.9-.39.44-.802.862-.412.42-.844.821-.432.4-.884.78-.451.378-.92.734-.47.356-.956.689-.486.332-.988.64-.502.31-1.019.593-.516.283-1.046.54-.53.258-1.072.49-.541.231-1.094.436-.552.204-1.114.381-.562.177-1.132.327-.57.15-1.147.27-.576.122-1.158.214-.582.093-1.167.157-.586.065-1.174.1t-1.177.042q-.59.006-1.178-.016-.589-.023-1.176-.074l-51.804-4.533q-.587-.05-1.17-.131-.584-.08-1.163-.189-.58-.108-1.152-.245-.573-.137-1.139-.302-.565-.165-1.122-.357-.557-.193-1.104-.412-.546-.22-1.082-.466-.535-.246-1.058-.518-.522-.272-1.03-.57-.51-.297-1.003-.619-.493-.321-.97-.667-.477-.346-.937-.715-.46-.369-.9-.76-.44-.39-.862-.802-.42-.412-.821-.844-.4-.433-.78-.884-.378-.451-.734-.92-.356-.47-.689-.956-.333-.486-.64-.988-.31-.502-.593-1.019-.283-.516-.54-1.046-.258-.53-.49-1.072-.231-.542-.436-1.094-.204-.553-.381-1.115-.178-.561-.327-1.131-.15-.57-.27-1.147-.122-.576-.215-1.158-.092-.582-.156-1.167-.065-.586-.1-1.174t-.042-1.177q-.006-.59.016-1.178.023-.589.074-1.176l2.266-25.903q.052-.587.132-1.17.08-.584.189-1.163.108-.58.245-1.152.137-.573.302-1.139.165-.566.357-1.122.193-.557.412-1.104.22-.547.466-1.082.246-.535.518-1.058.272-.522.57-1.031.296-.509.618-1.002t.668-.97q.346-.477.715-.937.368-.46.76-.9.39-.44.802-.862.412-.421.844-.821.433-.4.884-.78.451-.378.92-.734.47-.356.956-.69.486-.332.988-.64t1.019-.592q.516-.283 1.046-.54.53-.259 1.072-.49.542-.231 1.094-.436.553-.204 1.115-.382.561-.177 1.131-.326.57-.15 1.147-.27.576-.122 1.158-.215.582-.092 1.167-.157.586-.064 1.174-.1.588-.034 1.177-.04.59-.007 1.178.015.589.023 1.176.074z" fill="#ECF6FE" fill-rule="evenodd"/><g fill="#2D3880"><path d="M616.484 29.007c-2.169 1.187-4.63 2.53-6.125 5.03-2.617 4.356 3.352 10.043 3.616 10.285a.357.357 0 0 0 .446.033c.141-.1.202-.265.132-.43-.024-.045-1.877-4.756-1.455-7.942.146-1.114 1.87-2.204 3.674-3.373 1.663-1.068 3.544-2.271 4.733-3.79 2.613-3.341.502-7.122.478-7.167a.348.348 0 0 0-.418-.158.345.345 0 0 0-.243.374c-.003.029.241 2.398-1.36 4.66-.663.93-1.97 1.65-3.478 2.478z"/><path d="M624.834 31.486a.35.35 0 0 0 .148-.442.353.353 0 0 0-.428-.203c-.357.092-8.738 2.312-9.127 6.016-.269 2.558.694 4.017 1.393 5.091.275.415.512.783.568 1.075.172.847-.586 2.268-.896 2.735a.345.345 0 0 0 .041.433.387.387 0 0 0 .22.11c.072.007.146 0 .207-.036.154-.084 3.632-2.005 3.346-4.794-.107-1.054-.543-1.872-.932-2.584-.594-1.106-1.031-1.91-.112-3.214 1.089-1.529 5.526-4.164 5.572-4.187z"/><path d="M602.209 44.829c-.187.395-.158.812.063 1.193.748 1.293 3.777 2.269 8.523 2.768.645.068 1.32.124 2.026.17 7.613.528 10.683-1.507 10.808-1.594.141-.1.188-.266.132-.43-.057-.148-.221-.237-.398-.213-2.742.441-7.773.17-11.229-.194-3.871-.406-5.822-.883-6.287-1.146.28-.314 1.876-.746 3.808-.915.189-.009.321-.166.326-.352a.36.36 0 0 0-.324-.362c-1.105-.102-6.678-.602-7.448 1.075zM627.855 45.095c-1.563-.165-3.136.456-3.197.478a.343.343 0 0 0-.213.378c.026.16.158.288.316.305.028.003 3.338.38 3.443 2.277.103 1.64-3.569 3.884-4.993 4.606a.352.352 0 0 0-.175.425.364.364 0 0 0 .307.246c.029.003.043.005.073-.006.323-.038 7.906-.87 7.563-5.194-.199-2.665-1.805-3.377-3.124-3.515zM621.947 52.477a.345.345 0 0 0-.107-.368l-1.648-1.417a.382.382 0 0 0-.295-.088c-.015-.002-1.93.283-4.656.297-1.087 0-2.285-.055-3.49-.181-2.695-.284-4.426-.78-4.66-1.033-.021-.074-.018-.102-.002-.115.056-.123.33-.251.494-.29a.36.36 0 0 0 .261-.417.362.362 0 0 0-.405-.285c-1.822.237-2.76.739-2.78 1.494-.024 1.327 3.002 2.33 5.606 2.79.37.068.784.126 1.214.17 4.36.46 10.092-.296 10.151-.304.162-.026.273-.114.317-.253zM608.272 53.898c.138-.07.227-.233.185-.38-.027-.16-.16-.274-.332-.293-.244-.025-2.347-.146-2.629 1.153-.085.392-.007.757.231 1.11.668.957 2.635 1.693 6.04 2.25.4.071.814.13 1.215.171 4.36.458 7.44-.576 7.56-.62a.345.345 0 0 0 .232-.276.379.379 0 0 0-.138-.343l-2.108-1.594a.405.405 0 0 0-.254-.07c-.014 0-1.465.147-3.645.204-.408.014-.927-.012-1.53-.075-2.15-.226-4.494-.816-4.928-1.104.003-.029.023-.084.1-.133z"/><path d="M610.534 61.754c9.981 1.035 15.526-.14 16.675-1.135.4-.358.481-.72.478-.964-.01-.601-.53-1.028-.584-1.062-.133-.114-.337-.107-.48.007a.361.361 0 0 0-.048.466c.048.091.078.223-.128.387-.456.338-4.734 1.046-11.697.672a66.842 66.842 0 0 1-2.961-.24c-6.209-.653-10.652-1.963-11.202-2.521.263-.301 1.924-.655 3.662-.773a.352.352 0 0 0 .328-.365.358.358 0 0 0-.37-.34c-.043-.004-.217-.008-.405-.013-2.842-.128-6.137-.088-6.445 1.323-.103.432-.001.843.264 1.214.67.928 2.747 2.275 12.913 3.344z"/><path d="M629.126 61.135c-.136-.085-.298-.06-.425.041-.016.013-1.685 1.41-6.282 1.841-1.756.159-5.029-.014-9.689-.504-4.674-.49-9.1-1.142-9.157-1.148a.36.36 0 0 0-.405.272.35.35 0 0 0 .23.424c.042.02 4.589 1.583 10.97 2.254 3.054.32 6.061.394 8.924.195 5.342-.354 5.97-2.874 5.996-2.986a.334.334 0 0 0-.162-.389z"/></g></g><g fill="none" stroke="#6F4CFF" stroke-width="3" stroke-linecap="round"><path d="m743.351 56.934 8.167-35.753M767.942 61.864 786.92 49.54"/></g><g fill="#1A0D7C"><path d="m157.24 490.741 13.1-47.67-4.206.516-13.047 47.664 4.153-.51zm24.43-13.055 21.901-14.59-.196-1.601-24.947-10.216.5 4.071 18.665 7.516.02.163-16.439 10.613.497 4.044z"/></g></svg>