<svg width="505" height="467" xmlns:xlink="http://www.w3.org/1999/xlink" xmlns="http://www.w3.org/2000/svg"><defs><clipPath id="d"><use xlink:href="#a"/></clipPath><clipPath id="e"><use xlink:href="#b"/></clipPath><clipPath id="g"><use xlink:href="#c"/></clipPath><path d="M124 248c68.483 0 124-55.517 124-124S192.483 0 124 0 0 55.517 0 124s55.517 124 124 124z" transform="translate(.082)" id="a"/><path d="M133.724 67.086C133.724 30.036 103.789 0 66.862 0 29.935 0 0 30.036 0 67.086c0 37.051 29.935 67.087 66.862 67.087v-32.202c-19.202 0-34.768-15.618-34.768-34.885 0-19.266 15.566-34.884 34.768-34.884 19.202 0 34.768 15.618 34.768 34.884h32.094z" transform="rotate(124 73.106 87.267)" id="b"/><path d="M4.275 0h213.811q.105 0 .209.005.105.005.21.016.104.01.208.025.104.016.207.036.103.02.204.046.102.026.203.056.1.03.199.066.099.035.196.075.097.04.192.085.094.045.187.095.092.05.183.103.09.054.177.112.087.059.171.121.085.063.166.13.081.066.159.136.077.071.152.145.074.074.144.152.071.078.137.159.067.081.129.165.063.085.121.172.059.087.113.177.053.09.103.183.049.092.094.187t.085.192q.041.097.076.196.035.099.066.2.03.1.056.201.025.102.046.205.02.103.036.207.015.104.025.208.011.105.016.21.005.104.005.21v155.012q0 .105-.005.21t-.016.209q-.01.105-.025.209-.016.103-.036.206-.021.103-.046.205-.026.102-.056.202-.031.101-.066.2-.035.098-.076.195-.04.097-.085.192-.045.095-.094.188-.05.092-.103.182-.054.09-.113.177-.058.088-.121.172-.062.084-.129.165-.066.082-.137.159-.07.078-.144.152-.075.075-.152.145-.078.07-.159.137t-.166.129q-.084.063-.171.121-.087.058-.177.112-.091.054-.183.104-.093.049-.187.094-.095.045-.192.085-.097.04-.196.076-.099.035-.199.065-.101.031-.203.056-.101.026-.204.046-.103.021-.207.036-.104.016-.208.026-.105.01-.21.015-.104.005-.209.005H4.276q-.106 0-.21-.005-.105-.005-.21-.015-.104-.01-.208-.026-.104-.015-.207-.036-.103-.02-.205-.046-.101-.025-.202-.056-.1-.03-.2-.065-.098-.036-.195-.076t-.192-.085q-.095-.045-.187-.094-.093-.05-.183-.104-.09-.054-.177-.112t-.172-.121q-.084-.062-.165-.129t-.159-.137q-.078-.07-.152-.145-.074-.074-.145-.152-.07-.077-.137-.159-.066-.081-.129-.165-.062-.084-.12-.172-.059-.087-.113-.177-.054-.09-.103-.182-.05-.093-.095-.188-.044-.095-.085-.192-.04-.097-.075-.195-.035-.099-.066-.2-.03-.1-.056-.202-.025-.102-.046-.205-.02-.103-.036-.206-.015-.104-.025-.209-.01-.104-.016-.209-.005-.105-.005-.21V4.275q0-.105.005-.21.005-.104.016-.209.01-.104.025-.208.016-.104.036-.207.02-.103.046-.205.026-.101.056-.202.03-.1.066-.2.035-.098.075-.195.04-.097.085-.192.045-.095.095-.187.05-.093.103-.183.054-.09.112-.177.059-.087.121-.172.063-.084.13-.165.066-.081.136-.159.071-.078.145-.152t.152-.145q.078-.07.159-.137.081-.066.165-.129.085-.062.172-.12.087-.059.177-.113.09-.054.183-.103.092-.05.187-.095.095-.044.192-.085.097-.04.196-.075.099-.035.2-.066.1-.03.201-.056.102-.025.205-.046.103-.02.207-.036.104-.015.208-.025.105-.01.21-.016Q4.17 0 4.275 0z" id="c"/><filter filterUnits="userSpaceOnUse" color-interpolation-filters="sRGB" id="f"><feFlood flood-opacity="0" result="BackgroundImageFix"/><feColorMatrix in="SourceAlpha" values="0 0 0 0 0 0 0 0 0 0 0 0 0 0 0 0 0 0 127 0"/><feOffset dx="2" dy="6"/><feGaussianBlur stdDeviation="12"/><feColorMatrix values="0 0 0 0 0.101960786 0 0 0 0 0.050980393 0 0 0 0 0.4862745 0 0 0 0.047058824 0"/><feBlend in2="BackgroundImageFix" result="effect0_dropShadow"/><feBlend in="SourceGraphic" in2="effect0_dropShadow" result="shape"/></filter></defs><path d="M305 381c68.483 0 124-55.517 124-124s-55.517-124-124-124-124 55.517-124 124 55.517 124 124 124z" fill="#A1D7D4" fill-rule="evenodd"/><g clip-path="url(#d)" transform="translate(180.918 133)"><path d="M-27.688 82.164c33.564-11.487 77.374-6.381 91.067-41.11 1.006-2.553 1.057-5.493.658-8.208-.43-2.913-1.469-5.817-3.086-8.274-2.103-3.196-8.736-.998-16.566 3.36C29.294 36.33-.455 67.766 23.39 84.779c10.56 7.534 38.328-3.788 45.375-6.27C93.96 69.638 168.03 46.5 162.923 7.9c-.727-5.495-1.603-11.983-5.813-15.572-2.456-2.094-1.243 6.401-1.152 9.635.08 2.813.735 5.62 1.658 8.277.921 2.654 1.891 5.475 3.825 7.507 3.804 3.998 8.04 7.859 13.028 10.204 3.88 1.824 8.433 2.104 12.713 1.898 4.817-.231 9.62-1.436 14.115-3.187 2.793-1.087 10.208-6.118 7.363-5.175-49.556 16.41-41.484 37.487-64.23 72.43-1.674 2.57-5.75 2.216-8.769 2.714-18.258 3.015-36.46 7.551-54.963 7.811-6.219.087 11.13-5.892 17.193-7.281 11.168-2.558 22.645-3.728 34.077-4.464 12.405-.8 24.873-.669 37.293-.136 9.708.416 19.39 1.532 28.998 2.98 4.504.678 8.985 1.754 13.241 3.382 2.588.991 5.175 2.358 7.068 4.388 2.731 2.928 5.2 6.325 6.468 10.128 1.131 3.392.903 7.168.483 10.719-.539 4.551-8.263 7.735-10.818 8.411-18.686 4.944-37.516 9.523-56.589 12.643-28.168 4.608-56.555 7.908-84.977 10.516-38.094 3.495-70.575-10.381-108.002-.601-11.169 2.919-34.826 22.115-32.945 10.689 6.162-37.428 64.51-81.117 103.482-77.091 21.541 2.225 68.264 17.918 62.788 49.898-2.922 17.066-43.143 22.835-50.84 6.572-11.517-24.331 22.502-74.107 36.547-90.289 6.048-6.968 16.995-26.408 20.956-18.065 18.934 39.888 20.66 85.9 31.564 128.706 7.51 29.472 4.266 31.49 34.622 19.796 14.131-5.444 27.72-12.229 41.31-18.915 14.545-7.156 29.884-13.146 43.064-22.595 49.507-35.497 42.598-27.684 57.401-65.21" fill="none" stroke="#FFF"/></g><g stroke="#82CAC7" stroke-width="3.947" stroke-linecap="round" stroke-linejoin="round"><path d="m445.406 117.82 30.79-8.25c2.118-.568 4.31.684 4.871 2.78l6.13 22.877c.562 2.097-.71 4.277-2.827 4.844l-30.79 8.25c-2.118.568-4.31-.684-4.871-2.78l-6.13-22.877c-.562-2.097.71-4.277 2.827-4.844z" fill="#FFF" fill-rule="evenodd"/><path d="M481.067 112.35 465.4 130.853l-22.82-8.188" fill="none"/></g><path d="M202.375 315.33c-8.335-36.1-44.259-58.633-80.24-50.326-35.98 8.307-58.391 44.307-50.057 80.408 8.335 36.1 44.26 58.633 80.24 50.326l-7.244-31.376c-18.71 4.32-37.39-7.397-41.725-26.17-4.334-18.772 7.32-37.492 26.03-41.812s37.39 7.397 41.725 26.17l31.271-7.22z" fill="#9FDEEB"/><g clip-path="url(#e)" fill="none" stroke="#FFF" transform="rotate(-137 161.955 203.227)"><path d="M67.875 84.465c16.89-8.384 28.111-9.351 37.978 4.214.37.509-1.667.226-2.267-.088-1.335-.698-2.403-1.715-3.283-2.813-.665-.831-1-1.866-1.281-2.887-.322-1.17-.725-2.373-.519-3.65.638-3.945 1.789-7.911 3.024-11.853.584-1.864 1.256-3.77 2.42-5.519.732-1.1 1.947-1.994 3.116-2.805.772-.537 1.703-.862 2.598-1.161 3.442-1.152 6.88-2.515 10.388-3.183 1.607-.306 3.19-.014 4.639.322 3.064.712-1.03 4.227-2.11 4.704-7.644 3.366-20.251 1.38-18.79-6.956.33-1.889 1.403-3.783 2.533-5.569.458-.723 1.283-1.32 2.105-1.763 3.956-2.139 8.171-3.798 12.13-5.932.328-.176.587-.6.505-.878a7.06 7.06 0 0 0-1.582-2.772 25.377 25.377 0 0 0-4.496-3.829c-3.2-2.156-6.383-4.383-10.07-5.983-1.068-.464-2.542-.256-3.859-.066-3.914.566-15.109 10.662-23.09 11.297-9.514.758-15.9-7.818-19.792-5.303"/><path d="M82.595 165.748c15.333-13.257 28.54-17.42 40.43.499.447.673-1.729.093-2.395-.362-1.482-1.015-2.72-2.396-3.767-3.856-.792-1.104-1.26-2.424-1.669-3.721-.47-1.488-1.027-3.024-.952-4.583.232-4.818 1.001-9.605 1.862-14.353.407-2.245.902-4.531 1.93-6.569.649-1.283 1.828-2.254 2.968-3.129.753-.578 1.695-.877 2.603-1.147 3.494-1.042 6.958-2.347 10.575-2.781 1.657-.2 3.354.34 4.917.92 3.302 1.224-.613 5.123-1.697 5.592-7.667 3.316-21.152-.559-20.543-10.727.138-2.304 1.056-4.532 2.046-6.618.4-.846 1.203-1.492 2.018-1.95 3.924-2.208 8.174-3.792 12.102-5.993.325-.182.55-.679.433-1.032a11.666 11.666 0 0 0-1.972-3.613 37.97 37.97 0 0 0-5.157-5.25c-3.607-3.031-7.204-6.148-11.26-8.545-1.176-.695-2.703-.602-4.068-.514-8.887.576-17.817 8.362-24.833 13.295"/></g><path d="M4.275 0h213.811q.105 0 .209.005.105.005.21.016.104.01.208.025.104.016.207.036.103.02.204.046.102.026.203.056.1.03.199.066.099.035.196.075.097.04.192.085.094.045.187.095.092.05.183.103.09.054.177.112.087.059.171.121.085.063.166.13.081.066.159.136.077.071.152.145.074.074.144.152.071.078.137.159.067.081.129.165.063.085.121.172.059.087.113.177.053.09.103.183.049.092.094.187t.085.192q.041.097.076.196.035.099.066.2.03.1.056.201.025.102.046.205.02.103.036.207.015.104.025.208.011.105.016.21.005.104.005.21v155.012q0 .105-.005.21t-.016.209q-.01.105-.025.209-.016.103-.036.206-.021.103-.046.205-.026.102-.056.202-.031.101-.066.2-.035.098-.076.195-.04.097-.085.192-.045.095-.094.188-.05.092-.103.182-.054.09-.113.177-.058.088-.121.172-.062.084-.129.165-.066.082-.137.159-.07.078-.144.152-.075.075-.152.145-.078.07-.159.137t-.166.129q-.084.063-.171.121-.087.058-.177.112-.091.054-.183.104-.093.049-.187.094-.095.045-.192.085-.097.04-.196.076-.099.035-.199.065-.101.031-.203.056-.101.026-.204.046-.103.021-.207.036-.104.016-.208.026-.105.01-.21.015-.104.005-.209.005H4.276q-.106 0-.21-.005-.105-.005-.21-.015-.104-.01-.208-.026-.104-.015-.207-.036-.103-.02-.205-.046-.101-.025-.202-.056-.1-.03-.2-.065-.098-.036-.195-.076t-.192-.085q-.095-.045-.187-.094-.093-.05-.183-.104-.09-.054-.177-.112t-.172-.121q-.084-.062-.165-.129t-.159-.137q-.078-.07-.152-.145-.074-.074-.145-.152-.07-.077-.137-.159-.066-.081-.129-.165-.062-.084-.12-.172-.059-.087-.113-.177-.054-.09-.103-.182-.05-.093-.095-.188-.044-.095-.085-.192-.04-.097-.075-.195-.035-.099-.066-.2-.03-.1-.056-.202-.025-.102-.046-.205-.02-.103-.036-.206-.015-.104-.025-.209-.01-.104-.016-.209-.005-.105-.005-.21V4.275q0-.105.005-.21.005-.104.016-.209.01-.104.025-.208.016-.104.036-.207.02-.103.046-.205.026-.101.056-.202.03-.1.066-.2.035-.098.075-.195.04-.097.085-.192.045-.095.095-.187.05-.093.103-.183.054-.09.112-.177.059-.087.121-.172.063-.084.13-.165.066-.081.136-.159.071-.078.145-.152t.152-.145q.078-.07.159-.137.081-.066.165-.129.085-.062.172-.12.087-.059.177-.113.09-.054.183-.103.092-.05.187-.095.095-.044.192-.085.097-.04.196-.075.099-.035.2-.066.1-.03.201-.056.102-.025.205-.046.103-.02.207-.036.104-.015.208-.025.105-.01.21-.016Q4.17 0 4.275 0z" fill="#FAF9F4" fill-rule="evenodd" filter="url(#f)" transform="translate(155.413 196.86)"/><g clip-path="url(#g)" transform="translate(155.413 196.86)"><path d="M0 0h222.361v21.38H0V0z" fill="#FFF0E4" fill-rule="evenodd"/></g><path d="M341 209a3 3 0 1 0 0-6 3 3 0 0 0 0 6zM223 209a3 3 0 1 0 0-6 3 3 0 0 0 0 6zM310 209a3 3 0 1 0 0-6 3 3 0 0 0 0 6zM193 209a3 3 0 1 0 0-6 3 3 0 0 0 0 6z" fill="#1A0D7C" fill-rule="evenodd"/><path d="M192.716 206.57c2.425-3.223 4.357-6 4.357-11.176 0-7.382-5.352-12.913-12.109-12.398-6.757.515-11.852 6.9-11.379 14.262M309.274 206.57c2.425-3.223 4.358-6 4.358-11.176 0-7.382-5.352-12.913-12.11-12.398-6.757.515-11.851 6.9-11.379 14.262M222.682 206.57c2.425-3.223 4.357-6 4.357-11.176 0-7.382-5.352-12.913-12.109-12.398-6.757.515-11.852 6.9-11.38 14.262M339.24 206.57c2.425-3.223 4.357-6 4.357-11.176 0-7.382-5.352-12.913-12.109-12.398-6.757.515-11.852 6.9-11.38 14.262" fill="none" stroke="#1A0D7C" stroke-width="2"/><path d="m174.853 252 29.408.18M238.799 252l27.795.18M175.634 270.686c8.753.11 17.507.218 26.26.327M239.868 270.686l24.588.327M176.113 286.784l31.33-.228M239.868 286.784l29.933-.228M176.096 302.288l27.173.303M239.868 302.288l25.657.303M177.954 323.105l19.338.899M239.868 324.174l18.173.899M307.589 252.06l49.885.443M308.012 273.396l51.314 1.069M308.493 299.174c30.764-.838 13.643-1.07 51.338 1.776M309.543 324.238l50.122.892" fill="none" stroke="#1A0D7C" stroke-width="2" stroke-linecap="round"/><path d="M429.108 321.94c21.234 1.114 39.35-15.198 40.462-36.431 1.113-21.234-15.198-39.35-36.432-40.463-21.234-1.112-39.35 15.199-40.462 36.433-1.113 21.234 15.198 39.349 36.432 40.462z" fill="#FFF" fill-rule="evenodd"/><path d="m466.77 320.366.242-4.627c.268-5.11-3.578-9.465-8.59-9.727l-18.148-.952c-5.012-.262-9.292 3.667-9.56 8.777l-.242 4.626M450.33 297.023a9.087 9.087 0 1 0 .95-18.148 9.087 9.087 0 0 0-.95 18.148z" fill="none" stroke="#82CAC7" stroke-width="5" stroke-linecap="round" stroke-linejoin="round"/><path d="M464.281 323.652a8.5 8.5 0 1 0 .89-16.977 8.5 8.5 0 0 0-.89 16.977z" fill="#EEEFF6" fill-rule="evenodd"/><path d="m482.674 319.876.199-3.796a7.598 7.598 0 0 0-5.293-7.643M471.204 285.266a7.598 7.598 0 0 1 5.307 7.652 7.598 7.598 0 0 1-6.078 7.056" fill="none" stroke="#9FDEEB" stroke-width="3.801" stroke-linecap="round" stroke-linejoin="round"/><path d="m468.014 320.847.199-3.795a7.598 7.598 0 0 0-5.293-7.643" fill="none" stroke="#82CAC7" stroke-width="3.801" stroke-linecap="round" stroke-linejoin="round"/><g><path d="m409.461 259.184 14.459-3.874q.304-.081.612-.148.308-.066.618-.118.311-.05.624-.087.313-.036.627-.057.314-.02.63-.025.314-.005.629.005.314.01.628.036.314.026.626.067.313.04.622.097.31.057.617.128.307.072.61.158.302.087.6.188t.591.217q.293.115.58.245t.567.274q.28.144.553.302.272.157.537.328.265.17.52.354.257.183.503.379.247.196.484.403.236.208.463.427.226.219.441.449.216.23.42.47.203.24.395.49.191.25.37.508.18.26.346.527.166.267.32.542.152.276.292.558.139.282.264.571.125.29.236.584.111.295.208.595.096.3.177.604l3.32 12.392-26.848 7.194q-.304.082-.612.148-.308.066-.619.118-.31.051-.623.087t-.627.057q-.314.02-.63.025-.314.006-.629-.005-.314-.01-.628-.036-.314-.026-.626-.067-.313-.04-.622-.097-.31-.056-.617-.128-.307-.071-.61-.158-.302-.086-.6-.188-.299-.1-.591-.217-.293-.115-.58-.245t-.567-.274q-.28-.144-.553-.301-.273-.158-.537-.329-.265-.17-.52-.354-.257-.183-.503-.379-.247-.196-.484-.403-.237-.208-.463-.427-.226-.219-.441-.449-.216-.23-.42-.47-.203-.24-.395-.49-.191-.25-.37-.508-.18-.26-.346-.527-.166-.267-.32-.542-.152-.275-.292-.558-.139-.282-.264-.571-.125-.29-.236-.584-.111-.295-.208-.594-.096-.3-.177-.604l-.001-.002q-.081-.304-.148-.612-.066-.308-.118-.619-.051-.31-.087-.623t-.057-.627q-.02-.315-.025-.63-.006-.314.005-.629.01-.315.036-.629.026-.313.067-.626.04-.312.097-.622t.128-.616q.072-.307.158-.61.086-.302.188-.6.1-.299.217-.592.115-.292.245-.58.13-.286.274-.566.144-.28.301-.553.158-.273.329-.537.17-.265.354-.521.183-.256.379-.503.196-.246.403-.483.208-.237.427-.463.219-.226.449-.442.23-.215.47-.419.24-.203.49-.395t.508-.371q.26-.18.527-.345.267-.167.542-.32.276-.153.558-.292.282-.14.571-.264.29-.126.584-.237.295-.11.594-.207.3-.096.604-.178z" fill="#FFF0E4" fill-rule="evenodd"/><path d="m408.463 269.672 21.54-5.452M416.835 274.675l14.236-3.2" fill="none" stroke="#82CAC7" stroke-width="2" stroke-linecap="round"/></g><g><path d="m405.445 312.298 4.095 3.436-43.391 59.209q-.114.155-.235.303-.121.15-.25.292t-.265.278q-.135.136-.278.264-.143.129-.292.25-.148.121-.304.234-.154.114-.315.219-.16.105-.326.202-.166.097-.336.185-.17.089-.346.168-.174.08-.353.15-.179.07-.36.132-.182.061-.367.113-.185.052-.372.094-.188.043-.377.075-.19.033-.38.056t-.382.036q-.191.013-.383.017-.192.003-.384-.003t-.383-.023q-.192-.016-.382-.042-.19-.026-.379-.061-.188-.036-.375-.081-.187-.046-.37-.1-.185-.055-.366-.119-.18-.064-.358-.137-.178-.073-.351-.156-.174-.082-.343-.173-.169-.09-.333-.19t-.323-.207q-.159-.108-.312-.224t-.3-.24h-.002q-.147-.124-.288-.255-.14-.13-.274-.268t-.26-.282q-.127-.145-.246-.296-.118-.15-.23-.307-.11-.156-.214-.319-.102-.162-.197-.329-.095-.167-.18-.339-.086-.171-.163-.347-.077-.176-.145-.356-.068-.18-.126-.362-.059-.183-.108-.368-.05-.186-.089-.374-.04-.188-.07-.377-.03-.19-.05-.381-.02-.19-.03-.383-.01-.191-.011-.383-.001-.192.008-.384.01-.192.028-.383.02-.19.048-.38.029-.19.067-.379.038-.188.086-.374.048-.186.106-.369.057-.183.124-.363.066-.18.142-.357.076-.176.16-.348.086-.173.179-.34.093-.168.195-.33.102-.163.212-.32.11-.158.228-.31.118-.151.244-.296.125-.146.258-.284l50.774-53.014z" fill="#1A0D7C" fill-rule="evenodd"/><path d="M407.77 312.854c15.83 13.283 39.43 11.218 52.714-4.612 13.283-15.83 11.218-39.43-4.612-52.714-15.83-13.283-39.43-11.218-52.714 4.612-13.283 15.83-11.218 39.43 4.612 52.714z" fill="none" stroke="#1A0D7C" stroke-width="8"/><path d="m402.625 310.505 9.828 8.247q.12.101.231.214.11.112.209.235.098.123.184.255.087.132.16.272.072.14.13.286.06.146.103.297.045.151.074.306.029.155.042.312.014.157.012.314-.001.158-.019.314-.017.157-.05.31-.032.155-.079.305t-.11.295q-.06.145-.137.283-.075.138-.164.268-.09.13-.19.251l-.002.001q-.101.121-.214.231-.112.11-.235.209-.123.099-.255.185t-.271.158q-.14.073-.286.132-.147.059-.298.103-.15.044-.306.073-.155.029-.311.043-.157.013-.315.012-.157-.002-.314-.02-.156-.016-.31-.049-.155-.032-.305-.08-.15-.047-.295-.109t-.283-.138q-.138-.075-.268-.164-.13-.09-.25-.19l-9.83-8.248q-.12-.1-.23-.213-.11-.113-.209-.236-.099-.123-.185-.255t-.158-.271q-.073-.14-.132-.286-.059-.146-.103-.298-.044-.15-.073-.306-.029-.154-.043-.311-.013-.157-.012-.315.002-.157.02-.314.016-.156.049-.31.032-.155.08-.305.047-.15.109-.295t.137-.283q.076-.138.165-.268.09-.13.19-.25l.002-.002q.1-.12.213-.23.113-.111.236-.21.123-.098.255-.184t.271-.16q.14-.072.286-.13.146-.06.298-.103.15-.044.306-.073.154-.03.311-.043.157-.014.315-.012.157.002.314.019.156.017.31.05.155.032.305.079t.295.11q.145.061.283.137.138.076.268.165.13.089.25.19z" fill="#1A0D7C" fill-rule="evenodd"/></g><g fill="#1A0D7C"><path d="m95.444 248.672 20.83-19.177-2.2-1.025-20.801 19.19 2.171 1.012zm-12.522-19.61 9.346 11.822.986-2.114-7.033-8.706.026-.056 11.468-.804.993-2.129-15.396 1.15-.39.837zM82.617 276.365l-15.064.44.986-2.115 11.205-.166.04-.085L73 265.124l.992-2.129 9.016 12.533-.39.837z"/></g><g><path d="M192.84 384.686a.777.777 0 0 1 1.38-.194l2.827 4.148 5.021.028a.777.777 0 0 1 .61 1.253l-3.072 3.967 1.529 4.78a.777.777 0 0 1-1.003.969l-4.725-1.696-4.075 2.933a.778.778 0 0 1-1.231-.655l.152-5.016-4.047-2.967a.777.777 0 0 1 .241-1.373l4.82-1.41 1.573-4.767z" fill="#1A0D7C"/><path d="M213.628 381.765a.777.777 0 0 1 1.38-.194l2.827 4.147 5.021.028a.777.777 0 0 1 .61 1.254l-3.072 3.967 1.529 4.78a.777.777 0 0 1-1.003.968l-4.725-1.695-4.075 2.932a.778.778 0 0 1-1.231-.655l.151-5.016-4.046-2.966a.777.777 0 0 1 .241-1.373l4.819-1.411 1.574-4.766zM234.415 378.843a.777.777 0 0 1 1.381-.194l2.827 4.148 5.02.028a.777.777 0 0 1 .611 1.253l-3.072 3.967 1.528 4.78a.777.777 0 0 1-1.003.969l-4.725-1.696-4.074 2.932a.778.778 0 0 1-1.231-.654l.151-5.016-4.046-2.967a.777.777 0 0 1 .24-1.373l4.82-1.41 1.573-4.767z" fill="#9FDEEB"/></g><g fill="#1A0D7C"><path d="m367.478 85.95-.601 1.47-3.765-.663-1.672 4.167 4.053.715-.659 1.46-3.967-.7-2.28 5.504-1.817-.32 2.25-5.509-3.606-.636-2.221 5.514-1.804-.318 2.222-5.514-3.78-.666.558-1.478 3.823.674 1.643-4.173-3.996-.705.573-1.475 3.996.704 2.234-5.585 1.818.32-2.234 5.586 3.635.64 2.263-5.58 1.775.313-2.235 5.586 3.794.669zm-6.155.491-3.636-.64-1.715 4.159 3.664.646 1.687-4.165z"/></g><g><path d="M201.463 67.833s12.696-2.717 19.277-4.806c3.636-1.155 11.096-3.958 11.096-3.958s3.407 14.353 6.8 22.148c2.973 6.828 7.814 16.061 7.814 16.061l-33.942 9.017s-1.857-10.37-3.856-15.468c-2.067-5.267-7.189-22.994-7.189-22.994z" fill="#6F4CFF" fill-rule="evenodd"/><path d="m210.094 57.87 8.178-2.5s.914 4.404 1.913 7.67c.999 3.267 3.088 8.687 3.088 8.687l-8.178 2.5s-1.449-2.822-2.413-5.977c-.964-3.154-2.588-10.38-2.588-10.38z" fill="#1A0D7C" fill-rule="evenodd"/><path d="m216.699 85.445 12.53-3.639M220.844 93.135c2.414-1.157 5.083-1.545 7.496-2.702" fill="none" stroke="#FFF0E4" stroke-width="2" stroke-linecap="round"/><g><path d="M141.999 108.618s13.059-.317 19.822-1.706c3.737-.768 11.45-2.777 11.45-2.777s.733 15.333 3.293 23.44c2.243 7.101 8.54 16.448 8.54 16.448l-34.221 4.9s-3.911-10.002-5.367-15.28c-1.505-5.456-3.517-25.025-3.517-25.025z" fill="#6F4CFF" fill-rule="evenodd"/><path d="m151.772 100.67 8.396-1.632s.448 4.476 1.1 7.83c.652 3.352 2.163 8.96 2.163 8.96l-8.395 1.633s-1.145-2.959-1.775-6.197c-.629-3.238-1.489-10.594-1.489-10.594z" fill="#1A0D7C" fill-rule="evenodd"/><path d="m153.202 128.08 14.751-2.577M157.697 137.018c2.725-.928 5.63-1.064 8.356-1.991" fill="none" stroke="#FFF0E4" stroke-width="2" stroke-linecap="round"/></g></g><g fill="none" stroke="#A1D7D4" stroke-width="3" stroke-linecap="round" stroke-linejoin="round"><path d="m350.133 413.588-8.15 20.937M382.63 417.994c2.151 6.013 9.431 19.456 11.582 25.47M398.973 384.041l24.019 5.296"/></g></svg>