<svg width="561" height="364" xmlns="http://www.w3.org/2000/svg"><path d="M105.499 87.5h434.002q.491 0 .981.024.491.024.979.072.489.048.974.12.486.072.968.168.481.096.957.215.477.12.946.262.47.143.932.308.463.165.916.353.454.188.898.398.443.21.876.441.433.232.855.484.421.253.829.525.408.273.802.566.395.292.774.604.38.311.743.64.364.33.711.678.348.347.677.71.33.364.641.744.312.38.604.774.293.394.565.802.273.408.526.83.252.42.483.853.232.434.442.877.21.444.398.898.187.453.353.915.165.463.308.933.142.47.262.946.119.476.215.957.095.482.168.968.072.485.12.974.048.488.072.979.024.49.024.981v235.002q0 .491-.024.981-.024.491-.072.979-.048.489-.12.974-.073.486-.168.968-.096.481-.215.957-.12.477-.262.946-.143.47-.308.932-.166.463-.353.916-.188.454-.398.898-.21.443-.442.876-.231.433-.483.855-.253.421-.526.829-.272.408-.565.802-.292.395-.604.774-.311.38-.641.743-.329.364-.677.711-.347.348-.711.677-.363.33-.743.641-.379.312-.774.604-.394.293-.802.566-.408.272-.83.525-.421.252-.854.484-.433.231-.876.441-.444.21-.898.398-.453.188-.916.353-.462.165-.932.308-.469.142-.946.262-.476.119-.957.215-.482.095-.968.168-.485.072-.974.12-.488.048-.979.072-.49.024-.981.024H105.499q-.49 0-.981-.024-.49-.024-.98-.072-.488-.048-.974-.12-.485-.073-.967-.168-.481-.096-.957-.215-.477-.12-.946-.262-.47-.143-.933-.308-.462-.165-.915-.353-.454-.188-.898-.398-.443-.21-.876-.441-.433-.232-.855-.484-.42-.253-.829-.525-.408-.273-.802-.566-.395-.292-.774-.604-.38-.311-.744-.641-.363-.329-.71-.677-.348-.347-.677-.711-.33-.363-.641-.743-.312-.379-.604-.774-.293-.394-.566-.802-.272-.408-.525-.829-.252-.422-.484-.855-.231-.433-.44-.876-.21-.444-.399-.898-.188-.453-.353-.916-.165-.462-.308-.932-.142-.469-.262-.946-.119-.476-.215-.957-.096-.482-.168-.968-.072-.485-.12-.974-.048-.488-.072-.979-.024-.49-.024-.981V107.499q0-.49.024-.981.024-.49.072-.98.048-.488.12-.974.072-.485.168-.967.096-.481.215-.957.12-.477.262-.946.143-.47.308-.933.165-.462.353-.915.188-.454.398-.898.21-.443.441-.876.232-.433.484-.855.253-.42.525-.829.273-.408.566-.802.292-.395.604-.774.311-.38.64-.744.33-.363.678-.71.347-.348.71-.677.364-.33.744-.641.38-.312.774-.604.394-.293.802-.566.408-.272.83-.525.42-.252.853-.484.434-.231.877-.44.444-.21.898-.399.453-.188.915-.353.463-.165.933-.308.47-.142.946-.262.476-.119.957-.215.482-.096.968-.168.485-.072.974-.12.488-.048.979-.072.49-.024.981-.024z" fill="#1A0D7C" fill-rule="evenodd"/><path d="M82.499 65.5h442.002q.393 0 .785.02.392.019.783.057.391.039.78.096.388.058.773.134.385.077.766.172.381.096.757.21.376.114.746.246.37.133.733.283.362.15.717.318t.702.353q.346.185.683.387.337.202.664.42.326.219.642.452.315.234.619.484.303.249.594.513.291.263.569.541.278.278.541.569.264.29.513.594.25.304.484.62.233.315.452.641.218.327.42.664.202.337.387.683.185.347.353.702.168.355.318.717.15.363.283.733.132.37.246.746.114.376.209.757.096.38.173.766.076.385.134.773.057.389.096.78.038.39.058.783.019.392.019.785v243.002q0 .393-.019.785-.02.392-.058.783-.039.391-.096.78-.058.388-.134.773-.077.385-.173.766-.095.381-.209.757-.114.376-.246.746-.133.37-.283.733-.15.362-.318.717-.168.356-.353.702-.185.346-.387.683-.202.337-.42.664-.219.326-.453.642-.234.315-.483.619-.249.303-.513.594-.263.291-.541.569-.278.278-.569.541-.291.264-.594.513-.304.25-.619.483-.316.234-.643.453-.326.218-.663.42-.337.202-.683.387-.347.185-.702.353-.355.168-.717.318-.363.15-.733.283-.37.132-.746.246-.376.114-.757.21-.381.095-.766.172-.385.076-.773.134-.389.057-.78.096-.391.038-.783.058-.392.019-.785.019H82.499q-.393 0-.785-.019-.392-.02-.783-.058-.391-.039-.78-.096-.388-.058-.773-.134-.385-.077-.766-.172-.381-.096-.757-.21-.376-.114-.746-.246-.37-.133-.733-.283-.362-.15-.717-.318-.356-.168-.702-.353-.346-.185-.683-.387-.337-.202-.664-.42-.326-.219-.642-.453-.315-.234-.619-.483-.303-.249-.594-.513-.291-.263-.569-.541-.278-.278-.541-.569-.264-.291-.513-.594-.25-.304-.484-.619-.233-.316-.452-.642-.218-.327-.42-.664-.202-.337-.387-.683-.185-.347-.353-.702-.168-.355-.318-.717-.15-.363-.283-.733-.132-.37-.246-.746-.114-.376-.21-.757-.095-.381-.172-.766-.076-.385-.134-.773-.057-.389-.096-.78-.038-.391-.058-.783-.019-.392-.019-.785V81.499q0-.393.02-.785.019-.392.057-.783.039-.391.096-.78.058-.388.134-.773.077-.385.172-.766.096-.381.21-.757.114-.376.246-.746.133-.37.283-.733.15-.362.318-.717.168-.356.353-.702.185-.346.387-.683.202-.337.42-.664.219-.326.452-.642.234-.315.484-.619.249-.303.513-.594.263-.291.541-.569.278-.278.569-.541.29-.264.594-.513.304-.25.62-.484.315-.233.641-.452.327-.218.664-.42.337-.202.683-.387.347-.185.702-.353.355-.168.717-.318.363-.15.733-.283.37-.132.746-.246.376-.114.757-.21.38-.095.766-.172.385-.076.773-.134.389-.057.78-.096.39-.038.783-.058.392-.019.785-.019z" fill="#FCF9FF" fill-rule="evenodd"/><path d="m48.5 39.5-12-38M32.5 57.5c-11.215-1.607-22.204-3.81-31-5" fill="none" stroke="#1A0D7C" stroke-width="3" stroke-linecap="round"/></svg>