<?xml version="1.0" encoding="utf-8"?>
<svg width="48px" height="48px" viewbox="0 0 48 48" version="1.1" xmlns:xlink="http://www.w3.org/1999/xlink" xmlns="http://www.w3.org/2000/svg">
  <g id="icon48clock-copy-4">
    <g id="Group" transform="translate(10 10)">
      <path d="M9 18C13.9706 18 18 13.9706 18 9C18 4.02944 13.9706 0 9 0C4.02944 0 0 4.02944 0 9C0 13.9706 4.02944 18 9 18Z" transform="translate(0 9)" id="Oval" fill="none" fill-rule="evenodd" stroke="#82CAC7" stroke-width="3" />
      <path d="M9 18C13.9706 18 18 13.9706 18 9C18 4.02944 13.9706 0 9 0C4.02944 0 0 4.02944 0 9C0 13.9706 4.02944 18 9 18Z" transform="translate(11 9)" id="Oval-Copy" fill="none" fill-rule="evenodd" stroke="#82CAC7" stroke-width="3" />
      <path d="M9 18C13.9706 18 18 13.9706 18 9C18 4.02944 13.9706 0 9 0C4.02944 0 0 4.02944 0 9C0 13.9706 4.02944 18 9 18Z" transform="translate(5 0)" id="Oval-Copy-2" fill="none" fill-rule="evenodd" stroke="#82CAC7" stroke-width="3" />
    </g>
  </g>
</svg>