<?xml version="1.0" encoding="utf-8"?>
<svg width="48px" height="48px" viewbox="0 0 48 48" version="1.1" xmlns:xlink="http://www.w3.org/1999/xlink" xmlns="http://www.w3.org/2000/svg">
  <g id="icon48eye-copy-5">
    <path d="M38.1122 10.0655C28.052 1.31149 12.9589 1.31149 2.89879 10.0655C2.16969 10.7 1.06431 10.6232 0.429862 9.89413C-0.204585 9.16502 -0.127848 8.05965 0.601258 7.4252C11.9786 -2.47507 29.0323 -2.47507 40.4097 7.4252C41.1388 8.05965 41.2155 9.16502 40.5811 9.89413C39.9467 10.6232 38.8413 10.7 38.1122 10.0655ZM31.9449 16.3096C25.3605 10.8956 15.7922 10.8956 9.20784 16.3096C8.46131 16.9234 7.3585 16.8159 6.74466 16.0693C6.13082 15.3228 6.2384 14.22 6.98493 13.6061C14.861 7.13006 26.2918 7.13006 34.1678 13.6061C34.9144 14.22 35.022 15.3228 34.4081 16.0693C33.7943 16.8159 32.6915 16.9234 31.9449 16.3096ZM15.359 22.6206C18.4446 20.4565 22.5841 20.4565 25.6697 22.6206C26.461 23.1756 27.5524 22.984 28.1073 22.1927C28.6623 21.4014 28.4707 20.3101 27.6794 19.7551C23.3876 16.745 17.6411 16.745 13.3493 19.7551C12.558 20.3101 12.3664 21.4014 12.9214 22.1927C13.4763 22.984 14.5677 23.1756 15.359 22.6206ZM21.7429 29.2328C21.0595 29.9162 19.9515 29.9162 19.268 29.2328C18.5846 28.5494 18.5846 27.4413 19.268 26.7579C19.9515 26.0745 21.0595 26.0745 21.7429 26.7579C22.4263 27.4413 22.4263 28.5494 21.7429 29.2328Z" transform="translate(3 9)" id="Combined-Shape" fill="#82CAC7" fill-rule="evenodd" stroke="none" />
  </g>
</svg>