<?xml version="1.0" encoding="utf-8"?>
<svg width="48px" height="48px" viewbox="0 0 48 48" version="1.1" xmlns:xlink="http://www.w3.org/1999/xlink" xmlns="http://www.w3.org/2000/svg">
  <g id="icon48clock-copy-6">
    <path d="M26 13.0909C26 23.2727 13 32 13 32C13 32 0 23.2727 0 13.0909C1.06986e-07 5.861 5.8203 -3.22974e-16 13 0C20.1797 3.22974e-16 26 5.861 26 13.0909L26 13.0909Z" transform="translate(11 8)" id="Path" fill="none" fill-rule="evenodd" stroke="#1A0D7C" stroke-width="3" stroke-linecap="round" stroke-linejoin="round" />
    <path d="M4.33333 8.72727C6.72657 8.72727 8.66667 6.77361 8.66667 4.36364C8.66667 1.95367 6.72657 0 4.33333 0C1.9401 0 0 1.95367 0 4.36364C0 6.77361 1.9401 8.72727 4.33333 8.72727Z" transform="translate(19.666666 16.727272)" id="Oval" fill="none" fill-rule="evenodd" stroke="#82CAC7" stroke-width="3" stroke-linecap="round" stroke-linejoin="round" />
  </g>
</svg>