<?xml version="1.0" encoding="utf-8"?>
<svg width="88px" height="88px" viewbox="0 0 88 88" version="1.1" xmlns:xlink="http://www.w3.org/1999/xlink" xmlns="http://www.w3.org/2000/svg">
  <g id="iconandroid-copy-7">
    <path d="M66.4997 35.4398L64.6022 38.5484C64.2086 39.1935 64.0563 39.9608 64.1737 40.7063L64.7393 44.2975C64.9583 45.6889 64.3827 47.0759 63.243 47.9042L60.3016 50.0414C59.689 50.4866 59.2529 51.1377 59.0749 51.8726L58.2183 55.4084C57.8873 56.7741 56.8272 57.8332 55.4608 58.1636L51.9214 59.0192C51.48 59.1259 51.0688 59.3252 50.7143 59.5996L50.7143 72.9596C50.7143 75.721 48.4757 77.9596 45.7143 77.9596C44.8207 77.9596 43.9435 77.7201 43.1738 77.2661L36.7628 73.4842C34.8819 72.3746 32.5467 72.3746 30.6657 73.4842L24.2547 77.2661C21.8763 78.6692 18.8108 77.8785 17.4078 75.5C16.9538 74.7304 16.7143 73.8531 16.7143 72.9596L16.7143 59.9468C16.2891 59.491 15.7363 59.1659 15.1255 59.0182L11.5861 58.1625C10.2199 57.8321 9.15971 56.7731 8.82875 55.4072L7.97232 51.8716C7.79424 51.1363 7.35815 50.4851 6.74549 50.04L3.80511 47.9031C2.66522 47.0749 2.08973 45.6875 2.30908 44.2961L2.87464 40.7062C2.99212 39.9601 2.83986 39.193 2.44628 38.5481L0.548745 35.4393C-0.182928 34.2404 -0.182928 32.7425 0.548826 31.5438L2.44657 28.4348C2.84013 27.7899 2.99244 27.0227 2.87501 26.2771L2.3094 22.6858C2.09039 21.2945 2.66596 19.9075 3.80564 19.0792L6.74703 16.942C7.35964 16.4968 7.79577 15.8457 7.97378 15.1108L8.8304 11.575C9.16139 10.2093 10.2215 9.15018 11.5879 8.81977L15.1273 7.96423C15.8638 7.78621 16.516 7.35027 16.9615 6.73826L19.1005 3.80062C19.9294 2.66202 21.3167 2.08741 22.708 2.30652L26.302 2.87157C27.0495 2.98925 27.8187 2.83687 28.465 2.44312L31.577 0.54731C32.7758 -0.182474 34.2732 -0.182474 35.4717 0.547532L38.5843 2.44343C39.2302 2.83709 39.9995 2.9895 40.7471 2.87186L44.3429 2.30673C45.7337 2.08886 47.1205 2.66297 47.9493 3.80093L50.0887 6.73917C50.5344 7.35118 51.1866 7.78714 51.923 7.96515L55.4624 8.8209C56.8286 9.15133 57.8888 10.2103 58.2197 11.5762L59.0762 15.1118C59.2543 15.8471 59.6903 16.4983 60.3029 16.9433L63.2436 19.0801C64.3835 19.9083 64.9589 21.2957 64.7396 22.6871L64.174 26.277C64.0566 27.0231 64.2088 27.7902 64.6024 28.4351L66.4997 31.5436C67.2318 32.7426 67.2318 34.2407 66.4997 35.4398ZM19.7143 63.8434L19.7143 72.9596C19.7143 73.317 19.8101 73.6679 19.9917 73.9758C20.5529 74.9271 21.7791 75.2434 22.7305 74.6822L29.1415 70.9003C31.9628 69.2359 35.4657 69.2359 38.2871 70.9003L44.6981 74.6822C45.006 74.8638 45.3569 74.9596 45.7143 74.9596C46.8189 74.9596 47.7143 74.0641 47.7143 72.9596L47.7143 63.4727C46.8727 64.4172 45.6085 64.8761 44.3405 64.6767L40.747 64.1117C39.9989 63.9942 39.2297 64.1465 38.5835 64.5401L35.4715 66.4359C34.2727 67.1657 32.7753 67.1657 31.5768 66.4357L28.4643 64.5398C27.963 64.2344 27.385 64.0729 26.7971 64.0729C26.631 64.0729 26.4651 64.0858 26.3014 64.1115L22.7067 64.6765C21.6182 64.8477 20.5324 64.5334 19.7143 63.8434ZM63.5734 33.6533C63.6358 33.551 63.6358 33.4324 63.5734 33.3301L61.6759 30.2213C60.8586 28.8823 60.5432 27.2931 60.7872 25.7436L61.3528 22.1534C61.3715 22.0346 61.326 21.9249 61.2282 21.8538L58.2876 19.7171C57.0166 18.7937 56.1136 17.4453 55.744 15.9189L54.8876 12.3835C54.8592 12.2666 54.7745 12.1819 54.6566 12.1534L51.1173 11.2977C49.5906 10.9287 48.2416 10.0269 47.3171 8.75746L45.1777 5.81921C45.1063 5.72126 44.9946 5.67501 44.8744 5.69385L41.2797 6.25881C39.73 6.50265 38.1397 6.18754 36.8004 5.3714L33.6881 3.47569C33.5849 3.41283 33.4635 3.41283 33.3603 3.47563L30.2487 5.37115C28.9089 6.18738 27.3187 6.50243 25.7692 6.25848L22.175 5.69341C22.0547 5.67446 21.9437 5.72041 21.8722 5.8187L19.7333 8.75624C18.8091 10.0259 17.4599 10.9277 15.9328 11.2968L12.3936 12.1523C12.2757 12.1809 12.1909 12.2656 12.1625 12.3824L11.306 15.918C10.9363 17.444 10.0334 18.7919 8.76257 19.7156L5.82117 21.8528C5.72319 21.924 5.67757 22.0339 5.69625 22.1526L6.26183 25.7437C6.5058 27.2927 6.19029 28.882 5.37311 30.221L3.47525 33.3302C3.413 33.4321 3.413 33.551 3.4753 33.6531L5.3728 36.7619C6.19003 38.1009 6.50546 39.6901 6.26146 41.2396L5.69585 44.8298C5.67713 44.9486 5.72266 45.0583 5.82058 45.1295L8.76091 47.2663C10.0319 48.1897 10.9349 49.5381 11.3045 51.0645L12.1609 54.5999C12.1892 54.7168 12.274 54.8015 12.3919 54.83L15.9312 55.6857C17.4579 56.0547 18.8069 56.9564 19.7314 58.2259L21.8708 61.1642C21.9424 61.2625 22.0536 61.3085 22.1741 61.2895L25.7686 60.7246C26.1088 60.6711 26.4529 60.6443 26.7971 60.6443C28.0129 60.6443 29.2084 60.9783 30.2481 61.6118L33.3604 63.5075C33.4636 63.5704 33.585 63.5704 33.6882 63.5076L36.7999 61.612C38.1395 60.796 39.7294 60.4812 41.2793 60.7247L44.8731 61.2897C44.994 61.3088 45.1048 61.2629 45.1763 61.1647L47.3153 58.227C48.2397 56.9574 49.5889 56.0556 51.1159 55.6866L54.6551 54.8311C54.773 54.8025 54.8578 54.7178 54.8861 54.601L55.7427 51.0653C56.1123 49.5394 57.0152 48.1914 58.2861 47.2678L61.2275 45.1306C61.3255 45.0594 61.3711 44.9495 61.3524 44.8308L60.7868 41.2397C60.5429 39.6908 60.8585 38.1017 61.6756 36.7624L63.5734 33.6533ZM30.5735 28.867L30.6537 28.8596Q30.5723 28.86 30.4913 28.8683Q30.4104 28.8767 30.3306 28.8929Q30.2509 28.9091 30.1731 28.933Q30.0953 28.9569 30.0202 28.9883Q29.9452 29.0198 29.8735 29.0584Q29.8019 29.097 29.7344 29.1424Q29.6668 29.1878 29.6041 29.2396Q29.5413 29.2914 29.4839 29.3491Q29.4265 29.4068 29.375 29.4698Q29.3235 29.5328 29.2784 29.6005Q29.2333 29.6683 29.195 29.7401Q29.1568 29.8119 29.1257 29.8872Q29.0947 29.9624 29.0711 30.0403Q29.0476 30.1182 29.0317 30.198Q29.0159 30.2778 29.008 30.3588Q29 30.4398 29 30.5212L29 41.3384Q29 41.42 29.008 41.5012Q29.016 41.5825 29.0319 41.6625Q29.0479 41.7426 29.0715 41.8207Q29.0952 41.8988 29.1265 41.9742Q29.1577 42.0497 29.1962 42.1217Q29.2347 42.1936 29.28 42.2615Q29.3254 42.3294 29.3772 42.3925Q29.429 42.4556 29.4867 42.5133Q29.5444 42.571 29.6075 42.6228Q29.6706 42.6746 29.7385 42.72Q29.8064 42.7653 29.8783 42.8038Q29.9503 42.8423 30.0258 42.8735Q30.1012 42.9048 30.1793 42.9284Q30.2574 42.9521 30.3375 42.9681Q30.4175 42.984 30.4988 42.992Q30.58 43 30.6616 43L40.1817 43Q40.3246 43 40.4672 42.993Q40.6099 42.986 40.752 42.972Q40.8942 42.958 41.0355 42.937Q41.1767 42.9161 41.3168 42.8882Q41.4569 42.8603 41.5955 42.8256Q41.734 42.7909 41.8707 42.7495Q42.0074 42.708 42.1418 42.6599Q42.2763 42.6118 42.4083 42.5571Q42.5402 42.5024 42.6694 42.4414Q42.7985 42.3803 42.9244 42.313Q43.0504 42.2456 43.1729 42.1722Q43.2954 42.0988 43.4142 42.0194Q43.5329 41.9401 43.6477 41.855Q43.7624 41.7699 43.8728 41.6793Q43.9832 41.5887 44.089 41.4928Q44.1949 41.3969 44.2959 41.2959Q44.3969 41.1949 44.4928 41.089Q44.5887 40.9832 44.6793 40.8728Q44.7699 40.7624 44.855 40.6477Q44.9401 40.5329 45.0194 40.4142Q45.0988 40.2954 45.1722 40.1729Q45.2456 40.0504 45.313 39.9244Q45.3803 39.7985 45.4414 39.6694Q45.5024 39.5402 45.5571 39.4083Q45.6118 39.2763 45.6599 39.1418Q45.708 39.0074 45.7495 38.8707Q45.7909 38.734 45.8256 38.5955Q45.8603 38.4569 45.8882 38.3168Q45.9161 38.1767 45.937 38.0355Q45.958 37.8942 45.972 37.752Q45.986 37.6099 45.993 37.4672Q46 37.3246 46 37.1817L46 31.3578Q46 31.2354 45.988 31.1136Q45.976 30.9918 45.9522 30.8718Q45.9283 30.7518 45.8928 30.6346Q45.8573 30.5175 45.8105 30.4044Q45.7637 30.2913 45.706 30.1834Q45.6484 30.0754 45.5804 29.9736Q45.5125 29.8718 45.4349 29.7772Q45.3573 29.6826 45.2708 29.596Q45.1843 29.5094 45.0897 29.4317Q44.9951 29.354 44.8934 29.2859Q44.7917 29.2179 44.6838 29.1601Q44.5759 29.1023 44.4629 29.0554Q44.3498 29.0085 44.2328 28.9728Q44.1157 28.9372 43.9957 28.9132Q43.8757 28.8892 43.7539 28.8771Q43.6321 28.865 43.5097 28.8649L40.0116 28.8611C39.0939 28.8572 38.074 28.1841 37.9993 27.2694C37.8785 25.7893 37.8429 23.6572 37.782 22.6328C37.621 19.0892 33.371 17.955 32.9953 20.0474C32.9051 21.3952 32.9851 22.5564 33.0584 23.62C33.1451 24.8778 33.2223 25.9991 32.9976 27.1313C32.8012 28.1208 31.5824 28.866 30.5735 28.867ZM24.3384 29L23.6616 29Q23.58 29 23.4988 29.008Q23.4175 29.016 23.3375 29.0319Q23.2574 29.0479 23.1793 29.0716Q23.1012 29.0952 23.0258 29.1265Q22.9503 29.1577 22.8783 29.1962Q22.8064 29.2347 22.7385 29.28Q22.6706 29.3254 22.6075 29.3772Q22.5444 29.429 22.4867 29.4867Q22.429 29.5444 22.3772 29.6075Q22.3254 29.6706 22.28 29.7385Q22.2347 29.8064 22.1962 29.8783Q22.1577 29.9503 22.1265 30.0258Q22.0952 30.1012 22.0715 30.1793Q22.0479 30.2574 22.0319 30.3375Q22.016 30.4175 22.008 30.4988Q22 30.58 22 30.6616L22 41.3384Q22 41.42 22.008 41.5012Q22.016 41.5825 22.0319 41.6625Q22.0479 41.7426 22.0715 41.8207Q22.0952 41.8988 22.1265 41.9742Q22.1577 42.0497 22.1962 42.1217Q22.2347 42.1936 22.28 42.2615Q22.3254 42.3294 22.3772 42.3925Q22.429 42.4556 22.4867 42.5133Q22.5444 42.571 22.6075 42.6228Q22.6706 42.6746 22.7385 42.72Q22.8064 42.7653 22.8783 42.8038Q22.9503 42.8423 23.0258 42.8735Q23.1012 42.9048 23.1793 42.9284Q23.2574 42.9521 23.3375 42.9681Q23.4175 42.984 23.4988 42.992Q23.58 43 23.6616 43L24.3384 43Q24.42 43 24.5012 42.992Q24.5825 42.984 24.6625 42.9681Q24.7426 42.9521 24.8207 42.9284Q24.8988 42.9048 24.9742 42.8735Q25.0497 42.8423 25.1216 42.8038Q25.1936 42.7653 25.2615 42.72Q25.3294 42.6746 25.3925 42.6228Q25.4556 42.571 25.5133 42.5133Q25.571 42.4556 25.6228 42.3925Q25.6746 42.3294 25.72 42.2615Q25.7653 42.1936 25.8038 42.1217Q25.8423 42.0497 25.8735 41.9742Q25.9048 41.8988 25.9284 41.8207Q25.9521 41.7426 25.9681 41.6625Q25.984 41.5825 25.992 41.5012Q26 41.42 26 41.3384L26 30.6616Q26 30.58 25.992 30.4988Q25.984 30.4175 25.9681 30.3375Q25.9521 30.2574 25.9284 30.1793Q25.9048 30.1012 25.8735 30.0258Q25.8423 29.9503 25.8038 29.8783Q25.7653 29.8064 25.72 29.7385Q25.6746 29.6706 25.6228 29.6075Q25.571 29.5444 25.5133 29.4867Q25.4556 29.429 25.3925 29.3772Q25.3294 29.3254 25.2615 29.28Q25.1936 29.2347 25.1216 29.1962Q25.0497 29.1577 24.9742 29.1265Q24.8988 29.0952 24.8207 29.0716Q24.7426 29.0479 24.6625 29.0319Q24.5825 29.016 24.5012 29.008Q24.42 29 24.3384 29Z" transform="translate(10.28571 4.2857146)" id="Combined-Shape" fill="#1A0D7C" fill-rule="evenodd" stroke="none" />
  </g>
</svg>