<?xml version="1.0" encoding="utf-8"?>
<svg width="144px" height="48px" viewbox="0 0 144 48" version="1.1" xmlns:xlink="http://www.w3.org/1999/xlink" xmlns="http://www.w3.org/2000/svg">
  <g id="Coca-Cola_logo">
    <path d="M119.718 40.0091C119.716 40.0091 119.275 40.4023 119.275 40.4023C118.644 40.9656 117.996 41.5686 117.213 41.267C116.997 41.1884 116.845 40.9004 116.809 40.6768C116.773 39.0645 117.499 37.5706 118.203 36.116L118.384 35.7356C120.409 32.3539 122.763 28.3693 126.221 25.604C126.803 25.1836 127.435 24.8304 128.103 25.1059C128.256 25.2497 128.435 25.499 128.435 25.7478C128.435 25.8268 128.365 26.0363 128.324 26.1015C127.359 27.662 126.439 29.3003 125.545 30.873C123.797 33.9798 121.984 37.1907 119.718 40.0095L119.718 40.0091ZM100.984 32.0397C100.852 32.1319 98.516 31.3451 98.0646 29.1825C97.6817 27.3205 98.9639 25.8656 100.204 25.1322C100.737 24.7126 101.539 24.5688 102.127 24.7776C102.673 25.1451 102.821 25.801 102.821 26.5077C102.821 26.9412 102.764 27.3864 102.713 27.7926C102.713 27.7926 102.703 27.8716 102.702 27.8847C102.313 29.3392 101.717 30.7681 100.984 32.0398L100.984 32.0397ZM92.0618 40.8352C91.8236 40.4813 91.7446 40.0942 91.7367 39.6759C91.691 37.1057 94.4562 32.5031 96.4081 29.9956L96.4124 29.9956C97.2304 31.7867 99.0826 32.9379 100.201 33.4231C98.812 36.5167 94.0491 43.142 92.0623 40.8352L92.0618 40.8352ZM125.772 41.2915C125.31 41.606 124.66 41.3642 124.903 40.6435C125.508 38.8084 127.913 35.0687 127.913 35.0687L134.611 23.1891L130.023 23.1891C129.805 23.5473 129.338 24.3699 129.338 24.3699C129.126 24.0163 128.491 23.2301 128.23 23.0603C127.109 22.3519 125.465 22.6868 124.33 23.3289C119.398 26.2131 115.799 31.9116 112.961 36.3548C112.961 36.3548 109.973 41.2945 108.314 41.6619C107.02 41.7669 107.153 40.0227 107.209 39.6164C107.71 36.6798 108.873 33.8881 110.044 31.3582C112.426 29.7068 115.145 27.544 117.616 25.1716C122.978 20.046 127.498 14.2391 128.159 12.9416C128.159 12.9416 127.443 13.086 126.599 13.112C122.474 18.8662 114.032 27.2297 111.473 28.4741C112.607 25.7473 119.932 12.7316 126.165 6.50588L127.146 5.56179C128.663 4.0806 130.235 2.56014 131.459 2.31104C131.589 2.298 131.755 2.31104 131.899 2.61301C131.954 3.7663 131.524 4.61841 131.032 5.5883L130.342 7.00415C130.342 7.00415 131.319 6.82057 131.961 6.6103C132.706 5.20842 133.532 3.63502 133.227 1.76101C133.126 1.15798 132.689 0.699282 132.119 0.594326C130.26 0.240416 128.233 1.6163 126.602 2.73083L126.537 2.76987C118.154 9.33692 111.076 18.8012 104.888 31.7253C104.439 32.0656 102.706 32.4724 102.412 32.2755C103.023 31.0175 103.792 29.3262 104.177 27.4912C104.244 26.9667 104.306 26.4296 104.306 25.9054C104.306 24.7772 104.035 23.7159 103.025 22.982C101.84 22.3921 100.375 22.6675 99.3877 23.113C94.9641 24.9481 91.6582 29.4837 89.2726 33.2187C87.9894 35.5919 86.7101 38.1335 86.3559 41.0442C86.1064 43.3245 86.6143 44.7926 87.9109 45.5269C89.2443 46.2081 90.9225 45.5001 91.5818 45.1596C96.0631 42.8003 99.1944 38.0686 101.662 33.7428C101.761 33.7299 103.108 33.6908 104.128 33.4283C104.141 33.4283 104.147 33.4283 104.169 33.442C104.111 33.6378 103.584 35.2112 103.584 35.2112C102.02 39.7986 101.297 42.9184 102.774 44.7668C104.886 47.3754 108.381 44.6754 111.225 41.1095C110.615 45.3825 112.829 46.0513 114.517 45.7239C116.457 45.1999 118.617 43.1283 119.62 42.067C119.298 43.312 119.386 45.5405 121.15 45.7631C122.359 45.9866 123.264 45.329 124.311 44.7651C128.066 42.7201 132.563 35.9059 133.73 33.9358L132.199 33.9358C130.54 36.4434 128.428 39.7312 125.773 41.292L125.772 41.2915ZM67.9135 15.8458L72.2118 15.8458L74.6378 11.9055L70.3386 11.9055L67.9135 15.8458ZM136.576 5.37821C133.298 7.23982 129.901 8.44541 125.788 8.02609C124.648 9.31098 123.538 10.6347 122.515 11.9978C128.288 13.4658 134.407 10.2021 137.82 7.09589C141.431 3.963 143.282 0.0178965 143.282 0.0178965C143.282 0.0178965 140.576 3.11103 136.576 5.37828L136.576 5.37821ZM100.432 4.38239C99.7489 12.2207 93.656 16.8223 92.1485 17.1884C91.2349 17.3716 89.676 16.9655 91.0675 13.6759C93.1171 9.245 96.6161 5.48366 100.37 3.5565C100.462 3.88426 100.459 4.09345 100.432 4.38217L100.432 4.38239ZM88.5599 24.1355C88.1235 23.1919 87.0871 22.5889 85.9828 22.6543C82.3966 22.9822 78.8889 25.9313 77.047 30.1652C76.0805 32.3413 75.5531 34.1369 75.2072 36.9942C76.3223 35.71 78.5969 33.5998 81.1782 32.4463C81.1782 32.4463 81.5294 29.7068 83.3204 27.2687C83.9981 26.2591 85.3545 24.6339 86.8774 25.0663C88.208 25.5123 87.7403 29.1956 85.9719 32.7599C84.6633 35.3819 82.6609 38.0041 80.6349 39.8125C78.8437 41.3331 76.1935 43.168 73.8748 41.7525C72.4144 40.8878 71.6695 39.0785 71.8269 36.7453C72.5247 30.1262 75.5378 24.4896 79.8494 18.0669C84.2955 12.1029 89.1965 5.98165 95.799 2.71693C97.1457 2.03544 98.3928 1.87815 99.4708 2.29765C99.4708 2.29765 93.273 5.70565 90.3185 12.0108C89.567 13.6102 88.5217 15.7724 89.5743 17.6863C90.1243 18.6823 91.101 18.7611 91.8873 18.7086C95.5086 17.8696 97.8482 14.4879 99.76 11.3947C100.868 9.04845 101.853 6.71522 101.853 4.1195C101.853 3.80499 101.837 3.38574 101.81 3.0708C103.541 2.15365 107.088 3.77862 107.088 3.77862C109.861 4.6965 115.764 9.21896 117.755 10.0837C118.726 8.95661 120.322 7.25275 121.221 6.40057L119.92 5.60091C117.837 4.32941 115.635 3.12339 113.468 1.9307C108.547 -0.756014 104.54 0.187508 102.501 0.921622C101.7 1.2098 100.968 1.45894 100.968 1.45894C99.4545 -0.192551 96.973 -0.0356557 95.1445 0.410314C88.5689 2.29772 82.4639 6.89834 75.9187 14.8812C71.1066 21.1338 68.1212 26.5345 66.5308 31.8689C65.3044 35.4602 64.9318 40.7425 67.9249 43.8754C70.4698 46.5354 73.8443 45.9593 76.2275 45.0027C81.3906 42.4597 86.031 36.9802 88.3436 30.6757C88.9015 28.8016 89.5208 26.1539 88.5601 24.135L88.5599 24.1355ZM31.3289 18.0539C31.3203 18.0801 30.452 20.0722 30.452 20.0722C30.3264 20.177 30.128 20.1247 29.9005 20.0722L29.5108 20.0063C28.287 19.6264 27.3638 18.8136 27.0793 17.8438C26.6867 15.9562 28.2992 14.4751 29.0097 13.9379C29.6913 13.4656 30.7511 13.2166 31.3665 13.7018C31.7461 14.1476 31.8899 14.7242 31.8899 15.3538C31.8901 16.2056 31.6271 17.1623 31.3289 18.0539L31.3289 18.0539ZM29.4637 21.8416C29.4637 21.8416 29.4243 21.96 29.4048 21.9987C29.3998 21.9987 27.4311 25.2097 27.4311 25.2097C26.2429 26.796 24.7594 28.7889 22.9049 29.7453C22.3552 29.9289 21.5954 30.0471 21.2083 29.5625C20.3874 28.5792 20.8105 27.2161 21.1542 26.1151L21.2758 25.7218C22.2612 23.0481 23.8248 20.6882 25.3466 18.4988C25.3656 18.4859 25.4082 18.4729 25.4236 18.4729C25.4272 18.486 25.4333 18.486 25.436 18.5123C26.3909 20.347 28.1816 21.1987 29.5208 21.5925C29.5289 21.5925 29.5375 21.6056 29.5375 21.6319C29.5377 21.671 29.5158 21.7238 29.4637 21.8413L29.4637 21.8416ZM54.0913 19.7314C54.9719 18.5127 57.5351 15.2487 58.16 14.6982C60.2616 12.8493 61.1016 13.6629 61.1743 14.2392C59.2129 17.7519 56.898 21.7759 54.7215 25.3938C54.7258 25.3809 54.0404 26.4292 54.0404 26.4292C53.0791 27.897 52.1112 29.1553 50.5324 30.0335C50.3073 30.0994 49.9362 30.1257 49.6892 29.9416C49.3919 29.7449 49.2746 29.4172 49.3081 29.0762C49.4026 27.9492 50.5502 24.5026 54.0912 19.7312L54.0913 19.7314ZM32.2656 11.762C29.5486 9.9794 24.0877 13.3874 19.714 19.2328C15.7142 24.4764 13.9871 30.5708 15.8667 33.3892C18.6627 36.7054 23.8533 31.8819 26.0606 29.3L26.3453 28.9983C27.8464 27.386 29.0061 25.4459 30.1286 23.5844C30.1286 23.5844 31.1602 21.8804 31.2095 21.8016C31.8471 21.6841 32.6151 21.5005 33.4806 21.2514C33.4683 21.2905 30.1694 26.8352 30.506 29.5877C30.6108 30.4273 30.5307 33.4944 33.5254 34.4249C37.5165 35.0939 40.7039 32 43.5151 29.2474C43.5151 29.2474 43.9942 28.789 44.2652 28.5274C44.1966 28.8019 44.1072 29.1682 44.1072 29.1682C42.9387 33.2317 44.5138 34.0842 45.4991 34.3989C48.4766 35.2645 52.0339 30.9386 52.0453 30.9386C51.9531 32.3012 51.6834 33.4285 53.1198 34.333C54.4756 34.8184 55.8478 34.0785 56.8907 33.3837C60.6474 30.736 63.6739 26.5921 66.1181 23.01L64.5589 23.01C64.5405 23.01 60.7111 28.5601 58.2246 29.7664C58.2211 29.7664 57.7683 29.9987 57.5075 29.8149C57.1848 29.5394 57.3121 28.967 57.5111 28.5615C57.5236 28.535 67.1118 11.9055 67.1118 11.9055L62.5848 11.9055C62.5848 11.9055 62.0903 12.7056 62.05 12.7581C62.0195 12.7319 61.947 12.5944 61.8966 12.5285C59.0919 8.64869 52.7401 14.6165 47.958 21.5367C46.117 24.1978 43.7731 27.1941 41.3426 29.3571C41.3426 29.3571 37.742 32.6576 36.2036 30.2863C35.6412 29.2899 35.8142 27.8333 36.1314 26.8767C37.9226 21.7778 41.0092 17.1506 44.5214 14.358C45.5129 13.5852 46.5906 13.3616 47.1254 13.6894C47.635 13.9914 47.7172 14.7379 47.3948 15.2492C46.5768 15.2231 45.9215 15.4717 45.3887 16.0222C44.3391 17.1234 43.9745 18.1853 44.3082 19.1816C45.9293 21.4885 49.1623 16.9269 49.0059 14.1481C48.95 13.1517 48.4184 12.2082 47.6252 11.749C46.443 11.0415 44.6393 11.2247 43.4721 11.7887C41.9096 12.3783 39.4362 14.436 37.9924 16.0355C36.1748 18.0413 33.0577 20.2694 32.0828 20.0199C32.4022 19.1675 35.0352 13.7804 32.2653 11.7624L32.2656 11.762ZM55.0205 40.9267C49.6889 37.4921 42.4531 36.8895 30.784 40.127C18.3442 43.0503 14.1961 44.9243 8.74918 41.1623C6.65653 39.3144 5.90622 36.3389 6.46653 32.0531C7.76597 25.0662 11.2774 18.3423 17.5151 10.8844C20.9968 7.00462 24.2262 3.67507 28.4907 2.33823C31.7589 1.49945 31.4534 4.06802 31.0579 4.43533C30.6406 4.43533 29.9396 4.5011 29.3979 4.85461C28.9582 5.19563 27.7512 6.29676 27.6863 7.77796C27.5928 10.0454 29.9395 9.57344 30.9516 8.32852C32.0426 6.92563 33.6548 4.239 32.3866 1.73511C31.855 0.84389 30.9366 0.227986 29.7962 0.0182189C25.8913 -0.204945 22.2544 1.65645 18.898 3.71436C11.5598 8.81311 5.688 15.8784 2.36597 23.6122C0.450414 28.2783 -1.28188 34.9624 1.31484 40.4028C3.32354 44.1776 7.4938 46.1828 12.4695 45.7634C15.959 45.3968 20.1781 44.269 23.0166 43.588C25.8545 42.906 40.3811 37.9124 45.1546 46.6034C45.1546 46.6034 46.7418 43.5223 50.7084 43.4566C53.9696 43.1557 58.6743 44.4007 62.1002 46.9169C60.9588 45.2003 57.7227 42.6705 55.023 40.9269L55.0205 40.9267Z" transform="translate(0.010099775 0.70633036)" id="Shape" fill="#E6E8F0" stroke="none" />
  </g>
</svg>