<?xml version="1.0" encoding="utf-8"?>
<svg width="23px" height="23px" viewbox="0 0 23 23" version="1.1" xmlns:xlink="http://www.w3.org/1999/xlink" xmlns="http://www.w3.org/2000/svg">
  <path d="M11.5 0C5.14865 0 0 5.14865 0 11.5C0 17.8516 5.14865 23 11.5 23C17.8514 23 23 17.8516 23 11.5C23 5.14865 17.8514 0 11.5 0L11.5 0ZM14.2238 7.94698L12.4948 7.94698C12.2901 7.94698 12.0623 8.21555 12.0623 8.57541L12.0623 9.82388L14.2236 9.82388L14.2236 11.6035L12.0623 11.6035L12.0623 16.9476L10.0213 16.9476L10.0213 11.6035L8.17099 11.6035L8.17099 9.82388L10.0213 9.82388L10.0213 8.77642C10.0213 7.27447 11.064 6.05283 12.4948 6.05283L14.2238 6.05283L14.2238 7.94698L14.2238 7.94698Z" id="C-Facebook" fill="#AEB0C1" fill-rule="evenodd" stroke="none" />
</svg>