<?xml version="1.0" encoding="utf-8"?>
<svg width="149px" height="46px" viewbox="0 0 149 46" version="1.1" xmlns:xlink="http://www.w3.org/1999/xlink" xmlns="http://www.w3.org/2000/svg">
  <g id="FedEx_Express">
    <path d="M13.0485 0L19.1746 6.75154L25.0725 0L37.6663 0L25.3584 13.8405L37.835 27.7941L24.733 27.7941L18.6645 20.989L12.6514 27.7941L0 27.7941L12.3675 13.8981L0 0L13.0485 0Z" transform="translate(110.27722 15.988281)" id="polygon10" fill="#E6E8F0" stroke="none" />
    <path d="M24.301 15.9881L24.301 25.379L10.2939 25.379L10.2939 33.9963L24.301 33.9963L24.301 43.7822L0 43.7822L0 0L24.301 0L24.301 9.75909L10.2939 9.75909L10.2939 15.9881L24.301 15.9881Z" transform="translate(85.9762 0)" id="polygon12" fill="#E6E8F0" stroke="none" />
    <path d="M75.7255 0L75.7255 17.9177L75.6124 17.9177C73.3413 15.3093 70.5065 14.4021 67.2171 14.4021C60.4779 14.4021 55.4009 18.9854 53.6194 25.0416C51.5849 18.3682 46.3433 14.2766 38.5714 14.2766C32.2601 14.2766 27.2757 17.1093 24.6754 21.7255L24.6754 15.9881L11.629 15.9881L11.629 9.75909L25.8665 9.75909L25.8665 0L0 0L0 43.7822L11.629 43.7822L11.629 25.379L23.221 25.379C22.8754 26.7305 22.6903 28.1787 22.6903 29.7072C22.6903 38.8389 29.6681 45.2489 38.5714 45.2489C46.0594 45.2489 50.9945 41.7333 53.603 35.3253L43.6361 35.3253C42.2887 37.2528 41.2663 37.8226 38.5714 37.8226C35.4466 37.8226 32.7518 35.0969 32.7518 31.8651L53.0455 31.8651C53.9259 39.1186 59.5769 45.3744 67.3303 45.3744C70.6752 45.3744 73.7383 43.7287 75.6103 40.9515L75.7234 40.9515L75.7234 43.7863L85.9742 43.7863L85.9742 0L75.7255 0ZM33.0768 25.5086C33.7227 22.7273 35.8807 20.9109 38.5735 20.9109C41.5378 20.9109 43.5847 22.6718 44.1237 25.5086C44.3499 25.5086 33.0768 25.5086 33.0768 25.5086ZM69.5026 37.117C65.7237 37.117 63.3744 33.5952 63.3744 29.9191C63.3744 25.9899 65.4171 22.211 69.5026 22.211C73.7383 22.211 75.4251 25.9899 75.4251 29.9191C75.4251 33.6446 73.6375 37.117 69.5026 37.117Z" id="path14" fill="#AEB0C1" stroke="none" />
  </g>
</svg>