<?xml version="1.0" encoding="utf-8"?>
<svg width="6px" height="8px" viewbox="0 0 6 8" version="1.1" xmlns:xlink="http://www.w3.org/1999/xlink" xmlns="http://www.w3.org/2000/svg">
  <path d="M0.761585 0.106032L5.70173 3.16315Q5.72873 3.17986 5.75339 3.19985Q5.77805 3.21985 5.79998 3.2428Q5.82191 3.26576 5.84076 3.29132Q5.8596 3.31687 5.87505 3.3446Q5.8905 3.37234 5.90232 3.40181Q5.91413 3.43128 5.92211 3.46201Q5.9301 3.49274 5.93412 3.52423Q5.93814 3.55572 5.93814 3.58747Q5.93814 3.61922 5.93412 3.65072Q5.9301 3.68221 5.92211 3.71294Q5.91413 3.74367 5.90232 3.77314Q5.8905 3.80261 5.87505 3.83034Q5.8596 3.85808 5.84076 3.88363Q5.82191 3.90918 5.79998 3.93214Q5.77805 3.9551 5.75339 3.9751Q5.72873 3.99509 5.70173 4.0118L0.761585 7.06892Q0.733366 7.08638 0.703084 7.09995Q0.672802 7.11352 0.640989 7.12296Q0.609176 7.13241 0.576393 7.13755Q0.543609 7.1427 0.510433 7.14346Q0.477257 7.14422 0.444273 7.14058Q0.411288 7.13694 0.379076 7.12897Q0.346864 7.12099 0.315992 7.10882Q0.285119 7.09665 0.25613 7.0805Q0.227142 7.06435 0.200547 7.0445Q0.173952 7.02465 0.150219 7.00146Q0.126487 6.97826 0.106035 6.95213Q0.085583 6.926 0.0687716 6.89739Q0.0519603 6.86877 0.0390856 6.83819Q0.0262109 6.8076 0.0174998 6.77558Q0.00878858 6.74356 0.00439429 6.71067Q2.02613e-16 6.67778 2.02613e-16 6.64459L2.02613e-16 0.530355Q2.02613e-16 0.49717 0.00439429 0.464278Q0.00878858 0.431385 0.0174998 0.399364Q0.0262109 0.367343 0.0390856 0.336758Q0.0519603 0.306173 0.0687716 0.277561Q0.085583 0.24895 0.106035 0.222817Q0.126487 0.196684 0.150219 0.173489Q0.173952 0.150294 0.200547 0.130447Q0.227142 0.110599 0.25613 0.0944473Q0.285119 0.0782959 0.315992 0.0661254Q0.346864 0.0539549 0.379076 0.0459797Q0.411288 0.0380044 0.444273 0.034365Q0.477257 0.0307255 0.510433 0.0314858Q0.543609 0.0322462 0.576393 0.037393Q0.609176 0.0425397 0.640989 0.0519823Q0.672802 0.0614249 0.703084 0.074997Q0.733366 0.088569 0.761585 0.106032L0.761585 0.106032Z" id="Rectangle-Copy-8" fill="#82CAC7" fill-rule="evenodd" stroke="none" />
</svg>