<?xml version="1.0" encoding="utf-8"?>
<svg width="88px" height="88px" viewbox="0 0 88 88" version="1.1" xmlns:xlink="http://www.w3.org/1999/xlink" xmlns="http://www.w3.org/2000/svg">
  <g id="iconandroid-copy-10">
    <path d="M35.1241 5.70256Q39.3839 0.630892 47.3959 0C47.8437 3.86038 46.826 7.60201 44.3425 11.2249Q40.6173 16.6592 31.6095 18Q30.8642 10.7742 35.1241 5.70256ZM37.4213 7.63204C35.7999 9.56242 34.8541 11.7637 34.5812 14.3034C37.9697 13.3213 40.367 11.7183 41.8681 9.52866C43.2449 7.52006 44.0714 5.52067 44.3705 3.49793C41.4195 4.21826 39.1295 5.59826 37.4213 7.63204ZM40.4355 75.0901C37.5249 74.1772 35.8336 73.8177 33.7114 73.8177C31.5438 73.8177 30.0235 74.1474 27.5162 74.9949C26.8447 75.2235 26.5006 75.3398 26.1588 75.4508C23.0326 76.4653 20.7069 76.6545 17.4533 75.8017C9.53903 73.7274 0.622651 58.0954 0.0290418 44.8979C-0.529968 32.4697 7.05537 23.115 16.3655 21.7074C19.8479 21.1808 22.1306 21.5674 26.0445 22.9045C26.2193 22.9643 26.2193 22.9643 26.393 23.0238C29.3697 24.0429 30.8318 24.3859 32.9894 24.3859C35.5005 24.3859 37.5336 24.0069 41.1045 23.0397C43.9777 22.2614 44.5804 22.1092 45.884 21.8811C47.6474 21.5726 49.2363 21.4998 50.825 21.7026C54.0047 22.1084 57.4525 23.9176 61.2067 27.0839L62.6767 28.3237L61.1164 29.4477C55.6751 33.3673 53.2334 38.0929 53.6507 43.7686C54.0689 49.458 57.211 53.9277 63.2289 57.2824L64.4188 57.9458L63.8727 59.1939C59.7799 68.5483 55.6168 74.078 51.1635 75.7545C48.7227 76.6734 46.4612 76.7052 43.7896 76.0701C42.8805 75.854 42.6411 75.7819 40.4355 75.0901ZM60.5816 59.2072C54.4753 55.4412 51.1256 50.3393 50.6587 43.9885C50.2045 37.8092 52.6257 32.5127 57.8148 28.209C55.0587 26.12 52.5942 24.9527 50.4452 24.6784C49.1805 24.517 47.8868 24.5763 46.401 24.8363C45.2264 25.0417 44.6552 25.186 41.8889 25.9353C38.0803 26.9669 35.8327 27.3859 32.9894 27.3859C30.4159 27.3859 28.6887 26.9807 25.4213 25.8621C25.2474 25.8025 25.2474 25.8025 25.0747 25.7435C21.5761 24.5483 19.7212 24.2341 16.814 24.6737C9.03008 25.8506 2.5356 33.8599 3.02601 44.7631C3.56688 56.7879 11.7977 71.2181 18.2139 72.8997C20.8514 73.591 22.6119 73.4478 25.2327 72.5973C25.5541 72.493 25.8778 72.3835 26.5555 72.1529C29.3454 71.2099 31.1538 70.8177 33.7114 70.8177C36.2122 70.8177 38.1544 71.2305 41.3333 72.2276C43.4485 72.8911 43.6753 72.9593 44.4835 73.1514C46.6139 73.6579 48.2802 73.6345 50.1066 72.9469C53.4188 71.7 56.9739 67.1283 60.5816 59.2072ZM13.6779 30.8362C9.71926 34.0555 7.99851 38.3985 7.99851 44.5743C7.99851 51.5342 10.889 57.9722 16.3162 64.9231L18.6808 63.0769C13.6275 56.6048 10.9985 50.7493 10.9985 44.5743C10.9985 39.2399 12.3769 35.761 15.5707 33.1638L13.6779 30.8362Z" transform="translate(12 4)" id="Combined-Shape" fill="#1A0D7C" fill-rule="evenodd" stroke="none" />
  </g>
</svg>