<?xml version="1.0" encoding="utf-8"?>
<svg width="88px" height="88px" viewbox="0 0 88 88" version="1.1" xmlns:xlink="http://www.w3.org/1999/xlink" xmlns="http://www.w3.org/2000/svg">
  <g id="iconandroid-copy-4">
    <g id="java" transform="translate(14 4)">
      <path d="M10.9962 14.7329C7.26934 17.3127 3.04026 20.2313 0.793567 25.0782C-3.14476 33.5212 8.82881 42.7459 9.35744 43.1368C9.46317 43.215 9.62176 43.2671 9.75392 43.2671C9.91251 43.2671 10.0447 43.215 10.1768 43.1108C10.4147 42.9023 10.494 42.5896 10.3354 42.3029C10.2826 42.2248 6.00062 33.9902 6.15921 28.101C6.21207 26.0423 9.14599 23.7231 12.2121 21.2476C15.0403 18.9805 18.2385 16.4267 20.1152 13.43C24.2385 6.83714 19.6658 0.348539 19.613 0.270363C19.4279 0.00977715 19.0843 -0.0683987 18.82 0.0618944C18.5292 0.192188 18.3707 0.504891 18.45 0.791536C18.45 0.843653 19.3486 5.11727 16.8641 9.54724C15.8332 11.3713 13.5865 12.9349 10.9962 14.7329Z" transform="translate(18.607313 0.25080916)" id="Path" fill="#82CAC7" fill-rule="evenodd" stroke="none" />
      <path d="M16.1233 1.17115C16.3877 0.988735 16.467 0.623915 16.3084 0.33727C16.1498 0.0506246 15.8062 -0.0796686 15.489 0.0506246C14.8546 0.285152 0 5.93988 0 12.7672C0 17.4839 2.03524 19.9594 3.51542 21.7835C4.09692 22.4871 4.59912 23.1125 4.75771 23.6337C5.23348 25.1451 4.12335 27.8812 3.64758 28.7933C3.51542 29.0539 3.56828 29.3926 3.80617 29.5751C3.93833 29.6793 4.09692 29.7314 4.22907 29.7314C4.36123 29.7314 4.49339 29.7053 4.59912 29.6272C4.86344 29.4448 10.837 25.2754 9.77974 20.2461C9.38326 18.3438 8.43172 16.9366 7.5859 15.7119C6.29075 13.8096 5.33921 12.4285 6.76652 9.87473C8.45815 6.87799 16.0441 1.22326 16.1233 1.17115Z" transform="translate(29.180616 16.731134)" id="Path" fill="#82CAC7" fill-rule="evenodd" stroke="none" />
      <path d="M0.134185 3.38762C-0.130132 4.14332 0.00202623 4.89902 0.477797 5.55049C2.09013 7.76547 7.79938 8.96417 16.5483 8.96417C16.5483 8.96417 16.5483 8.96417 16.5483 8.96417C17.7377 8.96417 18.98 8.93811 20.2752 8.88599C34.2575 8.39088 39.4646 4.09121 39.676 3.90879C39.9139 3.70033 39.9668 3.38762 39.8346 3.10098C39.7025 2.84039 39.3853 2.7101 39.0681 2.78827C34.1518 4.11726 24.9271 4.58632 18.5571 4.58632C11.4205 4.58632 7.77295 4.09121 6.87427 3.70033C7.32361 3.07492 10.1518 1.98046 13.6408 1.30293C13.9844 1.25081 14.1959 0.938111 14.1694 0.599349C14.143 0.260586 13.8522 0 13.5086 0C11.4734 0.0260586 1.21789 0.18241 0.134185 3.38762Z" transform="translate(6.473745 43.179153)" id="Path" fill="#82CAC7" fill-rule="evenodd" stroke="none" />
      <path d="M7.21989 0C4.33883 0 1.58994 1.43322 1.48421 1.48534C1.21989 1.61564 1.08773 1.92834 1.16703 2.21498C1.24632 2.50163 1.51064 2.7101 1.80139 2.7101C1.85425 2.7101 7.95998 2.76222 8.51505 6.20195C9.01725 9.17264 2.75293 13.9674 0.294781 15.557C0.0304642 15.7394 -0.0752626 16.0521 0.0568959 16.3648C0.162623 16.5993 0.400508 16.7557 0.664825 16.7557C0.717689 16.7557 0.744121 16.7557 0.796984 16.7296C1.37848 16.5993 15.0437 13.6287 13.5899 5.81108C12.7177 0.990228 9.65161 0 7.21989 0Z" transform="translate(46.198612 42.136806)" id="Path" fill="#82CAC7" fill-rule="evenodd" stroke="none" />
      <path d="M31.9873 4.34369C32.0401 4.08311 31.9344 3.84858 31.7229 3.69223L28.4454 1.42512C28.2868 1.32089 28.0754 1.26877 27.8903 1.32089C27.8639 1.32089 24.4278 2.20688 19.4586 2.75411C17.4762 2.96258 15.2824 3.09288 13.0622 3.09288C8.09299 3.09288 4.84189 2.51959 4.36612 2.10265C4.31325 1.97236 4.31325 1.92024 4.33968 1.89418C4.41898 1.65965 4.89475 1.37301 5.1855 1.26877C5.50268 1.13848 5.6877 0.799717 5.58197 0.460955C5.47625 0.122193 5.13263 -0.0602177 4.78902 0.0179582C1.51149 0.799717 -0.100846 1.89418 0.00488124 3.27529C0.216335 5.69874 5.92559 6.94955 10.7626 7.28832C11.4498 7.34043 12.2163 7.36649 13.0093 7.36649C13.0093 7.36649 13.0093 7.36649 13.0093 7.36649C21.0445 7.36649 31.3529 4.89092 31.4586 4.86486C31.7494 4.78669 31.9344 4.60428 31.9873 4.34369Z" transform="translate(12.074414 52.385952)" id="Path" fill="#82CAC7" fill-rule="evenodd" stroke="none" />
      <path d="M4.98538 1.1987C5.22327 1.04235 5.35543 0.729642 5.2497 0.469055C5.1704 0.18241 4.90609 0 4.58891 0C4.13957 0 0.280537 0.18241 0.0162195 2.60586C-0.0630757 3.3355 0.148378 3.98697 0.650581 4.58632C2.05146 6.20195 5.77833 7.16612 12.0955 7.53094C12.8356 7.58306 13.6021 7.60912 14.3422 7.60912C22.3775 7.60912 27.796 5.13355 28.0074 5.02932C28.2189 4.92508 28.3775 4.71661 28.3775 4.48208C28.3775 4.24756 28.2717 4.01303 28.0603 3.88274L23.9105 1.38111C23.7783 1.30293 23.5933 1.27687 23.4347 1.30293C23.4083 1.30293 20.7915 1.85016 16.8268 2.37134C16.0867 2.47557 15.1352 2.52769 14.025 2.52769C10.0603 2.52769 5.67261 1.90228 4.82679 1.45928C4.82679 1.40717 4.85322 1.30293 4.98538 1.1987Z" transform="translate(14.415499 60.742672)" id="Path" fill="#82CAC7" fill-rule="evenodd" stroke="none" />
      <path d="M24.9216 9.492C43.318 9.46594 53.2035 6.26073 55.1066 4.22816C55.7674 3.49851 55.8467 2.82099 55.7938 2.37799C55.6617 1.28353 54.6308 0.606006 54.5251 0.553888C54.2608 0.371478 53.8907 0.423595 53.6529 0.658123C53.4414 0.892651 53.4414 1.25747 53.6529 1.51806C53.7586 1.67441 53.8379 1.90894 53.4943 2.2477C52.7277 2.95128 45.0625 5.06203 32.296 5.7135C30.5515 5.79167 28.7013 5.84379 26.8511 5.84379C15.4062 5.84379 7.05373 4.30633 5.9436 3.39428C6.36651 2.79493 9.32686 1.83076 12.4722 1.28353C12.8158 1.23141 13.0537 0.892651 13.0009 0.553888C12.948 0.215126 12.6308 -0.0454601 12.2608 0.00665717C12.1815 0.00665717 11.8643 0.0327158 11.5207 0.0587744C6.31364 0.371478 0.313641 1.07506 0.0228924 3.70698C-0.0828345 4.5148 0.181483 5.24444 0.736549 5.86985C2.13743 7.43337 6.18148 9.492 24.9216 9.492C24.9216 9.492 24.9216 9.492 24.9216 9.492Z" transform="translate(0.10926618 66.33862)" id="Path" fill="#82CAC7" fill-rule="evenodd" stroke="none" />
      <path d="M47.2415 0.0636989C46.9772 -0.0665943 46.6865 0.0115816 46.475 0.220051C46.4486 0.246109 43.6733 3.11256 35.3737 4.78031C32.2019 5.40572 26.2019 5.71842 17.6116 5.71842C8.99485 5.71842 0.801018 5.37966 0.695292 5.37966C0.351679 5.3536 0.0609303 5.61419 0.00806689 5.95295C-0.0447965 6.29171 0.166657 6.60442 0.51027 6.68259C0.589565 6.70865 9.17987 8.68911 20.942 8.68911C26.5719 8.68911 32.0697 8.24611 37.2504 7.33406C46.9244 5.6663 47.5852 0.949692 47.6116 0.741223C47.6645 0.454578 47.5059 0.167933 47.2415 0.0636989Z" transform="translate(11.569026 71.07636)" id="Path" fill="#82CAC7" fill-rule="evenodd" stroke="none" />
    </g>
  </g>
</svg>