<?xml version="1.0" encoding="utf-8"?>
<svg width="109px" height="48px" viewbox="0 0 109 48" version="1.1" xmlns:xlink="http://www.w3.org/1999/xlink" xmlns="http://www.w3.org/2000/svg">
  <g id="LEGO_logo">
    <path d="M94.9275 0.156544C89.5798 -0.0477656 84.4351 2.21792 80.9756 6.30088C80.621 5.50974 80.1383 4.78249 79.5471 4.1484C77.062 1.35019 73.0897 0.0391359 67.7476 0.0391359C62.5426 0.0391359 58.1985 1.66327 55.185 4.22668C53.6196 1.68284 49.8625 0 45.3619 0C39.4915 0 33.0732 0.841421 29.2575 6.96619C29.1792 4.75501 28.964 3.58093 27.7312 2.26988C26.2245 0.684878 23.7785 0.254383 21.4107 0.254383C17.2772 0.142898 13.4329 2.36776 11.4702 6.00736C8.06541 11.4277 -0.192261 29.3128 0.00341813 37.9814C0.120826 43.5778 3.87787 47.6088 10.5897 47.7653C15.8339 47.9023 19.9627 46.4934 22.5848 43.8518C25.2683 46.5786 28.9763 48.049 32.7993 47.9023C37.5934 47.9023 42.3876 46.4543 45.2249 43.3234C47.6318 46.2586 51.3888 47.9806 56.2221 47.961C62.2893 47.9235 68.0059 45.112 71.7395 40.3295C73.7354 45.7498 78.784 47.9023 84.3021 47.9023C96.3951 47.9023 101.718 39.5859 106.14 26.4363C107.118 23.4815 108.469 18.5308 108.684 14.3824C109.036 7.47495 106.12 0.156544 94.9275 0.156544ZM14.4837 33.2264C20.7454 32.1306 22.3109 34.4004 22.1152 36.4746C21.5282 42.7364 15.7752 44.1453 10.7658 44.0279C7.16528 43.9496 3.89744 42.2863 3.7996 38.0792C3.64305 30.7217 11.1571 13.6976 14.6794 8.06199C16.3231 5.38118 18.2994 4.05056 21.4694 4.05056C24.4829 4.05056 25.2265 5.616 25.1874 7.45539C25.07 12.3669 17.1058 27.356 14.4837 33.2068L14.4837 33.2264ZM34.8539 27.4342C34.1524 29.3868 33.5451 31.372 33.0341 33.3829C35.055 32.7985 37.1537 32.5279 39.2567 32.5806C42.2506 32.6589 44.1878 33.8917 44.1878 36.3768C44.1878 42.4037 37.5347 44.1648 32.8971 44.1844C27.829 44.1844 23.3675 41.2884 23.3675 35.7506C23.3675 29.2345 26.8898 19.3723 30.2163 12.817C34.2669 4.73544 38.4349 3.67877 45.5771 3.67877C48.708 3.67877 52.3281 5.00939 52.3281 7.98372C52.3281 12.093 48.845 13.6584 45.401 13.8541C43.9139 13.9519 41.644 14.0302 40.2938 13.9324C40.2938 13.9324 39.1393 15.6935 37.9261 18.8048C44.3248 17.9047 47.0252 19.3527 45.9489 23.051C44.4813 28.0409 40.1568 28.3735 34.8539 27.4342L34.8539 27.4342ZM66.3192 11.8777C64.5776 11.8777 63.4622 12.9735 62.6013 14.1476C60.7619 16.7697 56.7309 27.1994 56.1047 31.4848C55.6938 34.42 56.9461 35.007 58.3354 35.007C60.5662 35.007 63.0513 32.6589 63.9123 28.7844C63.9123 28.7844 59.6661 28.6866 60.8401 24.9296C61.9751 21.2899 64.1276 20.5072 67.6889 20.3507C74.7138 20.0571 74.0094 25.2426 73.4615 28.0213C71.6221 37.003 65.2429 44.204 56.2025 44.204C50.0191 44.204 46.1642 40.7796 46.1642 34.4787C46.1642 29.9781 48.3949 22.9336 50.1756 18.7852C53.9327 9.97965 57.8854 3.85488 67.9237 3.85488C73.9702 3.85488 78.7252 6.00736 78.0208 11.6821C77.512 15.8109 75.4378 18.2569 71.6612 18.5308C70.6045 18.6287 66.2996 18.5308 67.7281 14.4216C68.2368 12.9931 68.4325 11.8777 66.3192 11.8777L66.3192 11.8777ZM104.281 19.3136C103.224 24.5969 100.837 30.8586 98.2345 35.5158C94.0078 43.1473 88.8614 44.204 84.3608 44.1453C79.8797 44.0866 74.8117 42.4429 74.7725 35.5158C74.753 30.5456 76.9054 23.5207 78.7252 18.9222C81.8952 10.5667 85.1435 3.77661 95.3971 3.89402C107.334 4.031 105.22 14.6564 104.281 19.294L104.281 19.3136ZM95.7494 14.0889C95.6319 17.2785 90.9552 30.0564 89.2919 32.8741C88.5679 34.0873 87.7656 35.1049 86.298 35.1049C85.0261 35.1049 84.4391 34.1852 84.3999 33.1481C84.3217 30.2716 89.605 15.8305 91.4248 13.4823C92.2076 12.23 93.1077 12.0343 94.1448 12.0539C95.6515 12.0539 95.7885 13.1497 95.7494 14.0889Z" transform="translate(0.15641285 0.0161242)" id="path10" fill="#E6E8F0" stroke="none" />
  </g>
</svg>