<?xml version="1.0" encoding="utf-8"?>
<svg width="30px" height="20px" viewbox="0 0 30 20" version="1.1" xmlns:xlink="http://www.w3.org/1999/xlink" xmlns="http://www.w3.org/2000/svg">
  <path d="M0 0.999Q0 0.900607 0.0191955 0.804105Q0.038391 0.707602 0.0760443 0.616699Q0.113698 0.525796 0.168362 0.443985Q0.223026 0.362175 0.2926 0.2926Q0.362175 0.223026 0.443985 0.168362Q0.525796 0.113698 0.616699 0.0760443Q0.707602 0.038391 0.804105 0.0191955Q0.900607 0 0.999 0L29.001 0Q29.0994 0 29.1959 0.0191955Q29.2924 0.038391 29.3833 0.0760443Q29.4742 0.113698 29.556 0.168362Q29.6378 0.223026 29.7074 0.2926Q29.777 0.362175 29.8316 0.443985Q29.8863 0.525796 29.924 0.616699Q29.9616 0.707602 29.9808 0.804105Q30 0.900607 30 0.999L30 1.001Q30 1.09939 29.9808 1.1959Q29.9616 1.2924 29.924 1.3833Q29.8863 1.4742 29.8316 1.55601Q29.777 1.63783 29.7074 1.7074Q29.6378 1.77697 29.556 1.83164Q29.4742 1.8863 29.3833 1.92396Q29.2924 1.96161 29.1959 1.9808Q29.0994 2 29.001 2L0.999 2Q0.900607 2 0.804105 1.9808Q0.707602 1.96161 0.616699 1.92396Q0.525796 1.8863 0.443985 1.83164Q0.362175 1.77697 0.2926 1.7074Q0.223026 1.63783 0.168362 1.55601Q0.113698 1.4742 0.0760443 1.3833Q0.038391 1.2924 0.0191955 1.1959Q0 1.09939 0 1.001L0 0.999ZM0 9.999Q0 9.90061 0.0191955 9.8041Q0.038391 9.7076 0.0760443 9.6167Q0.113698 9.52579 0.168362 9.44398Q0.223026 9.36217 0.2926 9.2926Q0.362175 9.22303 0.443985 9.16836Q0.525796 9.1137 0.616699 9.07604Q0.707602 9.03839 0.804105 9.0192Q0.900607 9 0.999 9L29.001 9Q29.0994 9 29.1959 9.0192Q29.2924 9.03839 29.3833 9.07604Q29.4742 9.1137 29.556 9.16836Q29.6378 9.22303 29.7074 9.2926Q29.777 9.36217 29.8316 9.44398Q29.8863 9.52579 29.924 9.6167Q29.9616 9.7076 29.9808 9.8041Q30 9.90061 30 9.999L30 10.001Q30 10.0994 29.9808 10.1959Q29.9616 10.2924 29.924 10.3833Q29.8863 10.4742 29.8316 10.556Q29.777 10.6378 29.7074 10.7074Q29.6378 10.777 29.556 10.8316Q29.4742 10.8863 29.3833 10.924Q29.2924 10.9616 29.1959 10.9808Q29.0994 11 29.001 11L0.999 11Q0.900607 11 0.804105 10.9808Q0.707602 10.9616 0.616699 10.924Q0.525796 10.8863 0.443985 10.8316Q0.362175 10.777 0.2926 10.7074Q0.223026 10.6378 0.168362 10.556Q0.113698 10.4742 0.0760443 10.3833Q0.038391 10.2924 0.0191955 10.1959Q0 10.0994 0 10.001L0 9.999ZM0 18.999Q0 18.9006 0.0191955 18.8041Q0.038391 18.7076 0.0760443 18.6167Q0.113698 18.5258 0.168362 18.444Q0.223026 18.3622 0.2926 18.2926Q0.362175 18.223 0.443985 18.1684Q0.525796 18.1137 0.616699 18.076Q0.707602 18.0384 0.804105 18.0192Q0.900607 18 0.999 18L29.001 18Q29.0994 18 29.1959 18.0192Q29.2924 18.0384 29.3833 18.076Q29.4742 18.1137 29.556 18.1684Q29.6378 18.223 29.7074 18.2926Q29.777 18.3622 29.8316 18.444Q29.8863 18.5258 29.924 18.6167Q29.9616 18.7076 29.9808 18.8041Q30 18.9006 30 18.999L30 19.001Q30 19.0994 29.9808 19.1959Q29.9616 19.2924 29.924 19.3833Q29.8863 19.4742 29.8316 19.556Q29.777 19.6378 29.7074 19.7074Q29.6378 19.777 29.556 19.8316Q29.4742 19.8863 29.3833 19.924Q29.2924 19.9616 29.1959 19.9808Q29.0994 20 29.001 20L0.999 20Q0.900607 20 0.804105 19.9808Q0.707602 19.9616 0.616699 19.924Q0.525796 19.8863 0.443985 19.8316Q0.362175 19.777 0.2926 19.7074Q0.223026 19.6378 0.168362 19.556Q0.113698 19.4742 0.0760443 19.3833Q0.038391 19.2924 0.0191955 19.1959Q0 19.0994 0 19.001L0 18.999Z" id="Menu" fill="#FFFFFF" fill-rule="evenodd" stroke="none" />
</svg>