<?xml version="1.0" encoding="utf-8"?>
<svg width="88px" height="88px" viewbox="0 0 88 88" version="1.1" xmlns:xlink="http://www.w3.org/1999/xlink" xmlns="http://www.w3.org/2000/svg">
  <g id="iconandroid-copy-15">
    <g id="net" transform="translate(4 29)">
      <path d="M2.2562 29.9947C1.65568 30.0053 1.08127 29.7562 0.668734 29.3163C0.235314 28.8869 -0.00489499 28.2986 0.00032694 27.689C-0.0101169 27.0689 0.230092 26.47 0.65829 26.0353C1.07082 25.5954 1.65046 25.3516 2.24576 25.3675C2.86195 25.3569 3.45202 25.606 3.875 26.0565C4.31364 26.4912 4.55907 27.0901 4.54863 27.7102C4.55907 28.3251 4.31364 28.9134 3.88022 29.3375C3.45725 29.7721 2.86717 30.0106 2.2562 29.9947ZM34.0108 29.5389L29.828 29.5389L14.8567 6C14.4807 5.41696 14.1674 4.79682 13.9168 4.15018L13.7967 4.15018C13.9377 5.49647 13.9951 6.85336 13.9586 8.20495L13.9586 29.5389L10.5591 29.5389L10.5591 0.0106007L14.982 0.0106007L29.5512 23.1784C30.1622 24.1378 30.5539 24.7951 30.7314 25.1555L30.8149 25.1555C30.6478 23.7138 30.58 22.2615 30.6113 20.8092L30.6113 0.0106007L34.016 0.0106007L34.0108 29.5389ZM57.0656 29.5389L41.6348 29.5389L41.6348 0.0106007L56.4076 0.0106007L56.4076 3.14311L45.0447 3.14311L45.0447 12.9541L55.5512 12.9541L55.5512 16.0601L45.0447 16.0601L45.0447 26.4011L57.0708 26.4011L57.0708 29.5389L57.0656 29.5389ZM79.9429 3.14311L71.546 3.14311L71.546 29.5389L68.1361 29.5389L68.1361 3.14311L59.7601 3.14311L59.7601 0L79.9429 0L79.9429 3.14311Z" transform="translate(0.05189238 0)" id="Shape" fill="#82CAC7" stroke="none" />
    </g>
  </g>
</svg>