<?xml version="1.0" encoding="utf-8"?>
<svg width="178px" height="48px" viewbox="0 0 178 48" version="1.1" xmlns:xlink="http://www.w3.org/1999/xlink" xmlns="http://www.w3.org/2000/svg">
  <g id="Netflix_2015_logo">
    <path d="M24.3991 44.8642C21.7298 45.333 19.0135 45.4735 16.2037 45.8478L7.63339 20.7464L7.63339 46.9251C4.9641 47.206 2.52892 47.5807 0 47.9553L0 0L7.11856 0L16.8593 27.2094L16.8593 0L24.3991 0L24.3991 44.8642ZM39.151 17.5618C42.0547 17.5618 46.5037 17.4212 49.173 17.4212L49.173 24.9141C45.8478 24.9141 41.961 24.9141 39.151 25.0546L39.151 36.2007C43.5533 35.9198 47.9555 35.5448 52.4042 35.4042L52.4042 42.6159L31.6578 44.2553L31.6578 0L52.4042 0L52.4042 7.49302L39.151 7.49302L39.151 17.5618ZM80.2688 7.4932L72.4949 7.4932L72.4949 41.961C69.966 41.961 67.437 41.961 65.0022 42.0544L65.0022 7.4932L57.2283 7.4932L57.2283 0L80.2692 0L80.2688 7.4932L80.2688 7.4932ZM92.4449 17.0468L102.701 17.0468L102.701 24.5396L92.4449 24.5396L92.4449 41.5396L85.0919 41.5396L85.0919 0L106.026 0L106.026 7.49303L92.4449 7.49303L92.4449 17.0468ZM118.202 34.983C122.464 35.0764 126.772 35.4048 130.94 35.6385L130.94 43.038C124.244 42.6162 117.547 42.1953 110.709 42.0544L110.709 0L118.202 0L118.202 34.983ZM137.262 43.5532C139.651 43.6939 142.18 43.8344 144.615 44.1149L144.615 0L137.262 0L137.262 43.5532ZM177.444 0L167.937 22.8069L177.444 47.9553C174.634 47.5807 171.824 47.0655 169.014 46.5971L163.629 32.7353L158.15 45.4735C155.433 45.0048 152.811 44.8642 150.095 44.4896L159.742 22.5257L151.031 4.92506e-15L159.086 4.92506e-15C159.086 4.92506e-15 161.463 12.5977 164.003 12.5977C166.544 12.5977 169.249 4.92506e-15 169.249 4.92506e-15L177.444 0Z" id="Shape" fill="#E6E8F0" stroke="none" />
  </g>
</svg>