<?xml version="1.0" encoding="utf-8"?>
<svg width="88px" height="88px" viewbox="0 0 88 88" version="1.1" xmlns:xlink="http://www.w3.org/1999/xlink" xmlns="http://www.w3.org/2000/svg">
  <g id="iconandroid-copy-11">
    <g id="js" transform="translate(8 5)">
      <path d="M32.7283 0.842351C34.694 -0.277609 37.2554 -0.283954 39.2211 0.842351C49.1036 6.40408 58.9924 11.9563 68.8749 17.5212C70.7322 18.565 71.9779 20.6241 71.9588 22.7561L71.9588 56.2185C71.9715 58.4394 70.608 60.5492 68.6455 61.5677C58.7949 67.0977 48.9475 72.6372 39.1 78.1672C37.093 79.3093 34.4806 79.2205 32.5372 77.9863C29.5839 76.2826 26.6243 74.5852 23.671 72.8815C23.0689 72.523 22.3871 72.2374 21.9602 71.6536C22.3361 71.1492 23.0115 71.0857 23.5595 70.8636C24.7924 70.4734 25.9234 69.8452 27.0576 69.2392C27.3443 69.0425 27.6947 69.1187 27.9687 69.2932C30.4951 70.7367 32.996 72.2184 35.5319 73.6461C36.0735 73.957 36.6183 73.5446 37.0834 73.2876C46.7492 67.8464 56.431 62.4275 66.0937 56.9831C66.4505 56.8118 66.6512 56.4342 66.6193 56.0408C66.6257 45.003 66.6225 33.9621 66.6225 22.9243C66.6639 22.4801 66.4059 22.074 66.0045 21.8932C56.1825 16.3917 46.3701 10.8776 36.5545 5.36978C36.2073 5.13183 35.7485 5.13183 35.3981 5.36661C25.5825 10.8776 15.7733 16.3981 5.95773 21.9027C5.55632 22.0835 5.2887 22.4864 5.33649 22.9306C5.33968 33.9684 5.33649 45.0094 5.33649 56.0503C5.30145 56.4406 5.5149 56.8118 5.87171 56.9799C8.49047 58.4584 11.1124 59.9274 13.7344 61.4027C15.2094 62.1927 17.0253 62.6654 18.6501 62.0594C20.0869 61.5454 21.0905 60.0892 21.065 58.5695C21.0777 47.5951 21.0586 36.6208 21.0745 25.6464C21.0395 25.1579 21.5014 24.7581 21.9793 24.8025C23.2377 24.793 24.4993 24.7866 25.7577 24.8057C26.2834 24.793 26.6434 25.3197 26.5797 25.8083C26.5733 36.8524 26.5924 47.8965 26.5701 58.9375C26.5733 61.8817 25.3595 65.083 22.626 66.5234C19.2586 68.262 15.0947 67.8908 11.7687 66.2252C8.88871 64.7943 6.13932 63.1032 3.3103 61.5708C1.34463 60.5587 -0.0157196 58.4394 0.000209555 56.2217L0.000209555 22.7593C-0.0189055 20.5828 1.27136 18.4857 3.18924 17.4577C13.0335 11.9214 22.8809 6.38187 32.7283 0.842351Z" transform="translate(0.015719648 0.004757356)" id="Path" fill="#82CAC7" fill-rule="evenodd" stroke="none" />
      <path d="M11.9093 0.109167C16.2038 -0.166857 20.8042 -0.05264 24.6686 2.05403C27.6601 3.66893 29.3199 7.05736 29.3741 10.3696C29.2912 10.817 28.8229 11.0613 28.3928 11.0327C27.1472 11.0296 25.8983 11.0486 24.6527 11.0232C24.1238 11.0423 23.818 10.5568 23.7511 10.0936C23.3943 8.51045 22.5245 6.93997 21.0272 6.17535C18.727 5.03001 16.0636 5.08712 13.5564 5.10933C11.7277 5.20451 9.75885 5.36314 8.20735 6.43551C7.01584 7.24772 6.65585 8.88483 7.07956 10.2047C7.48098 11.1533 8.57691 11.4579 9.4785 11.7403C14.6555 13.0886 20.1415 12.9554 25.2197 14.7289C27.3224 15.4523 29.3773 16.8578 30.0973 19.0501C31.0371 21.988 30.6261 25.5002 28.5266 27.8575C26.8254 29.7992 24.3436 30.8557 21.8714 31.43C18.5804 32.1597 15.1684 32.1787 11.8265 31.8551C8.68523 31.4998 5.41655 30.678 2.99213 28.546C0.918146 26.7534 -0.0949511 23.9583 0.00699583 21.2615C0.0324826 20.8046 0.484872 20.4874 0.924518 20.5254C2.17974 20.5159 3.43496 20.5127 4.69018 20.5286C5.19036 20.4937 5.5631 20.9252 5.58859 21.3948C5.82116 22.9049 6.39142 24.4881 7.71036 25.3828C10.2622 27.0231 13.4608 26.9089 16.3822 26.9565C18.8035 26.8486 21.5178 26.8169 23.493 25.2242C24.5348 24.3168 24.8438 22.7971 24.5635 21.4868C24.2576 20.3827 23.098 19.8687 22.104 19.5324C16.9939 17.9238 11.4473 18.5076 6.38505 16.6865C4.33018 15.9631 2.34222 14.5957 1.55531 12.4954C0.453014 9.51937 0.959562 5.83905 3.27885 3.56105C5.5408 1.29575 8.8031 0.423264 11.9093 0.109167L11.9093 0.109167Z" transform="translate(29.430172 23.91762)" id="Path" fill="#82CAC7" fill-rule="evenodd" stroke="none" />
    </g>
  </g>
</svg>