<?xml version="1.0" encoding="utf-8"?>
<svg width="88px" height="88px" viewbox="0 0 88 88" version="1.1" xmlns:xlink="http://www.w3.org/1999/xlink" xmlns="http://www.w3.org/2000/svg">
  <g id="iconandroid-copy-9">
    <g id="php" transform="translate(8 13)">
      <path d="M64.2105 0L7.64912 0C3.42456 0 0 3.42262 0 7.6448L0 54.2851C0 58.4932 3.42456 61.9299 7.64912 61.9299L64.2246 61.9299C68.4351 61.9299 71.8737 58.5072 71.8737 54.2851L71.8737 7.6448C71.8596 3.42262 68.4351 0 64.2105 0ZM67.6491 54.271C67.6491 56.1647 66.1053 57.7077 64.2105 57.7077L7.64912 57.7077C5.75439 57.7077 4.21053 56.1647 4.21053 54.271L4.21053 14.6023L67.6491 14.6023L67.6491 54.271L67.6491 54.271ZM67.6491 10.3941L4.21053 10.3941L4.21053 7.6448C4.21053 5.75113 5.75439 4.20814 7.64912 4.20814L52.5474 4.20814L52.5474 6.719C52.5474 7.88326 53.4877 8.82308 54.6526 8.82308C55.8175 8.82308 56.7579 7.88326 56.7579 6.719L56.7579 4.20814L58.6947 4.20814L58.6947 6.719C58.6947 7.88326 59.6351 8.82308 60.8 8.82308C61.9649 8.82308 62.9053 7.88326 62.9053 6.719L62.9053 4.20814L64.2105 4.20814C66.1053 4.20814 67.6491 5.75113 67.6491 7.6448L67.6491 10.3941L67.6491 10.3941Z" transform="translate(0 0.04208145)" id="Shape" fill="#82CAC7" stroke="none" />
      <path d="M4.25263 1.90419C4.2386 1.83405 4.2386 1.76391 4.22456 1.70781C4.21053 1.63767 4.19649 1.56753 4.16842 1.51143C4.15439 1.44129 4.12632 1.38518 4.09825 1.31505C4.07018 1.25894 4.04211 1.1888 4.01404 1.13269C3.98597 1.07658 3.94386 1.02048 3.90175 0.950339C3.85965 0.894231 3.81754 0.838122 3.77544 0.782014C3.73333 0.725905 3.69123 0.669796 3.63509 0.627715C3.59298 0.585633 3.53684 0.529525 3.4807 0.487443C3.42456 0.445362 3.36842 0.403281 3.31228 0.361199C3.25614 0.319118 3.2 0.291063 3.12982 0.248982C3.05965 0.2069 3.00351 0.192873 2.94737 0.164819C2.89123 0.136765 2.82105 0.122738 2.75088 0.0946833C2.6807 0.0806561 2.62456 0.0526018 2.55439 0.0385747C2.48421 0.0245475 2.41404 0.0105204 2.34386 0.0105204C2.20351 -0.00350679 2.06316 -0.00350679 1.92281 0.0105204C1.85263 0.0245475 1.78246 0.0245475 1.71228 0.0385747C1.64211 0.0526018 1.57193 0.066629 1.51579 0.0946833C1.44561 0.122738 1.38947 0.136765 1.3193 0.164819C1.24912 0.192873 1.19298 0.220928 1.13684 0.248982C1.0807 0.277036 1.01053 0.319118 0.954386 0.361199C0.898246 0.403281 0.842105 0.445362 0.785965 0.487443C0.729825 0.529525 0.673684 0.585633 0.631579 0.627715C0.589474 0.669796 0.533333 0.725905 0.491228 0.782014C0.449123 0.838122 0.407018 0.894231 0.364912 0.950339C0.322807 1.00645 0.294737 1.06256 0.252632 1.13269C0.210526 1.20283 0.196491 1.25894 0.168421 1.31505C0.140351 1.37115 0.126316 1.44129 0.0982456 1.51143C0.0842105 1.58156 0.0561404 1.63767 0.0421053 1.70781C0.0280702 1.77794 0.0140351 1.84808 0.0140351 1.90419C0.0140351 1.97432 0 2.04446 0 2.11459C0 2.18473 0 2.25486 0.0140351 2.325C0.0140351 2.39514 0.0280702 2.46527 0.0421053 2.53541C0.0561404 2.60554 0.0701754 2.67568 0.0982456 2.73179C0.112281 2.80192 0.140351 2.85803 0.168421 2.92817C0.196491 2.98428 0.224561 3.05441 0.252632 3.11052C0.280702 3.16663 0.322807 3.23676 0.364912 3.29287C0.407018 3.34898 0.449123 3.40509 0.491228 3.4612C0.533333 3.51731 0.575439 3.57342 0.631579 3.6155C0.673684 3.65758 0.729825 3.71369 0.785965 3.75577C0.842105 3.79785 0.898246 3.83993 0.954386 3.88201C1.01053 3.92409 1.06667 3.95215 1.13684 3.99423C1.19298 4.02228 1.26316 4.05034 1.3193 4.07839C1.38947 4.10645 1.44561 4.12047 1.51579 4.14853C1.58597 4.16256 1.65614 4.19061 1.71228 4.20464C1.78246 4.21867 1.85263 4.23269 1.92281 4.23269C1.99298 4.23269 2.06316 4.24672 2.13333 4.24672C2.20351 4.24672 2.27368 4.24672 2.34386 4.23269C2.41404 4.21867 2.48421 4.21867 2.55439 4.20464C2.62456 4.19061 2.6807 4.17658 2.75088 4.14853C2.82105 4.12047 2.87719 4.10645 2.94737 4.07839C3.01754 4.05034 3.07368 4.02228 3.12982 3.99423C3.18597 3.96618 3.24211 3.92409 3.31228 3.88201C3.38246 3.83993 3.42456 3.79785 3.4807 3.75577C3.53684 3.71369 3.59298 3.65758 3.63509 3.6155C3.67719 3.57342 3.73333 3.51731 3.77544 3.4612C3.81754 3.40509 3.85965 3.34898 3.90175 3.29287C3.94386 3.23676 3.97193 3.18066 4.01404 3.11052C4.05614 3.04038 4.07018 2.98428 4.09825 2.92817C4.12632 2.87206 4.14035 2.80192 4.16842 2.73179C4.18246 2.66165 4.21053 2.60554 4.22456 2.53541C4.2386 2.46527 4.25263 2.39514 4.25263 2.325C4.26667 2.25486 4.26667 2.18473 4.26667 2.11459C4.26667 2.04446 4.26667 1.97432 4.25263 1.90419Z" transform="translate(6.891228 5.2496605)" id="Path" fill="#82CAC7" fill-rule="evenodd" stroke="none" />
      <path d="M4.2386 1.90419C4.22456 1.83405 4.22456 1.76391 4.21053 1.70781C4.19649 1.63767 4.18246 1.56753 4.15439 1.51143C4.12632 1.44129 4.11228 1.38518 4.08421 1.31505C4.05614 1.24491 4.02807 1.1888 4 1.13269C3.97193 1.07658 3.92982 1.02048 3.88772 0.950339C3.84561 0.880204 3.80351 0.838122 3.7614 0.782014C3.7193 0.725905 3.66316 0.669796 3.62105 0.627715C3.57895 0.585633 3.52281 0.529525 3.46667 0.487443C3.41053 0.445362 3.35439 0.403281 3.29825 0.361199C3.24211 0.319118 3.18596 0.291063 3.11579 0.248982C3.04561 0.2069 2.98947 0.192873 2.93333 0.164819C2.87719 0.136765 2.80702 0.122738 2.73684 0.0946833C2.66667 0.0806561 2.61053 0.0526018 2.54035 0.0385747C2.47018 0.0245475 2.4 0.0105204 2.32982 0.0105204C2.18947 -0.00350679 2.04912 -0.00350679 1.90877 0.0105204C1.8386 0.0245475 1.76842 0.0245475 1.71228 0.0385747C1.64211 0.0526018 1.57193 0.066629 1.51579 0.0946833C1.44561 0.122738 1.38947 0.136765 1.3193 0.164819C1.24912 0.192873 1.19298 0.220928 1.13684 0.248982C1.0807 0.277036 1.02456 0.319118 0.954386 0.361199C0.884211 0.403281 0.842105 0.445362 0.785965 0.487443C0.729825 0.529525 0.673684 0.585633 0.631579 0.627715C0.589474 0.669796 0.533333 0.725905 0.491228 0.782014C0.449123 0.838122 0.407018 0.894231 0.364912 0.950339C0.322807 1.00645 0.294737 1.06256 0.252632 1.13269C0.224561 1.1888 0.196491 1.25894 0.168421 1.31505C0.140351 1.37115 0.112281 1.44129 0.0982456 1.51143C0.0842105 1.58156 0.0561404 1.63767 0.0421053 1.70781C0.0280702 1.77794 0.0140351 1.84808 0.0140351 1.90419C0 1.97432 0 2.04446 0 2.11459C0 2.18473 0 2.25486 0.0140351 2.325C0.0280702 2.39514 0.0280702 2.46527 0.0421053 2.53541C0.0561404 2.60554 0.0701754 2.67568 0.0982456 2.73179C0.112281 2.80192 0.140351 2.85803 0.168421 2.92817C0.196491 2.98428 0.224561 3.05441 0.252632 3.11052C0.280702 3.16663 0.322807 3.23676 0.364912 3.29287C0.407018 3.34898 0.449123 3.40509 0.491228 3.4612C0.533333 3.51731 0.589474 3.57342 0.631579 3.6155C0.673684 3.65758 0.729825 3.71369 0.785965 3.75577C0.842105 3.79785 0.898246 3.83993 0.954386 3.88201C1.01053 3.92409 1.06667 3.95215 1.13684 3.99423C1.20702 4.03631 1.26316 4.05034 1.3193 4.07839C1.37544 4.10645 1.44561 4.12047 1.51579 4.14853C1.58596 4.16256 1.64211 4.19061 1.71228 4.20464C1.78246 4.21867 1.85263 4.23269 1.90877 4.23269C1.97895 4.23269 2.04912 4.24672 2.1193 4.24672C2.18947 4.24672 2.25965 4.24672 2.32982 4.23269C2.4 4.21867 2.47018 4.21867 2.54035 4.20464C2.61053 4.19061 2.6807 4.17658 2.73684 4.14853C2.80702 4.12047 2.86316 4.10645 2.93333 4.07839C3.00351 4.05034 3.05965 4.02228 3.11579 3.99423C3.17193 3.96618 3.24211 3.92409 3.29825 3.88201C3.35439 3.83993 3.41053 3.79785 3.46667 3.75577C3.52281 3.71369 3.57895 3.65758 3.62105 3.6155C3.66316 3.57342 3.7193 3.51731 3.7614 3.4612C3.80351 3.40509 3.84561 3.34898 3.88772 3.29287C3.92982 3.23676 3.95789 3.18066 4 3.11052C4.04211 3.04038 4.05614 2.98428 4.08421 2.92817C4.11228 2.87206 4.12632 2.80192 4.15439 2.73179C4.16842 2.66165 4.19649 2.60554 4.21053 2.53541C4.22456 2.46527 4.2386 2.39514 4.2386 2.325C4.2386 2.25486 4.25263 2.18473 4.25263 2.11459C4.25263 2.04446 4.2386 1.97432 4.2386 1.90419Z" transform="translate(12.870175 5.2496605)" id="Path" fill="#82CAC7" fill-rule="evenodd" stroke="none" />
      <path d="M4.2386 1.90419C4.22456 1.83405 4.22456 1.76391 4.21053 1.70781C4.19649 1.63767 4.18246 1.56753 4.15439 1.51143C4.14035 1.44129 4.11228 1.38518 4.08421 1.31505C4.05614 1.24491 4.02807 1.1888 4 1.13269C3.97193 1.07658 3.92982 1.02048 3.88772 0.950339C3.84561 0.880204 3.80351 0.838122 3.7614 0.782014C3.7193 0.725905 3.67719 0.669796 3.62105 0.627715C3.57895 0.585633 3.52281 0.529525 3.46667 0.487443C3.41053 0.445362 3.35439 0.403281 3.29825 0.361199C3.24211 0.319118 3.18596 0.291063 3.11579 0.248982C3.05965 0.220928 2.98947 0.192873 2.93333 0.164819C2.87719 0.136765 2.80702 0.122738 2.73684 0.0946833C2.66667 0.0806561 2.61053 0.0526018 2.54035 0.0385747C2.47018 0.0245475 2.4 0.0105204 2.32982 0.0105204C2.18947 -0.00350679 2.04912 -0.00350679 1.90877 0.0105204C1.8386 0.0245475 1.76842 0.0245475 1.71228 0.0385747C1.64211 0.0526018 1.57193 0.066629 1.51579 0.0946833C1.44561 0.122738 1.38947 0.136765 1.3193 0.164819C1.24912 0.192873 1.19298 0.220928 1.13684 0.248982C1.0807 0.277036 1.01053 0.319118 0.954386 0.361199C0.898246 0.403281 0.842105 0.445362 0.785965 0.487443C0.729825 0.529525 0.673684 0.585633 0.631579 0.627715C0.589474 0.669796 0.533333 0.725905 0.491228 0.782014C0.449123 0.838122 0.407018 0.894231 0.364912 0.950339C0.322807 1.00645 0.294737 1.06256 0.252632 1.13269C0.210526 1.20283 0.196491 1.25894 0.168421 1.31505C0.140351 1.37115 0.112281 1.44129 0.0982456 1.51143C0.0842105 1.58156 0.0561404 1.63767 0.0421053 1.70781C0.0280702 1.77794 0.0140351 1.84808 0.0140351 1.90419C0 1.97432 0 2.04446 0 2.11459C0 2.18473 0 2.25486 0.0140351 2.325C0.0280702 2.39514 0.0280702 2.46527 0.0421053 2.53541C0.0561404 2.60554 0.0701754 2.67568 0.0982456 2.73179C0.112281 2.80192 0.140351 2.85803 0.168421 2.92817C0.196491 2.9983 0.224561 3.05441 0.252632 3.11052C0.280702 3.16663 0.322807 3.23676 0.364912 3.29287C0.407018 3.34898 0.449123 3.40509 0.491228 3.4612C0.533333 3.51731 0.575439 3.57342 0.631579 3.6155C0.687719 3.65758 0.729825 3.71369 0.785965 3.75577C0.842105 3.79785 0.898246 3.83993 0.954386 3.88201C1.01053 3.92409 1.06667 3.95215 1.13684 3.99423C1.20702 4.03631 1.26316 4.05034 1.3193 4.07839C1.37544 4.10645 1.44561 4.12047 1.51579 4.14853C1.58596 4.16256 1.64211 4.19061 1.71228 4.20464C1.78246 4.21867 1.85263 4.23269 1.90877 4.23269C1.97895 4.23269 2.04912 4.24672 2.1193 4.24672C2.18947 4.24672 2.25965 4.24672 2.32982 4.23269C2.4 4.21867 2.47018 4.21867 2.54035 4.20464C2.61053 4.19061 2.6807 4.17658 2.73684 4.14853C2.80702 4.12047 2.86316 4.10645 2.93333 4.07839C3.00351 4.05034 3.05965 4.02228 3.11579 3.99423C3.17193 3.96618 3.24211 3.92409 3.29825 3.88201C3.35439 3.83993 3.41053 3.79785 3.46667 3.75577C3.52281 3.71369 3.57895 3.65758 3.62105 3.6155C3.67719 3.57342 3.7193 3.51731 3.7614 3.4612C3.80351 3.40509 3.84561 3.34898 3.88772 3.29287C3.92982 3.23676 3.95789 3.18066 4 3.11052C4.04211 3.04038 4.05614 2.98428 4.08421 2.92817C4.11228 2.87206 4.14035 2.80192 4.15439 2.73179C4.16842 2.66165 4.19649 2.60554 4.21053 2.53541C4.22456 2.46527 4.2386 2.39514 4.2386 2.325C4.2386 2.25486 4.25263 2.18473 4.25263 2.11459C4.25263 2.04446 4.2386 1.97432 4.2386 1.90419Z" transform="translate(18.905264 5.2496605)" id="Path" fill="#82CAC7" fill-rule="evenodd" stroke="none" />
      <path d="M10.5404 1.38869C9.48772 0.462896 8.08421 0 6.34386 0L1.23509 0C0.85614 0 0.561404 0.0981901 0.336842 0.308597C0.112281 0.504977 0 0.743439 0 1.02398L0 17.548C0 17.8706 0.154386 18.1231 0.477193 18.3054C0.8 18.4878 1.19298 18.586 1.64211 18.586C2.07719 18.586 2.47018 18.4878 2.79298 18.3054C3.12982 18.1231 3.28421 17.8706 3.28421 17.548L3.28421 11.6566L6.13333 11.6566C7.92982 11.6566 9.37544 11.1937 10.4702 10.2538C11.5649 9.32805 12.1123 7.86923 12.1123 5.87738L12.1123 5.72308C12.1263 3.75928 11.593 2.31448 10.5404 1.38869ZM8.81404 6.14389C8.81404 7.11176 8.57544 7.84118 8.11228 8.33213C7.64912 8.82308 6.98947 9.07557 6.13333 9.07557L3.28421 9.07557L3.28421 2.91765L6.13333 2.91765C6.97544 2.91765 7.63509 3.17014 8.11228 3.66109C8.57544 4.15204 8.81404 4.88145 8.81404 5.84932L8.81404 6.14389Z" transform="translate(15.28421 23.832127)" id="Shape" fill="#82CAC7" stroke="none" />
      <path d="M11.8175 0.252489C11.4947 0.0841629 11.1018 3.98676e-15 10.6526 3.98676e-15C10.2035 3.98676e-15 9.81053 0.0841629 9.48772 0.252489C9.16491 0.420814 9.01053 0.673303 9.01053 1.00995L9.01053 7.6448L3.28421 7.6448L3.28421 1.00995C3.28421 0.673303 3.12982 0.420814 2.80702 0.252489C2.48421 0.0841629 2.09123 0 1.64211 0C1.17895 0 0.8 0.0841629 0.477193 0.252489C0.154386 0.420814 0 0.673303 0 1.00995L0 17.5339C0 17.8566 0.154386 18.109 0.477193 18.2914C0.8 18.4738 1.19298 18.5719 1.64211 18.5719C2.07719 18.5719 2.47018 18.4738 2.79298 18.2914C3.12982 18.109 3.28421 17.8566 3.28421 17.5339L3.28421 10.2398L9.01053 10.2398L9.01053 17.5339C9.01053 17.8566 9.16491 18.109 9.48772 18.2914C9.81053 18.4738 10.2035 18.5719 10.6526 18.5719C11.0877 18.5719 11.4807 18.4738 11.8035 18.2914C12.1404 18.109 12.2947 17.8566 12.2947 17.5339L12.2947 1.00995C12.2947 0.673303 12.1404 0.420814 11.8175 0.252489Z" transform="translate(29.487719 23.846153)" id="Path" fill="#82CAC7" fill-rule="evenodd" stroke="none" />
      <path d="M10.5404 1.38869C9.48772 0.462896 8.08421 0 6.34386 0L1.23509 0C0.85614 0 0.561404 0.0981901 0.336842 0.308597C0.112281 0.504977 0 0.743439 0 1.02398L0 17.548C0 17.8706 0.154386 18.1231 0.477193 18.3054C0.8 18.4878 1.19298 18.586 1.64211 18.586C2.07719 18.586 2.47018 18.4878 2.79298 18.3054C3.12982 18.1231 3.28421 17.8706 3.28421 17.548L3.28421 11.6566L6.13333 11.6566C7.92982 11.6566 9.37544 11.1937 10.4702 10.2538C11.5649 9.32805 12.1123 7.86923 12.1123 5.87738L12.1123 5.72308C12.1123 3.75928 11.593 2.31448 10.5404 1.38869ZM8.81404 6.14389C8.81404 7.11176 8.57544 7.84118 8.11228 8.33213C7.64912 8.82308 6.98947 9.07557 6.13333 9.07557L3.28421 9.07557L3.28421 2.91765L6.13333 2.91765C6.97544 2.91765 7.63509 3.17014 8.11228 3.66109C8.57544 4.15204 8.81404 4.88145 8.81404 5.84932L8.81404 6.14389L8.81404 6.14389Z" transform="translate(44.85614 23.832127)" id="Shape" fill="#82CAC7" stroke="none" />
      <path d="M39.4947 0L2.10526 0C0.940351 0 0 0.939819 0 2.10407C0 3.26833 0.940351 4.20814 2.10526 4.20814L39.4947 4.20814C40.6596 4.20814 41.6 3.26833 41.6 2.10407C41.6 0.939819 40.6456 0 39.4947 0Z" transform="translate(15.396491 45.391853)" id="Path" fill="#82CAC7" fill-rule="evenodd" stroke="none" />
    </g>
  </g>
</svg>