<?xml version="1.0" encoding="utf-8"?>
<svg width="88px" height="88px" viewbox="0 0 88 88" version="1.1" xmlns:xlink="http://www.w3.org/1999/xlink" xmlns="http://www.w3.org/2000/svg">
  <g id="iconandroid-copy-14">
    <g id="python" transform="translate(8 8)">
      <path d="M71.8438 36.7935C71.8131 37.2397 71.7977 37.6704 71.767 38.1166C71.6135 40.6704 71.1069 43.1474 69.9709 45.4704C69.1419 47.1474 68.0673 48.6243 66.5474 49.7474C65.2272 50.7166 63.738 51.2858 62.1261 51.5166C61.2511 51.6397 60.3606 51.6397 59.4856 51.6397C57.9965 51.6397 56.492 51.6397 55.0029 51.6397C51.1189 51.6397 47.2348 51.6397 43.3662 51.6397C41.8003 51.6397 40.2344 51.6397 38.6685 51.6397C38.4229 51.6397 38.1619 51.6243 37.9163 51.6089C37.64 51.5935 37.5479 51.6397 37.5018 51.9166C37.425 52.3012 37.4404 52.6704 37.5172 53.0397C37.5479 53.1935 37.6553 53.2397 37.7935 53.2397C38.0545 53.2243 38.3154 53.2089 38.5764 53.2089C41.9078 53.2089 45.2238 53.2089 48.5551 53.2089C49.7679 53.2089 50.9807 53.1935 52.1935 53.1935C52.347 53.1935 52.5005 53.2089 52.654 53.2243C52.9304 53.2704 53.0685 53.3935 53.0992 53.6704C53.1146 53.8243 53.1299 53.9935 53.1299 54.1474C53.1299 56.132 53.0992 58.1166 53.1146 60.1012C53.1299 61.9781 52.7769 63.7474 51.825 65.3781C50.9807 66.8089 49.8293 67.932 48.463 68.855C46.6361 70.1012 44.6097 70.8858 42.4604 71.3474C40.7871 71.7166 39.083 71.8704 37.379 71.932C36.028 71.9935 34.6771 71.9935 33.3415 71.8858C30.4246 71.6704 27.6152 71.0858 24.9747 69.7935C23.3474 68.9935 21.9351 67.9012 20.799 66.4704C19.402 64.7166 18.7265 62.7012 18.7265 60.455C18.7419 57.8089 18.7419 55.1627 18.7419 52.5166C18.7419 52.3474 18.7265 52.1627 18.7112 51.9935C18.6805 51.7935 18.5423 51.6704 18.3427 51.6397C18.1739 51.6089 18.005 51.6089 17.8361 51.6089C15.6101 51.6089 13.3688 51.6243 11.1427 51.6089C9.03954 51.5935 7.08986 51.0397 5.35511 49.7781C3.94274 48.7627 2.91417 47.4243 2.10052 45.9012C1.14871 44.1166 0.580692 42.2089 0.289008 40.2089C-0.0180287 38.0397 -0.0640841 35.8704 0.0740822 33.7012C0.2276 31.4089 0.657451 29.1781 1.59391 27.055C2.30009 25.4858 3.20585 24.0397 4.4954 22.8704C5.95383 21.5166 7.68858 20.7474 9.65361 20.4704C10.8511 20.3012 12.0331 20.3474 13.2306 20.3474C15.4566 20.3474 17.698 20.3474 19.924 20.3474C21.1675 20.3474 22.411 20.3474 23.6545 20.3474C26.9398 20.3474 30.225 20.3627 33.5257 20.3627C33.6638 20.3627 33.8174 20.3474 33.9555 20.332C34.1858 20.3012 34.3393 20.1474 34.3547 19.9166C34.37 19.6858 34.37 19.4397 34.3547 19.2089C34.324 18.9627 34.1858 18.8397 33.9402 18.7935C33.8174 18.7781 33.6945 18.7627 33.5717 18.7627C28.9048 18.7781 24.2532 18.7781 19.5862 18.7935C19.4327 18.7935 19.2792 18.7935 19.1257 18.7627C18.8647 18.732 18.7419 18.5935 18.7112 18.3474C18.6958 18.2397 18.6958 18.1166 18.6958 17.9935C18.6958 15.9627 18.7265 13.9166 18.7112 11.8858C18.6958 10.1166 19.0029 8.43966 19.8472 6.87043C20.6455 5.39351 21.7969 4.23966 23.1479 3.27043C25.0208 1.94736 27.1086 1.11659 29.35 0.624279C31.8523 0.0858173 34.37 -0.0372596 36.9184 0.00889423C39.2212 0.0396635 41.4933 0.331971 43.7039 0.96274C45.5308 1.48582 47.2809 2.19351 48.8161 3.33197C50.428 4.51659 51.7022 5.97812 52.4391 7.85505C52.8843 8.99351 53.0839 10.1627 53.0839 11.3781C53.0839 14.1166 53.0839 16.8704 53.0839 19.6089C53.0839 20.2397 53.2067 20.3627 53.8361 20.3627C56.0928 20.3627 58.3649 20.3474 60.6216 20.3627C62.6327 20.3781 64.5056 20.855 66.1943 21.9935C67.5914 22.932 68.6506 24.1935 69.495 25.6397C70.5543 27.4704 71.1837 29.4397 71.5061 31.5166C71.6903 32.6704 71.7824 33.8397 71.8131 35.0089C71.8131 35.0704 71.8285 35.1474 71.8438 35.2089C71.8438 35.7166 71.8438 36.255 71.8438 36.7935ZM23.8694 23.4397C23.8694 23.4397 23.8694 23.4397 23.8694 23.4397C20.2924 23.4397 16.7154 23.4243 13.1385 23.4397C12.1867 23.4397 11.2502 23.4243 10.3137 23.5166C8.7018 23.6704 7.33549 24.3935 6.23016 25.5781C5.20159 26.6704 4.52611 27.9781 4.03485 29.3935C3.42078 31.1627 3.20585 32.9935 3.12909 34.8397C3.03698 36.7474 3.11374 38.655 3.49754 40.532C3.83528 42.1627 4.37259 43.7166 5.26299 45.132C6.64466 47.3627 8.64039 48.5166 11.2809 48.532C11.8643 48.532 12.4476 48.5012 13.031 48.5012C14.6737 48.5012 16.3317 48.5166 17.9743 48.532C18.6191 48.532 18.7572 48.3935 18.7419 47.7627C18.7419 45.9781 18.7265 44.2089 18.7265 42.4243C18.7265 41.9012 18.7726 41.3781 18.8647 40.855C19.3253 38.5012 20.6302 36.7166 22.6566 35.4858C23.9769 34.6858 25.4506 34.4243 26.9858 34.4243C32.8656 34.4243 38.7453 34.4243 44.6097 34.4243C45.2084 34.4243 45.8071 34.3935 46.3905 34.2397C48.6319 33.6858 49.8907 31.932 49.9368 29.8243C49.9675 28.5781 49.9675 27.3166 49.9675 26.0704C49.9675 21.132 49.9521 16.1935 49.9675 11.2397C49.9675 9.62428 49.4302 8.22428 48.3402 7.02428C47.2809 5.85505 46.0067 5.03966 44.5483 4.47043C42.2455 3.57813 39.8353 3.19351 37.379 3.08582C35.5368 2.99351 33.6945 3.1012 31.8677 3.33197C30.6549 3.48582 29.4728 3.71659 28.3061 4.1012C26.6481 4.65505 25.1129 5.45505 23.8233 6.68582C22.5338 7.93197 21.843 9.45505 21.8123 11.255C21.7969 12.0858 21.843 12.9012 21.843 13.732C21.843 14.1781 21.8123 14.6243 21.8123 15.0704C21.8123 15.4397 21.9811 15.6243 22.3496 15.6397C22.4417 15.6397 22.5184 15.6397 22.6105 15.6397C27.3082 15.6243 32.0059 15.6243 36.7035 15.6089C37.3176 15.6089 37.4404 15.732 37.4404 16.3474C37.4404 18.4704 37.4404 20.6089 37.4404 22.732C37.4404 23.3166 37.3176 23.4397 36.7342 23.4397C36.1815 23.4397 35.6289 23.4243 35.0916 23.4243C31.3611 23.4397 27.6152 23.4397 23.8694 23.4397ZM60.2992 48.5012C61.8037 48.3627 63.2775 47.9012 64.5824 47.1781C65.8719 46.4704 66.701 45.0704 67.2997 43.7781C68.098 42.055 68.4664 40.2243 68.6046 38.3474C68.7274 36.8704 68.7581 35.3781 68.6506 33.9012C68.5739 32.8089 68.405 31.7166 68.1287 30.655C67.7295 29.1474 67.1615 27.7012 66.2557 26.4089C64.9048 24.5012 63.0626 23.5166 60.7444 23.455C60.1304 23.4397 59.5009 23.4858 58.8715 23.4858C57.1521 23.4858 55.4327 23.4704 53.7133 23.455C53.1607 23.455 53.0685 23.5474 53.0685 24.1012C53.0685 25.8397 53.0839 27.5935 53.0685 29.332C53.0685 29.9627 53.0071 30.5935 52.8997 31.2089C52.6387 32.7166 51.9018 33.9935 50.8579 35.1012C49.3841 36.655 47.5572 37.4704 45.4387 37.532C44.011 37.5781 42.5679 37.5474 41.1402 37.5474C36.3811 37.5474 31.6221 37.5474 26.863 37.5474C26.0647 37.5474 25.2971 37.6704 24.5756 38.0089C22.8101 38.8089 21.9811 40.2551 21.8737 42.132C21.7969 43.332 21.843 44.532 21.843 45.732C21.843 49.655 21.843 53.5781 21.843 57.4858C21.843 58.6858 21.8276 59.9012 21.8737 61.1012C21.9197 62.4704 22.4417 63.6704 23.3167 64.7012C24.3453 65.9166 25.6195 66.7781 27.0779 67.3781C29.4728 68.3627 31.9905 68.7627 34.5543 68.8704C36.0127 68.932 37.4557 68.8704 38.8988 68.732C40.1116 68.6089 41.3244 68.4397 42.5218 68.132C44.3948 67.6397 46.1449 66.8704 47.634 65.5935C49.1845 64.2704 50.0135 62.5935 49.9982 60.532C49.9982 59.7012 49.9675 58.8858 49.9675 58.055C49.9675 57.655 49.9982 57.255 49.9982 56.8704C49.9982 56.532 49.8293 56.3474 49.4916 56.332C49.4302 56.332 49.3534 56.332 49.292 56.332C48.6626 56.332 48.0331 56.332 47.4037 56.332C43.443 56.332 39.4822 56.3474 35.5214 56.3474C35.2758 56.3474 35.0302 56.3474 34.7845 56.332C34.5389 56.3166 34.4314 56.2089 34.3854 55.9781C34.3547 55.8089 34.3547 55.6397 34.3547 55.4704C34.3547 53.8704 34.37 52.2858 34.37 50.6858C34.37 50.1474 34.3547 49.6089 34.3547 49.0704C34.3547 48.7166 34.4775 48.5935 34.8152 48.5474C34.9534 48.532 35.0916 48.532 35.2297 48.532C35.982 48.532 36.7496 48.5474 37.5018 48.5474C40.9713 48.5474 44.4408 48.5474 47.9103 48.5474C47.9103 48.5012 59.1172 48.6089 60.1764 48.532C60.2225 48.5012 60.2532 48.5012 60.2992 48.5012Z" transform="translate(0.018028654 0.0064903847)" id="Shape" fill="#82CAC7" stroke="none" />
      <path d="M3.10107 6.20013C1.41237 6.20013 0 4.76936 0 3.07705C0 1.38474 1.41237 -0.015259 3.13177 0.000125599C4.83582 0.000125599 6.21748 1.36936 6.21748 3.07705C6.23284 4.80013 4.83582 6.20013 3.10107 6.20013Z" transform="translate(24.99275 7.8460283)" id="Path" fill="#82CAC7" fill-rule="evenodd" stroke="none" />
      <path d="M3.10107 6.21538C1.38166 6.21538 0.0153518 4.84615 0 3.13846C0 1.41538 1.38166 0 3.10107 0C4.80512 0 6.23284 1.43077 6.23284 3.13846C6.21748 4.81538 4.80512 6.21538 3.10107 6.21538Z" transform="translate(40.636246 57.923077)" id="Path" fill="#82CAC7" fill-rule="evenodd" stroke="none" />
    </g>
  </g>
</svg>