<?xml version="1.0" encoding="utf-8"?>
<svg width="88px" height="88px" viewbox="0 0 88 88" version="1.1" xmlns:xlink="http://www.w3.org/1999/xlink" xmlns="http://www.w3.org/2000/svg">
  <g id="iconandroid-copy-12">
    <path d="M57.2124 6.99068L55.7321 1.12918C55.6676 0.873906 55.5355 0.641101 55.3496 0.45521C54.7779 -0.116516 53.8482 -0.113837 53.2732 0.461193L44.2383 9.49608C43.8725 9.86193 43.7244 10.3919 43.8482 10.892L45.0146 15.6016L44.6196 15.9989C39.8946 11.9576 33.7724 9.5191 27.0839 9.5191C12.1259 9.5191 0 21.7151 0 36.7595C0 51.804 12.1259 64 27.0839 64C42.0419 64 54.1678 51.804 54.1678 36.7595C54.1678 30.0324 51.7433 23.8748 47.7252 19.1224L47.9122 18.9344L53.1949 20.2389C53.6948 20.3623 54.2243 20.2141 54.5899 19.8485L63.6039 10.8345C63.7944 10.644 63.9292 10.4053 63.9938 10.1442C64.1888 9.35597 63.7088 8.56262 62.9217 8.37216L57.2124 6.99068ZM48.5234 11.4222L52.722 7.22359L53.5877 10.6514L56.7988 11.4284L52.6628 15.5644L49.3464 14.7454L48.5234 11.4222ZM27.0839 13.9365C32.5593 13.9365 37.5817 15.8869 41.5018 19.1347L25.5311 35.1978C24.6735 36.0603 24.6735 37.4588 25.5311 38.3213C26.3887 39.1839 27.7791 39.1839 28.6367 38.3213L44.6074 22.2583C47.8366 26.2011 49.7758 31.2525 49.7758 36.7595C49.7758 49.3644 39.6163 59.5826 27.0839 59.5826C14.5515 59.5826 4.39198 49.3644 4.39198 36.7595C4.39198 24.1547 14.5515 13.9365 27.0839 13.9365ZM14.6399 36.7595C14.6399 29.8472 20.2113 24.2437 27.0839 24.2437C28.2967 24.2437 29.2799 25.2325 29.2799 26.4524C29.2799 27.6722 28.2967 28.661 27.0839 28.661C22.6369 28.661 19.0319 32.2869 19.0319 36.7595C19.0319 41.2322 22.6369 44.8581 27.0839 44.8581C31.5309 44.8581 35.1359 41.2322 35.1359 36.7595C35.1359 35.5397 36.119 34.5509 37.3318 34.5509C38.5447 34.5509 39.5278 35.5397 39.5278 36.7595C39.5278 43.6719 33.9565 49.2754 27.0839 49.2754C20.2113 49.2754 14.6399 43.6719 14.6399 36.7595Z" transform="translate(12 12)" id="Combined-Shape" fill="#82CAC7" fill-rule="evenodd" stroke="none" />
  </g>
</svg>