<?xml version="1.0" encoding="utf-8"?>
<svg width="88px" height="88px" viewbox="0 0 88 88" version="1.1" xmlns:xlink="http://www.w3.org/1999/xlink" xmlns="http://www.w3.org/2000/svg">
  <g id="icon48eye-copy-6">
    <path d="M63.451 12.5991C62.7186 11.8672 61.5316 11.8672 60.7991 12.5991L54.7743 18.624C54.1234 19.2754 54.0516 20.2866 54.5584 21.0176C56.5843 24.0791 56.6903 28.0967 54.826 31.2607L50.4461 38.6929C50.1512 39.1948 49.4432 39.2412 49.0814 38.791L49.0809 38.791C49.0765 38.7852 49.0716 38.7798 49.0672 38.7739C48.3358 37.8564 47.9335 36.7065 47.9335 35.5337L47.9335 26.96C47.9335 26.9561 47.9335 26.9517 47.9335 26.9473C47.9154 24.27 45.723 22.0918 43.0458 22.0918C42.6542 22.0918 42.2733 22.1377 41.9081 22.2251L41.9081 20.9541C41.9081 18.2593 39.7157 16.0664 37.0209 16.0664C36.371 16.0664 35.7499 16.1943 35.182 16.4258C34.851 15.8774 34.414 15.4004 33.9013 15.02L36.2587 12.6626C38.2811 10.6406 41.0761 9.5874 43.9291 9.771C44.4667 9.80615 44.9945 9.60742 45.3758 9.22607L51.4007 3.20068C52.1327 2.46875 52.1327 1.28125 51.4007 0.549316C50.6683 -0.183105 49.4813 -0.183105 48.7489 0.549316L43.2977 6.00049C43.2948 6.00049 43.2919 6.00049 43.2889 6.00049C39.9408 6.00049 36.704 7.23047 34.1981 9.45508L32.4208 7.67773C29.1977 4.45459 24.2997 3.66846 20.2714 5.56982L15.2509 0.549316C14.519 -0.183105 13.3315 -0.183105 12.5991 0.549316C11.8672 1.28125 11.8672 2.46875 12.5991 3.20068L18.624 9.22607C19.2563 9.85791 20.246 9.95605 20.9902 9.46045C23.7397 7.62695 27.4321 7.99219 29.7694 10.3296L31.5287 12.0889L29.2255 14.3926C27.6225 15.02 26.4247 16.4717 26.162 18.2222C25.7807 18.126 25.3818 18.0752 24.9706 18.0752C22.2939 18.0752 20.101 20.2534 20.0834 22.9434L20.0834 35.5068L13.2426 28.666C11.0063 26.4297 9.77487 23.457 9.77487 20.2944C9.77487 19.9912 9.85446 19.2529 9.22556 18.624L3.20067 12.5991C2.46874 11.8672 1.28125 11.8672 0.549315 12.5991C-0.183105 13.3315 -0.183105 14.5186 0.549315 15.251L6.03074 20.7329C6.14061 24.7324 7.74998 28.4766 10.5908 31.3174L13.4511 34.1777C11.2656 34.4985 10.1816 36.7222 10.8662 38.5562C11.6235 40.5737 12.8637 43.8809 13.956 46.7964C15.4116 50.6758 18.3374 53.7427 22.0917 55.3789L22.0917 62.125C22.0917 63.1606 22.9316 64 23.9667 64C25.0024 64 25.8417 63.1606 25.8417 62.125L25.8417 54.0918C25.8417 53.2847 25.3256 52.5679 24.56 52.313C21.2704 51.2163 18.685 48.7256 17.4672 45.4795C16.4926 42.8784 15.4003 39.9653 14.6391 37.9365C16.247 38.1406 17.6972 39.0288 18.6098 40.3984L20.3984 43.0815C21.4238 44.6196 23.8334 43.8921 23.8334 42.0415L23.8334 22.9561C23.8378 22.3325 24.3481 21.8252 24.9711 21.8252C25.5986 21.8252 26.1088 22.3354 26.1088 22.9624L26.1088 34.0083C26.1088 35.0439 26.9482 35.8833 27.9838 35.8833C29.019 35.8833 29.8588 35.0439 29.8588 34.0083L29.8588 18.9346C29.8651 18.313 30.3744 17.8086 30.996 17.8086C31.6234 17.8086 32.1337 18.3188 32.1337 18.9458L32.1337 34.0083C32.1337 35.0439 32.973 35.8833 34.0087 35.8833C35.0443 35.8833 35.8837 35.0439 35.8837 34.0083L35.8837 20.9541C35.8837 20.3271 36.3939 19.8169 37.0214 19.8169C37.6488 19.8169 38.1591 20.3271 38.1591 20.9541L38.1591 34.0083C38.1591 35.0439 38.9984 35.8833 40.0341 35.8833C41.0692 35.8833 41.9091 35.0439 41.9091 34.0083L41.9091 26.979C41.9091 26.3521 42.4188 25.8418 43.0463 25.8418C43.6678 25.8418 44.1771 26.3467 44.184 26.9678L44.184 44.3945C44.184 47.5566 42.9525 50.5298 40.7167 52.7661C40.3646 53.1177 40.1674 53.5947 40.1674 54.0918L40.1674 62.125C40.1674 63.1606 41.0067 64 42.0424 64C43.0775 64 43.9174 63.1606 43.9174 62.125L43.9174 54.8403C46.5135 51.9707 47.9339 48.2915 47.9339 44.3945L47.9339 42.4829C48.8363 42.8677 49.6283 42.8706 50.0624 42.8394C51.5638 42.7305 52.9159 41.8916 53.6781 40.5962L58.0574 33.1646C61.0921 28.0137 59.8084 22.9165 58.4486 20.2534L63.4515 15.251C64.1829 14.5186 64.1829 13.3315 63.451 12.5991L63.451 12.5991Z" transform="translate(12 12)" id="Path" fill="#82CAC7" fill-rule="evenodd" stroke="none" />
  </g>
</svg>