<?xml version="1.0" encoding="utf-8"?>
<svg width="88px" height="88px" viewbox="0 0 88 88" version="1.1" xmlns:xlink="http://www.w3.org/1999/xlink" xmlns="http://www.w3.org/2000/svg">
  <g id="icon48eye">
    <path d="M27.8108 56.0093C33.5676 56.0093 38.9158 54.248 43.353 51.2313L58.1272 65.9912Q58.2468 66.1106 58.3775 66.2178Q58.5082 66.325 58.6487 66.4188Q58.7893 66.5127 58.9384 66.5923Q59.0875 66.6719 59.2436 66.7366Q59.3998 66.8012 59.5615 66.8503Q59.7233 66.8993 59.8891 66.9323Q60.0548 66.9652 60.223 66.9818Q60.3912 66.9984 60.5602 66.9984Q60.7293 66.9984 60.8975 66.9818Q61.0657 66.9653 61.2315 66.9324Q61.3972 66.8994 61.559 66.8504Q61.7207 66.8014 61.8769 66.7367Q62.0331 66.6721 62.1822 66.5925Q62.3313 66.5129 62.4718 66.419Q62.6124 66.3252 62.7431 66.218Q62.8738 66.1109 62.9934 65.9914L62.9948 65.99Q63.2344 65.7508 63.4226 65.4693Q63.6109 65.1879 63.7405 64.8751Q63.8702 64.5623 63.9363 64.2303Q64.0025 63.8982 64.0025 63.5596Q64.0025 63.221 63.9364 62.8889Q63.8703 62.5569 63.7407 62.2441Q63.6111 61.9313 63.4228 61.6498Q63.2346 61.3684 62.9951 61.1291L48.5337 46.6817C52.9413 41.7262 55.6216 35.1806 55.6216 28.0047C55.6216 12.5381 43.1703 -1.06581e-14 27.8108 -1.06581e-14C12.4513 -1.06581e-14 -1.03029e-13 12.5381 -1.03029e-13 28.0047C-1.03029e-13 43.4712 12.4513 56.0093 27.8108 56.0093ZM27.8108 50.7584C15.3312 50.7584 5.21453 40.5712 5.21453 28.0047C5.21453 15.4381 15.3312 5.25087 27.8108 5.25087C40.2904 5.25087 50.4071 15.4381 50.4071 28.0047C50.4071 40.5712 40.2904 50.7584 27.8108 50.7584ZM12.0403 21.5878C14.0225 15.5412 19.6498 11.3769 26.0726 11.3769C27.5126 11.3769 28.6799 12.5523 28.6799 14.0023C28.6799 15.4523 27.5126 16.6278 26.0726 16.6278C21.9164 16.6278 18.2739 19.3233 16.992 23.2338C16.5406 24.6107 15.0662 25.3585 13.6989 24.9039C12.3315 24.4494 11.5889 22.9648 12.0403 21.5878Z" transform="translate(12 11)" id="Combined-Shape" fill="#82CAC7" fill-rule="evenodd" stroke="none" />
  </g>
</svg>