<?xml version="1.0" encoding="utf-8"?>
<svg width="23px" height="23px" viewbox="0 0 23 23" version="1.1" xmlns:xlink="http://www.w3.org/1999/xlink" xmlns="http://www.w3.org/2000/svg">
  <path d="M11.5 0C5.14817 0 0 5.14865 0 11.5C0 17.8516 5.14817 23 11.5 23C17.8514 23 23 17.8516 23 11.5C23 5.14865 17.8514 0 11.5 0L11.5 0ZM16.1769 9.42113C16.1817 9.5184 16.1834 9.61615 16.1834 9.71438C16.1834 12.7075 13.905 16.1589 9.73908 16.1589C8.46018 16.1589 7.26969 15.7837 6.26752 15.1409C6.44433 15.1623 6.6245 15.1728 6.80754 15.1728C7.86889 15.1728 8.84543 14.8108 9.62073 14.203C8.62957 14.185 7.79294 13.53 7.50473 12.6303C7.6432 12.6565 7.78504 12.6711 7.93094 12.6711C8.13723 12.6711 8.33752 12.6433 8.52751 12.5915C7.49155 12.3833 6.71051 11.4681 6.71051 10.3704C6.71051 10.3608 6.71051 10.3514 6.71099 10.3421C7.01598 10.5117 7.36553 10.6135 7.73664 10.6255C7.12882 10.2192 6.72919 9.52606 6.72919 8.73999C6.72919 8.32503 6.8406 7.93619 7.03562 7.60149C8.15256 8.97191 9.82174 9.87346 11.7041 9.96809C11.6653 9.8023 11.6457 9.62932 11.6457 9.45179C11.6457 8.20093 12.6596 7.18701 13.9105 7.18701C14.5619 7.18701 15.1505 7.46205 15.5636 7.90217C16.0797 7.80058 16.5646 7.61227 17.002 7.35256C16.8327 7.88132 16.4738 8.32551 16.0063 8.60559C16.4644 8.55072 16.9009 8.42925 17.3073 8.24908C17.0037 8.70286 16.6197 9.102 16.1769 9.42113L16.1769 9.42113Z" id="C-Twitter" fill="#AEB0C1" fill-rule="evenodd" stroke="none" />
</svg>