<?xml version="1.0" encoding="utf-8"?>
<svg width="88px" height="88px" viewbox="0 0 88 88" version="1.1" xmlns:xlink="http://www.w3.org/1999/xlink" xmlns="http://www.w3.org/2000/svg">
  <g id="iconandroid-copy-2">
    <path d="M4 0L46 0C47.1046 0 48 0.895431 48 2L48 8L52 8C53.9853 8 56 10.0477 56 13L56 23C56 25.529 54.6681 27.3237 53 28L28 35C27.444 34.9391 27 35.5373 27 36L30.8667 36C32.0449 36 33 36.8954 33 38L33 41C33 42.1046 32.0449 43 30.8667 43L29.1875 43L32 58C32.5271 61.6773 29.9348 65.2884 26 66C25.8358 65.9802 25.6191 65.9863 25.3841 65.9929C25.2595 65.9964 25.1297 66 25 66C21.1338 66 18 62.8518 18 59C18 58.8543 18.0038 58.7128 18.0074 58.5812C18.0138 58.3438 18.0194 58.1387 18 58L20.8125 43L19.1333 43C17.9551 43 17 42.1046 17 41L17 38C17 36.8954 17.9551 36 19.1333 36L24 36C24 34.1759 25.3319 32.3813 27 32L52 25C52.556 24.7658 53 24.1676 53 23L53 13C53 11.7318 52.3284 11.0492 52 11L48 11L48 17C48 18.1046 47.1046 19 46 19L4 19C2.89543 19 2 18.1046 2 17L2 12L1.999 12Q1.9008 12 1.80306 11.9904Q1.70533 11.9807 1.60901 11.9616Q1.5127 11.9424 1.41872 11.9139Q1.32474 11.8854 1.23402 11.8478Q1.14329 11.8103 1.05668 11.764Q0.970069 11.7177 0.888415 11.6631Q0.806761 11.6085 0.730848 11.5462Q0.654935 11.4839 0.585494 11.4145Q0.516052 11.3451 0.453752 11.2692Q0.391452 11.1932 0.336892 11.1116Q0.282333 11.0299 0.236039 10.9433Q0.189746 10.8567 0.152165 10.766Q0.114584 10.6753 0.0860763 10.5813Q0.057569 10.4873 0.0384102 10.391Q0.0192515 10.2947 0.00962573 10.1969Q0 10.0992 0 10.001L0 8.999Q0 8.90079 0.00962573 8.80306Q0.0192515 8.70533 0.0384102 8.60901Q0.057569 8.5127 0.0860762 8.41872Q0.114584 8.32474 0.152165 8.23401Q0.189746 8.14329 0.236039 8.05668Q0.282333 7.97007 0.336892 7.88841Q0.391452 7.80676 0.453752 7.73085Q0.516052 7.65493 0.585493 7.58549Q0.654935 7.51605 0.730848 7.45375Q0.806761 7.39145 0.888415 7.33689Q0.970069 7.28233 1.05668 7.23604Q1.14329 7.18975 1.23402 7.15216Q1.32474 7.11458 1.41872 7.08608Q1.5127 7.05757 1.60901 7.03841Q1.70533 7.01925 1.80306 7.00963Q1.9008 7 1.999 7L2 7L2 2C2 0.895431 2.89543 0 4 0ZM5 8.999L5 16L45 16L45 3L5 3L5 8.999ZM20 40L20 39L30 39L30 40L20 40ZM21 58C21.012 58.3747 21.0073 58.5929 21.0033 58.7748C21.0016 58.8534 21 58.9253 21 59C21 61.195 22.7907 63 25 63C25.0615 63 25.1229 62.9986 25.1929 62.9969C25.3664 62.9929 25.5922 62.9876 26 63C27.8199 62.592 29.3012 60.5215 29 58L27 45L23 45L21 58Z" transform="translate(16 12)" id="Combined-Shape" fill="#1A0D7C" fill-rule="evenodd" stroke="none" />
  </g>
</svg>