<?xml version="1.0" encoding="utf-8"?>
<svg width="88px" height="88px" viewbox="0 0 88 88" version="1.1" xmlns:xlink="http://www.w3.org/1999/xlink" xmlns="http://www.w3.org/2000/svg">
  <g id="iconandroid-copy">
    <path d="M64 0L8 0C3.58172 0 0 3.58172 0 8L0 64C0 68.4183 3.58172 72 8 72L64 72C68.4183 72 72 68.4183 72 64L72 8C72 3.58172 68.4183 0 64 0ZM3 8C3 5.23858 5.23858 3 8 3L64 3C66.7614 3 69 5.23858 69 8L69 14L3 14L3 8ZM11 10C9.89543 10 9 9.10457 9 8C9 6.89543 9.89543 6 11 6C12.1046 6 13 6.89543 13 8C13 9.10457 12.1046 10 11 10ZM17 8C17 9.10457 17.8954 10 19 10C20.1046 10 21 9.10457 21 8C21 6.89543 20.1046 6 19 6C17.8954 6 17 6.89543 17 8ZM27 10C25.8954 10 25 9.10457 25 8C25 6.89543 25.8954 6 27 6C28.1046 6 29 6.89543 29 8C29 9.10457 28.1046 10 27 10ZM3 17L3 64C3 66.7614 5.23858 69 8 69L64 69C66.7614 69 69 66.7614 69 64L69 17L3 17ZM43.8158 24.0261L40.9968 23L28 58.7083L30.8191 59.7344L43.8158 24.0261ZM14.3033 39.6066L22.7886 31.1213L20.6673 29L12.182 37.4853C10.4246 39.2426 10.4246 42.0919 12.182 43.8492L20.6673 52.3345L22.7886 50.2132L14.3033 41.7279C13.7175 41.1421 13.7175 40.1924 14.3033 39.6066ZM48.2353 32.3107L56.7206 40.7959C57.3064 41.3817 57.3064 42.3315 56.7206 42.9173L48.2353 51.4025L50.3566 53.5239L58.8419 45.0386C60.5992 43.2812 60.5992 40.432 58.8419 38.6746L50.3566 30.1893L48.2353 32.3107Z" transform="translate(8 8)" id="Combined-Shape" fill="#1A0D7C" fill-rule="evenodd" stroke="none" />
  </g>
</svg>