<?xml version="1.0" encoding="utf-8"?>
<svg width="88px" height="88px" viewbox="0 0 88 88" version="1.1" xmlns:xlink="http://www.w3.org/1999/xlink" xmlns="http://www.w3.org/2000/svg">
  <g id="iconandroid-copy-13">
    <g id="windows" transform="translate(8 7)">
      <path d="M34.88 0.319149C34.56 0.159574 34.08 0 33.6 0L1.44 4.30851C0.64 4.46808 0 5.10638 0 5.90426L0 33.9894C0 34.9468 0.64 35.5851 1.6 35.5851L33.76 35.5851C34.72 35.5851 35.36 34.9468 35.36 33.9894L35.36 1.59574C35.36 1.11702 35.2 0.638298 34.88 0.319149ZM32.16 32.3936L3.36 32.3936L3.36 7.34043L32.16 3.35106L32.16 32.3936Z" transform="translate(36.64 0)" id="Shape" fill="#82CAC7" stroke="none" />
      <path d="M32 0C32 0 32 0 32 0L1.6 0.159574C0.64 0.159574 0 0.797872 0 1.75532L0 25.6915C0 26.4894 0.64 27.1277 1.44 27.2872L31.68 31.117C31.68 31.117 31.84 31.117 31.84 31.117C32.16 31.117 32.64 30.9574 32.96 30.6383C33.28 30.3191 33.44 29.8404 33.44 29.3617L33.44 1.59574C33.44 1.11702 33.28 0.797872 32.96 0.478723C32.8 0.159574 32.32 0 32 0ZM30.4 27.6064L3.2 24.2553L3.2 3.35106L30.24 3.35106L30.24 27.6064L30.4 27.6064Z" transform="translate(0 38.776596)" id="Shape" fill="#82CAC7" stroke="none" />
      <path d="M31.68 0.0626018L1.28 3.89239C0.48 4.05196 0 4.69026 0 5.48813L0 28.9456C0 29.903 0.64 30.5413 1.6 30.5413L32 30.5413C32.96 30.5413 33.6 29.903 33.6 28.9456L33.6 1.65835C33.6 1.17962 33.44 0.7009 33.12 0.381751C32.8 0.0626018 32.16 -0.0969726 31.68 0.0626018ZM30.4 27.3498L3.2 27.3498L3.2 6.9243L30.4 3.41367L30.4 27.3498Z" transform="translate(0 5.0437813)" id="Shape" fill="#82CAC7" stroke="none" />
      <path d="M33.76 0L1.6 0L1.6 0C1.12 0 0.8 0.159574 0.48 0.478723C0.16 0.797872 0 1.11702 0 1.59574L0 30.1596C0 30.9574 0.64 31.5957 1.44 31.7553L33.6 36.0638C33.6 36.0638 33.76 36.0638 33.76 36.0638C34.08 36.0638 34.56 35.9043 34.88 35.7447C35.2 35.4255 35.36 34.9468 35.36 34.4681L35.36 1.59574C35.36 0.638298 34.72 0 33.76 0ZM32.16 32.7128L3.36 28.7234L3.36 3.03191L32.32 3.03191L32.32 32.7128L32.16 32.7128Z" transform="translate(36.64 38.93617)" id="Shape" fill="#82CAC7" stroke="none" />
    </g>
  </g>
</svg>